<svg width="199.157" height="203.851" viewBox="0 0 52.694 53.935" xml:space="preserve" xmlns:xlink="http://www.w3.org/1999/xlink" xmlns="http://www.w3.org/2000/svg"><defs><linearGradient id="b"><stop style="stop-color:#dd001e;stop-opacity:1" offset=".483"/><stop style="stop-color:#c3001b;stop-opacity:1" offset=".483"/><stop style="stop-color:#c3001b;stop-opacity:1" offset=".997"/></linearGradient><linearGradient xlink:href="#b" id="f" x1="107.712" y1="151.47" x2="135.392" y2="151.47" gradientUnits="userSpaceOnUse" spreadMethod="repeat" gradientTransform="matrix(1.37632 0 0 1.26657 -46.016 -40.227)"/><pattern xlink:href="#a" id="d"/><pattern patternUnits="userSpaceOnUse" width="76.627" height="78.427" patternTransform="translate(60.514 54.496)" id="a"><text xml:space="preserve" transform="matrix(9.22915 0 0 9.09913 178.959 -491.466)" style="white-space:pre;shape-inside:url(#c);display:inline;fill:#b81a1e;fill-opacity:1;stroke:none;stroke-width:.824875;stroke-linecap:round;stroke-linejoin:round;stroke-dasharray:none;stroke-dashoffset:0;stroke-opacity:1"><tspan x="-19.678" y="62.632"><tspan style="font-family:'Century Gothic';-inkscape-font-specification:'Century Gothic';fill:#fff">A</tspan></tspan></text></pattern><path id="e" d="M20.787 67.056h90.19v91.532h-90.19z"/><path id="c" d="M-19.678 51.683h18.492v29.161h-18.492z"/></defs><g transform="translate(-94.92 -124.194)" style="display:inline"><rect style="display:inline;fill:#e64749;fill-opacity:1;stroke:none;stroke-width:.8;stroke-linecap:round;stroke-linejoin:round;stroke-dasharray:none;stroke-dashoffset:0;stroke-opacity:1" width="52.694" height="53.935" x="94.919" y="124.194" ry="12.065"/><path style="display:inline;fill:url(#f);fill-opacity:1;stroke:none;stroke-width:2.00001;stroke-linecap:round;stroke-linejoin:round;stroke-dasharray:none;stroke-dashoffset:0;stroke-opacity:1" d="m102.23 138.885 18.394-8.274 19.704 8.274-2.94 23.254-16.754 10.494-15.983-10.114z"/><path style="display:inline;fill:none;stroke:none;stroke-width:.264583" d="M107.923 135.086h25.156v25.504h-25.156z"/><g style="font-size:85.3333px;line-height:0;font-family:'Century Gothic';-inkscape-font-specification:'Century Gothic';white-space:pre;shape-inside:url(#e);fill:#fff;stroke-width:67.8516;stroke-linecap:round;stroke-linejoin:round"><path d="m53.212 28.001 26.513 54.487-9.733.351-5.265-11.917-23.914.075-5.24 11.725-8.895.076A1895.498 1895.498 0 0 1 53.212 28zm.106 16.831-9.499 20.28 18.969.182z" style="display:inline" aria-label="A" transform="matrix(.42607 0 0 .4161 97.921 125.288)"/></g></g></svg>