<svg width="199.157" height="203.851" viewBox="0 0 52.694 53.935" xml:space="preserve" xmlns:xlink="http://www.w3.org/1999/xlink" xmlns="http://www.w3.org/2000/svg"><defs><pattern xlink:href="#a" id="c"/><pattern patternUnits="userSpaceOnUse" width="76.627" height="78.427" patternTransform="translate(60.514 54.496)" id="a"><text xml:space="preserve" transform="matrix(9.22915 0 0 9.09913 178.959 -491.466)" style="white-space:pre;shape-inside:url(#b);display:inline;fill:#b81a1e;fill-opacity:1;stroke:none;stroke-width:.824875;stroke-linecap:round;stroke-linejoin:round;stroke-dasharray:none;stroke-dashoffset:0;stroke-opacity:1"><tspan x="-19.678" y="62.632"><tspan style="font-family:'Century Gothic';-inkscape-font-specification:'Century Gothic';fill:#fff">A</tspan></tspan></text></pattern><path id="d" d="M20.787 67.056h90.19v91.532h-90.19z"/><path id="b" d="M-19.678 51.683h18.492v29.161h-18.492z"/></defs><g transform="translate(-94.92 -124.194)" style="display:inline"><rect style="display:inline;opacity:1;fill:#242e3d;fill-opacity:1;stroke:none;stroke-width:.8;stroke-linecap:round;stroke-linejoin:round;stroke-dasharray:none;stroke-dashoffset:0;stroke-opacity:1" width="52.694" height="53.935" x="94.919" y="124.194" ry="12.065"/><g style="stroke-width:1.48237"><path style="fill:#fed8a0;stroke-width:1.48237" d="M120.542 242.175c.264-.01.696-.01.96 0s.048.02-.48.02-.744-.01-.48-.02zm-2.003-.055a1.97 1.97 0 0 1 .384 0c.114.012.034.022-.177.022-.21 0-.304-.01-.207-.022zm4.445 0c.098-.013.246-.013.329 0 .082.013.002.023-.18.023-.18 0-.248-.01-.15-.024zm-5.402-.057a.945.945 0 0 1 .274 0c.067.014 0 .025-.152.025-.15 0-.206-.012-.122-.025zm6.443 0a.581.581 0 0 1 .22.002c.052.014-.003.025-.125.024-.12 0-.163-.012-.095-.026zm-7.212-.055a.435.435 0 0 1 .192 0c.053.014.01.026-.096.026-.105 0-.149-.012-.096-.026zm8.008 0a.304.304 0 0 1 .164.001c.037.016-.007.028-.097.027-.09-.001-.12-.014-.067-.029zm-8.666-.057a.435.435 0 0 1 .192 0c.053.014.01.026-.096.026s-.149-.012-.096-.026zm9.268 0a.435.435 0 0 1 .192 0c.053.014.01.026-.096.026s-.149-.012-.096-.026zm-9.815-.057a.304.304 0 0 1 .164.002c.037.015-.007.027-.097.026-.09-.001-.12-.014-.067-.028zm10.42 0a.304.304 0 0 1 .164.002c.037.015-.007.027-.097.026-.09-.001-.121-.014-.068-.028zm-10.942-.056a.204.204 0 0 1 .137 0c.038.016.007.03-.069.03-.075 0-.106-.014-.068-.03zm11.435-.002a.304.304 0 0 1 .164.002c.037.016-.007.028-.097.027-.09-.001-.12-.014-.067-.029zm-11.929-.055a.204.204 0 0 1 .137 0c.038.016.007.029-.068.029-.076 0-.106-.013-.069-.029zm12.394 0a.204.204 0 0 1 .137 0c.038.016.007.029-.069.029-.075 0-.106-.013-.068-.029zm-12.833-.057a.204.204 0 0 1 .138 0c.037.016.007.03-.069.03-.075 0-.106-.014-.069-.03zm13.272 0a.204.204 0 0 1 .137 0c.037.016.007.03-.069.03-.075 0-.106-.014-.068-.03zm-13.655-.057a.204.204 0 0 1 .137 0c.037.016.007.03-.069.03-.075 0-.106-.014-.069-.03zm14.038 0a.204.204 0 0 1 .138 0c.037.016.007.03-.069.03-.075 0-.106-.014-.068-.03zm-14.419-.058c.04-.016.087-.014.105.004.018.02-.014.033-.072.03-.064-.003-.077-.016-.033-.034zm14.803.001a.204.204 0 0 1 .137 0c.038.016.007.03-.068.03-.076 0-.106-.014-.069-.03zm-15.132-.058c.04-.016.087-.014.105.004.018.02-.014.033-.072.03-.064-.003-.077-.016-.033-.034zm15.516.001a.204.204 0 0 1 .137 0c.038.016.007.029-.068.029-.076 0-.106-.013-.069-.029zm-15.9-.058c.04-.016.087-.014.105.004.019.02-.014.033-.072.03-.064-.003-.077-.016-.033-.034zm16.287 0c.04-.016.087-.014.106.004.018.02-.015.033-.072.03-.064-.003-.077-.016-.034-.034zm-16.616-.057c.04-.016.087-.014.105.005.019.02-.014.033-.072.03-.064-.003-.077-.016-.033-.034zm16.946 0c.04-.016.086-.014.105.005.018.02-.015.033-.072.03-.064-.003-.077-.016-.033-.034zm-17.275-.057c.04-.016.087-.014.105.004.018.02-.014.033-.072.03-.064-.003-.077-.016-.033-.034zm17.604 0c.04-.016.086-.014.105.004.018.02-.015.033-.072.03-.064-.003-.077-.016-.033-.034zm.329-.057c.04-.016.086-.014.105.004.018.02-.015.033-.072.03-.064-.003-.077-.016-.033-.034zm-18.536-.056c.04-.017.087-.015.105.004.018.018-.014.032-.072.03-.064-.004-.077-.017-.033-.035zm18.81 0c.04-.017.087-.015.105.004.018.018-.014.032-.072.03-.064-.004-.077-.017-.033-.035zm1.645-.342c.04-.016.087-.014.105.004.018.019-.014.033-.072.03-.064-.003-.077-.016-.033-.034zm18.34-2.067c0-.11.01-.154.024-.1a.484.484 0 0 1 0 .2c-.013.055-.025.01-.025-.1zm1.056.057c.054-.062.111-.114.127-.114.015 0-.018.052-.072.114-.055.063-.112.114-.127.114s.017-.051.072-.114zm.52-.484c.103-.11.2-.199.214-.199.015 0-.056.09-.158.2-.103.109-.199.199-.214.199-.015 0 .057-.09.159-.2zm.522-.597c.054-.063.111-.114.127-.114.015 0-.018.051-.072.114-.055.062-.112.114-.127.114s.017-.052.072-.114zm.411-.534c0-.012.043-.056.096-.1.087-.07.089-.068.02.022-.07.095-.116.125-.116.078zm-31.436-.305c.279-.01.735-.01 1.014 0 .28.01.05.018-.507.018-.558 0-.786-.008-.507-.018zm-2.167-.056c.114-.013.299-.013.412 0 .113.012.02.022-.206.022-.226 0-.319-.01-.206-.022zm4.881 0c.113-.013.298-.013.411 0 .114.012.021.022-.205.022-.226 0-.319-.01-.206-.022zm-6.031-.057a.945.945 0 0 1 .274.001c.067.014-.001.024-.152.024-.15 0-.206-.012-.122-.025zm7.293 0a.944.944 0 0 1 .274.001c.068.014 0 .024-.151.024s-.206-.012-.123-.025zm-26.94-.073c-.046-.03-.058-.055-.028-.055.03 0 .092.025.137.055.046.03.058.056.028.056a.321.321 0 0 1-.137-.056zm18.74.017a.751.751 0 0 1 .248 0c.068.014.012.025-.124.025-.135 0-.19-.011-.123-.025zm9.105 0a.581.581 0 0 1 .22.001c.052.014-.004.025-.125.025-.12 0-.163-.012-.095-.026zm-9.79-.056a.435.435 0 0 1 .192 0c.053.014.01.026-.096.026-.105 0-.148-.012-.096-.026zm10.53 0a.435.435 0 0 1 .192 0c.052.014.01.026-.096.026s-.15-.012-.096-.026zm-11.187-.057a.304.304 0 0 1 .165.002c.037.016-.007.027-.097.026-.09 0-.12-.014-.068-.028zm11.846 0a.304.304 0 0 1 .164.002c.037.016-.007.027-.097.026-.09 0-.12-.014-.067-.028zm-12.449-.057a.304.304 0 0 1 .165.002c.037.016-.007.028-.097.026-.09 0-.121-.014-.068-.028zm12.997 0a.304.304 0 0 1 .165.002c.037.016-.007.028-.097.026-.09 0-.121-.014-.068-.028zm-13.545-.057a.304.304 0 0 1 .164.002c.037.016-.007.028-.097.026-.09 0-.12-.013-.067-.028zm14.065.002a.204.204 0 0 1 .137 0c.038.016.007.029-.068.029-.076 0-.107-.013-.069-.029zm-14.559-.058a.304.304 0 0 1 .165.002c.037.015-.007.027-.097.026-.09-.001-.121-.014-.068-.029zm15.053.002a.204.204 0 0 1 .137 0c.037.015.007.028-.069.028-.075 0-.106-.013-.068-.028zm-15.52-.057a.204.204 0 0 1 .137 0c.038.015.007.028-.068.028-.076 0-.107-.013-.069-.028zm16.013 0a.204.204 0 0 1 .137 0c.038.015.007.028-.068.028-.076 0-.107-.013-.069-.028zm-16.452-.057a.204.204 0 0 1 .137 0c.038.016.007.028-.068.028-.076 0-.106-.012-.069-.028zm16.89 0a.204.204 0 0 1 .138 0c.038.016.007.028-.069.028-.075 0-.106-.012-.068-.028zm-17.328-.057a.204.204 0 0 1 .137 0c.037.016.007.029-.069.029-.075 0-.106-.013-.068-.03zm17.713 0a.204.204 0 0 1 .137 0c.038.016.007.029-.069.029-.075 0-.106-.013-.068-.03zm-18.094-.058c.04-.017.087-.015.105.004.019.019-.014.032-.072.03-.064-.003-.077-.017-.033-.035zm18.532 0a.204.204 0 0 1 .138 0c.037.017.007.03-.07.03-.074 0-.105-.013-.068-.03zm-18.916-.057c.04-.017.087-.015.105.004.019.019-.014.032-.072.03-.063-.003-.076-.017-.033-.035zm19.304 0c.04-.017.087-.015.105.004.018.019-.014.032-.072.03-.064-.003-.077-.017-.033-.035zm-19.688-.057c.04-.017.087-.015.106.004.018.019-.015.032-.072.03-.064-.003-.077-.017-.034-.035zm20.072 0c.04-.017.087-.015.105.004.018.019-.014.032-.072.03-.064-.003-.077-.017-.033-.035zm-20.459-.056a.204.204 0 0 1 .137 0c.038.016.007.029-.068.029-.076 0-.106-.013-.069-.029zm20.788-.001c.04-.016.087-.014.105.004.018.019-.014.032-.072.03-.064-.003-.077-.016-.033-.034zm-21.113-.057c.04-.016.086-.014.105.004.018.019-.015.033-.072.03-.064-.003-.077-.016-.033-.034zm21.442 0c.04-.016.087-.014.105.004.018.019-.014.033-.072.03-.064-.003-.077-.016-.033-.034zm-21.771-.057c.04-.016.086-.014.105.004.018.02-.015.033-.072.03-.064-.003-.077-.016-.033-.034zm22.155 0c.04-.016.086-.014.105.004.018.02-.015.033-.072.03-.064-.003-.077-.016-.033-.034zm-22.485-.057c.04-.016.087-.014.106.004.018.02-.015.033-.072.03-.064-.003-.077-.016-.034-.034zm22.759 0c.04-.016.087-.014.105.004.018.02-.014.033-.072.03-.064-.003-.077-.016-.033-.034zm-23.088-.057c.04-.016.087-.014.106.004.018.02-.015.033-.072.03-.064-.003-.077-.016-.034-.034zm23.417 0c.04-.016.087-.014.105.004.018.02-.014.033-.072.03-.064-.003-.077-.016-.033-.034zm.329-.056c.04-.017.087-.015.105.004.018.018-.014.032-.072.03-.064-.004-.077-.017-.033-.035zm-24.349-.057c.04-.017.087-.015.105.004.019.019-.014.032-.072.03-.064-.003-.077-.017-.033-.035zm24.623 0c.04-.017.087-.015.105.004.018.019-.014.032-.072.03-.064-.003-.077-.017-.033-.035zm-25.5-.171c.04-.017.087-.015.105.004.018.019-.014.032-.072.03-.064-.003-.077-.016-.033-.035zm-.274-.057c.04-.016.086-.014.105.004.018.019-.015.032-.072.03-.064-.003-.077-.016-.033-.035zm-.275-.057c.04-.016.087-.014.105.004.019.019-.014.032-.072.03-.063-.003-.076-.016-.033-.034zm27.968-.114c.04-.016.087-.014.105.004.019.02-.014.033-.072.03-.063-.003-.076-.016-.033-.034zm-29.01-.114c.04-.016.087-.014.106.004.018.02-.015.033-.072.03-.064-.003-.077-.016-.034-.034zm29.504 0c.04-.016.087-.014.105.004.018.02-.014.033-.072.03-.064-.003-.077-.016-.033-.034zm.493-.113c.04-.017.087-.015.106.004.018.019-.015.032-.072.03-.064-.003-.077-.017-.034-.035zm-30.71-.057c.04-.017.087-.015.106.004.018.019-.015.032-.072.03-.064-.003-.077-.017-.033-.035zm43.224-2.039a.657.657 0 0 1 .156-.142c.015 0-.03.064-.101.142a.657.657 0 0 1-.156.143c-.015 0 .03-.064.101-.143zm.344-.768c0-.14.01-.198.024-.128a.84.84 0 0 1 0 .256c-.013.07-.024.013-.024-.128zm2.677-.204c.003-.066.015-.08.033-.034.015.04.014.09-.004.109-.019.019-.032-.015-.03-.075zm.054-.285c.003-.066.016-.08.033-.034.016.041.014.09-.004.11-.018.018-.03-.016-.028-.076zm.055-.341c.003-.066.016-.08.033-.034.016.04.014.09-.004.109-.018.019-.03-.015-.029-.075zm-3.938-.178a.944.944 0 0 1 .274 0c.068.014 0 .025-.151.024-.151 0-.206-.011-.123-.024zm-58.864-.116c-.068-.09-.066-.092.02-.022.092.075.121.122.076.122-.011 0-.055-.045-.096-.1zm62.868-.242c0-.14.01-.198.023-.128a.84.84 0 0 1 0 .256c-.013.07-.023.013-.023-.128zm-63.087.071c-.069-.09-.067-.092.02-.021.092.074.12.12.076.12-.012 0-.055-.044-.096-.099zm66.037-.104c.003-.066.016-.08.033-.035.016.042.014.09-.004.11-.018.018-.03-.015-.028-.075zm-66.312-.123c-.068-.09-.066-.093.021-.022.091.074.12.121.075.121-.011 0-.054-.045-.096-.1zm66.367-.162c.003-.066.016-.08.033-.034.016.041.014.09-.004.109-.018.019-.03-.015-.029-.075zm-66.64-.066c-.069-.09-.067-.092.02-.022.091.075.12.121.075.121-.011 0-.054-.044-.096-.1zm-.275-.228c-.068-.09-.066-.092.02-.021.092.074.121.12.076.12-.011 0-.055-.044-.096-.099zm63.905-.042c.001-.094.014-.126.028-.07a.338.338 0 0 1-.002.17c-.015.039-.027-.007-.026-.1zm3.065.052c.003-.067.016-.08.033-.035.016.041.014.09-.004.11-.018.018-.031-.015-.029-.075zm-67.27-.266-.104-.128.123.109c.116.101.148.147.105.147a.62.62 0 0 1-.124-.128zm67.325-.076c.003-.066.015-.08.033-.034.016.041.014.09-.004.109-.018.019-.031-.015-.029-.075zm-67.683-.237c-.068-.09-.066-.092.02-.021.092.074.121.12.076.12-.011 0-.055-.044-.096-.099zm67.742-.185c0-.078.013-.11.028-.07a.228.228 0 0 1 0 .141c-.015.04-.028.007-.028-.07zm-68.071-.1c-.068-.09-.066-.092.02-.02.092.073.121.12.076.12-.011 0-.055-.045-.096-.1zm64.549-.056-.133-.157.15.138c.141.13.176.175.133.175a.958.958 0 0 1-.15-.156zm-64.985-.342-.133-.156.15.138c.142.129.177.175.134.175a.967.967 0 0 1-.15-.157zm56.256.119a.204.204 0 0 1 .137 0c.037.016.007.029-.069.029-.075 0-.106-.013-.068-.029zm12.311-.161c0-.126.012-.17.025-.1a.648.648 0 0 1 0 .228c-.015.055-.025-.004-.025-.128zm-12.908.042c-.068-.09-.066-.092.02-.021.054.043.097.088.097.1 0 .046-.045.016-.117-.079zm1.09.062a.204.204 0 0 1 .137 0c.038.016.007.029-.068.029-.076 0-.107-.013-.069-.029zm.439-.057a.204.204 0 0 1 .137 0c.038.016.007.029-.069.029-.075 0-.106-.013-.068-.029zm.522-.058a.304.304 0 0 1 .164.002c.037.015-.007.027-.097.026-.09-.001-.12-.014-.067-.029zm.52-.056a.204.204 0 0 1 .137 0c.038.016.007.029-.069.029-.075 0-.106-.013-.068-.029zm.577-.058a.304.304 0 0 1 .164.002c.037.015-.007.027-.097.026-.09-.001-.12-.014-.067-.028zm4.965 0c.04-.016.087-.014.105.004.018.02-.014.033-.072.03-.064-.003-.077-.016-.033-.034zm-4.335-.058a.581.581 0 0 1 .22 0c.052.015-.004.026-.125.026-.12-.001-.163-.013-.095-.026zm4.006 0c.04-.016.087-.014.105.005.018.019-.014.032-.072.03-.064-.003-.077-.016-.033-.035zm-3.157-.058c.083-.013.219-.013.302 0 .083.013.015.024-.151.024-.166 0-.234-.01-.15-.024zm2.495 0a.751.751 0 0 1 .247 0c.068.014.012.025-.123.025-.136 0-.191-.01-.124-.024zm-63.328-.23-.19-.213.207.196c.113.108.205.204.205.214 0 .043-.046.003-.222-.196zm56.378-.27a.654.654 0 0 1 .156-.142c.015 0-.03.064-.102.142a.657.657 0 0 1-.156.142c-.015 0 .03-.064.102-.142zm12.733-.569c0-.094.013-.125.027-.07a.338.338 0 0 1-.002.17c-.015.04-.026-.006-.025-.1zm-.061-.346c.003-.066.015-.08.033-.035.016.042.014.09-.004.11-.018.018-.031-.015-.029-.075zm-68.814-.006a.435.435 0 0 1 .192 0c.053.014.01.026-.096.026s-.149-.012-.096-.026zm60.628-1.081c.04-.017.087-.015.105.004.018.019-.014.032-.072.03-.064-.003-.077-.016-.033-.035zm.274-.057c.04-.016.087-.014.105.004.019.019-.014.032-.072.03-.064-.003-.077-.016-.033-.035zm.33-.057c.039-.016.086-.014.104.004.019.019-.014.032-.072.03-.063-.003-.076-.016-.033-.034zm5.483 0c.04-.016.087-.014.105.004.019.019-.014.032-.072.03-.064-.003-.077-.016-.033-.034zm-5.158-.056a.204.204 0 0 1 .137 0c.038.016.007.03-.069.03-.075 0-.106-.014-.068-.03zm4.83 0c.039-.017.086-.015.104.003.018.02-.014.033-.072.03-.064-.003-.077-.016-.033-.034zm-4.418-.058a.304.304 0 0 1 .165.002c.037.015-.007.027-.097.026-.09 0-.121-.014-.068-.028zm4.03.002a.204.204 0 0 1 .137 0c.038.016.007.029-.069.029-.075 0-.106-.013-.068-.03zm-3.51-.06a.581.581 0 0 1 .22.001c.053.015-.003.026-.124.025-.12 0-.163-.012-.095-.026zm2.934.001a.435.435 0 0 1 .192 0c.053.015.01.026-.096.026s-.149-.011-.096-.026zm-1.782-.06a13 13 0 0 1 .905 0c.248.01.045.02-.453.02-.497 0-.701-.01-.452-.02zm-6.004-4.322a.304.304 0 0 1 .164.002c.038.016-.007.027-.097.026-.09 0-.12-.014-.067-.028zm.355.002a.204.204 0 0 1 .137 0c.038.016.007.029-.068.029-.075 0-.106-.013-.069-.029zm-47.487-10.36c.04-.016.087-.014.105.005.018.019-.014.032-.072.03-.064-.003-.077-.017-.033-.035zm-.439-8.82c.04-.017.087-.015.105.004.019.02-.014.033-.072.03-.063-.003-.076-.016-.033-.034zm.549 0c.04-.017.087-.015.105.004.018.02-.014.033-.072.03-.064-.003-.077-.016-.033-.034z" transform="matrix(.67022 0 0 .679 40.019 1.277)"/><path style="fill:#9da1a8;stroke-width:1.48237" d="M143.492 221.578a.204.204 0 0 1 .138 0c.037.016.007.028-.07.028-.074 0-.105-.012-.068-.028zm2.307-.001c.04-.017.087-.015.105.004.018.019-.014.032-.072.03-.064-.003-.077-.017-.033-.035zm-50.702-.059c.083-.013.219-.013.301 0 .083.013.016.024-.15.024-.166 0-.234-.011-.151-.024zm.603 0c.083-.013.219-.013.302 0 .083.013.015.024-.151.024-.166 0-.234-.011-.15-.024zm47.247.002c.04-.016.087-.014.106.004.018.019-.015.032-.072.03-.064-.003-.077-.016-.034-.035zm-15.577-.516c.309-.01.815-.01 1.124 0 .31.01.056.019-.562.019-.619 0-.871-.008-.562-.019zm-1.445-.313-.104-.128.123.108a.62.62 0 0 1 .123.128c0 .046-.044.012-.142-.108zm-11.82-.029c-.068-.09-.066-.092.021-.021.091.074.12.121.075.121-.011 0-.054-.045-.096-.1zm37.076-1.394c.228-.251.277-.296.277-.254 0 .01-.117.131-.26.27l-.261.254zm-49.435-.384c.149-.157.283-.285.298-.285.015 0-.095.128-.243.285-.149.156-.282.285-.298.285-.015 0 .095-.129.243-.285zm-5.905-.551c.04-.017.087-.015.105.004.018.019-.014.032-.072.03-.064-.003-.077-.016-.033-.035zm1.425 0c.04-.017.087-.015.106.004.018.019-.015.032-.072.03-.064-.003-.077-.016-.034-.035zm46.42 0a.304.304 0 0 1 .164.001c.037.016-.007.028-.097.027-.09-.001-.12-.014-.068-.029zm1.452.001a.204.204 0 0 1 .137 0c.037.016.007.029-.069.029-.075 0-.106-.013-.068-.029zm-51.045-.858-.189-.214.206.196c.191.183.23.231.189.231-.01 0-.102-.096-.206-.213zm6.611-.64c.055-.063.112-.114.127-.114s-.017.05-.072.113c-.055.063-.112.114-.127.114s.018-.051.072-.114zm27.228 0c0-.032.026-.058.058-.058s.043.026.024.057c-.018.032-.045.057-.058.057-.013 0-.024-.025-.024-.057zm-26.899-.342c.055-.063.112-.114.127-.114s-.017.051-.072.114c-.055.063-.112.114-.127.114s.018-.051.072-.114zm-11.805-.854c0-.11.011-.154.025-.1a.485.485 0 0 1 0 .2c-.014.055-.025.01-.025-.1zm16.718-.033c.003-.066.015-.08.033-.034.016.04.014.09-.004.109-.018.019-.031-.015-.03-.075zm43.115-.308c0-.172.01-.243.023-.157a1.3 1.3 0 0 1 0 .313c-.012.086-.023.016-.023-.156zm-55.779.114c0-.079.013-.11.028-.072a.228.228 0 0 1 0 .143c-.015.039-.028.007-.028-.071zm59.614-.171c0-.11.012-.155.025-.1a.484.484 0 0 1 0 .2c-.013.054-.025.01-.025-.1zm-63.668-.455c0-.11.011-.155.025-.1a.485.485 0 0 1 0 .2c-.014.054-.025.01-.025-.1zm63.666-.257c.001-.093.014-.125.028-.07a.338.338 0 0 1-.002.171c-.015.039-.027-.007-.026-.1zm-59.616-.005c.002-.066.015-.08.033-.034.016.041.014.09-.004.11-.019.018-.032-.016-.03-.076zm8.774-.626c.003-.066.016-.08.033-.034.016.041.014.09-.004.11-.018.018-.031-.016-.029-.076zm.05-1.315c-.015-.445-.008-.789.016-.764.023.024.036.388.027.808l-.015.764zM99.9 211.39c.04-.017.087-.015.105.004.018.019-.014.032-.072.03-.064-.003-.077-.017-.033-.035zm-.494-.057c.04-.017.087-.015.105.004.018.019-.014.032-.072.03-.064-.003-.077-.017-.033-.035zm-2.252-.056a.204.204 0 0 1 .137 0c.038.016.007.029-.068.029-.076 0-.106-.013-.069-.029zm1.399-.002a.435.435 0 0 1 .192 0c.052.014.01.026-.096.026s-.15-.012-.096-.026zm-7.856-.38c0-.012.043-.057.096-.1.087-.071.089-.069.02.021-.071.095-.116.125-.116.078zm.384-.399c0-.012.043-.057.096-.1.087-.07.089-.068.02.022-.071.095-.116.125-.116.078zm48.448-1.074-.217-.242.233.225c.217.21.258.259.217.259a2.48 2.48 0 0 1-.233-.242zm-40.949-.934a.204.204 0 0 1 .137 0c.038.016.007.029-.068.029-.076 0-.107-.013-.069-.03zm-2.632-.057a.204.204 0 0 1 .137 0c.038.016.007.029-.069.029-.075 0-.106-.013-.068-.029zm2.003-.002a.304.304 0 0 1 .164.002c.037.016-.007.027-.097.026-.09 0-.12-.014-.067-.028zm4.11-1.611c0-.11.012-.154.026-.1a.484.484 0 0 1 0 .2c-.014.054-.026.01-.026-.1zm-.063-.716c.003-.067.016-.08.033-.035.016.041.014.09-.004.11-.018.018-.03-.015-.028-.075zm3.843-.024c0-.078.013-.11.028-.071a.228.228 0 0 1 0 .142c-.015.04-.028.007-.028-.07zm32.083-.313c.001-.094.014-.125.028-.07a.338.338 0 0 1-.002.17c-.015.04-.027-.006-.026-.1zm3.845-.626c0-.188.01-.258.023-.155.012.102.012.256 0 .341-.013.086-.023.002-.023-.186zm-3.845-.114c.001-.094.014-.125.028-.07a.338.338 0 0 1-.002.17c-.015.04-.027-.006-.026-.1zm-15.938-.524c-.03-.08-.023-.087.031-.032.038.039.054.085.037.102-.016.018-.047-.014-.068-.07zm29.756-1.553c0-.078.012-.11.027-.071a.228.228 0 0 1 0 .142c-.015.04-.027.007-.027-.071zm-55.736-.437c.04-.017.087-.015.105.005.018.019-.014.032-.072.03-.064-.003-.077-.017-.033-.035zm2.468 0c.04-.017.087-.015.105.005.018.019-.014.032-.072.03-.064-.003-.077-.017-.033-.035zm-1.84-.058a.435.435 0 0 1 .191 0c.053.015.01.026-.096.026-.105 0-.148-.011-.096-.026zm1.07 0a.581.581 0 0 1 .219 0c.052.015-.003.026-.124.025-.12 0-.164-.012-.096-.026zm49.796 0c.04-.016.087-.014.105.005.018.02-.014.033-.072.03-.064-.003-.077-.016-.033-.034zm-.493-.057c.04-.016.087-.014.105.004.018.02-.014.033-.072.03-.064-.003-.077-.016-.033-.034zm-1.238-.058c.083-.013.219-.013.302 0 .083.013.015.023-.15.023-.167 0-.235-.01-.152-.023zm-55.177-.676c.002-.066.015-.08.033-.034.016.041.014.09-.004.109-.019.019-.032-.015-.03-.075zm48.91-.265c.227-.252.276-.297.276-.254 0 .009-.117.13-.26.27l-.26.254zm12.24.128c0-.079.012-.11.027-.071a.228.228 0 0 1 0 .142c-.015.039-.027.007-.027-.071zm-43.657-1.058c.003-.066.016-.08.033-.034.016.04.014.09-.004.109-.018.019-.03-.015-.028-.075zm1.08-.749c.369-.01.973-.01 1.343 0s.067.018-.672.018c-.739 0-1.041-.008-.672-.018zm12.31 0c.325-.01.855-.01 1.18 0 .324.01.058.018-.59.018s-.914-.008-.59-.018zm12.288 0c.356-.01.923-.01 1.26 0 .339.01.047.018-.647.018-.693 0-.97-.008-.613-.018zm-37.812-.452c.04-.016.087-.014.105.004.019.02-.014.033-.072.03-.063-.003-.076-.016-.033-.034zm.494-.057c.04-.016.087-.014.105.004.018.02-.014.033-.072.03-.064-.003-.077-.016-.033-.034zm2.852 0c.04-.016.086-.014.105.004.018.02-.015.033-.072.03-.064-.003-.077-.016-.033-.034zm-1.73-.06c.206-.01.527-.01.714 0 .187.011.02.02-.373.02-.392 0-.545-.009-.34-.02zm46.807.003c.04-.016.087-.014.105.005.019.019-.014.032-.072.03-.063-.003-.076-.016-.033-.034zm2.304 0c.04-.016.086-.014.105.005.018.019-.015.032-.072.03-.064-.003-.077-.016-.033-.034zm-1.375-.06c.128-.012.338-.012.466 0s.024.022-.233.022c-.256 0-.361-.01-.233-.022z" transform="matrix(.67022 0 0 .679 40.019 1.277)"/><path style="fill:#fe9801;stroke-width:1.48237" d="M118.28 242.097c-10.271-.561-19.948-4.17-27.995-10.44-2.058-1.603-3.727-3.097-3.858-3.454-.153-.417.095-.782.53-.782.215 0 .405.089 1.377.646 3.219 1.845 6.098 3.216 9.464 4.503 9.085 3.477 19.249 4.99 28.653 4.267a67.145 67.145 0 0 0 20.434-4.897c1.228-.508 1.476-.593 1.743-.593.598 0 1.02.385 1.02.93 0 .594-.183.784-1.864 1.946-6.516 4.502-15.384 7.372-24.349 7.88-1.161.066-3.901.063-5.155-.006zm32.093-2.927c-.214-.156-.16-.418.378-1.853 1.738-4.633 2.204-7.197 1.438-7.916-.177-.166-.684-.375-1.17-.483-.399-.088-.732-.103-2.303-.1-1.865.001-2.307.031-4.586.31-.486.059-.942.092-1.014.074-.496-.126-.405-.635.2-1.112.372-.295 1.91-1.076 2.548-1.295a15.268 15.268 0 0 1 3.53-.744c.985-.096 3.153-.036 3.956.109 1.303.235 2.056.545 2.232.92.416.884.156 3.292-.614 5.69-.774 2.409-1.779 4.189-3.192 5.652-.745.772-1.105.964-1.403.748z" transform="matrix(.67022 0 0 .679 40.019 1.277)"/><path style="fill:#747a84;stroke-width:1.48237" d="M143.715 221.577c.04-.017.087-.015.105.004.019.019-.014.032-.072.03-.064-.003-.077-.017-.033-.035zm-47.246-3.19a.944.944 0 0 1 .274.001c.067.014-.001.025-.152.024-.15 0-.206-.011-.122-.024zm47.027-.054c.04-.017.087-.015.105.004.018.018-.014.032-.072.03-.064-.004-.077-.017-.033-.035zm-54.265-3.12c0-.157.011-.214.024-.127.012.086.012.214-.001.284-.013.07-.023 0-.023-.157zm63.666-.342c.001-.125.012-.17.025-.099a.648.648 0 0 1 0 .228c-.014.055-.025-.004-.024-.129zm-58.801-2.383c0-.012.043-.057.096-.1.087-.07.089-.068.02.022-.07.095-.116.125-.116.078zm4.76-1.213c.04-.016.088-.014.106.004.018.02-.014.033-.072.03-.064-.003-.077-.016-.033-.034zm52.65-.117c-.069-.09-.067-.092.02-.022.053.043.096.088.096.1 0 .047-.045.017-.116-.078zm-.22-.228c-.068-.09-.066-.092.021-.021.091.074.12.12.075.12-.011 0-.054-.044-.096-.099zm-55.116-2.5c.04-.017.087-.015.105.004.018.019-.014.032-.072.03-.064-.003-.077-.016-.033-.035zm1.59 0c.04-.017.087-.015.105.004.018.019-.014.032-.072.03-.064-.003-.077-.016-.033-.035zm4.292-1.873c.003-.066.016-.08.033-.034.016.041.014.09-.004.11-.018.018-.031-.016-.029-.076zm3.788-.25c0-.08.013-.111.028-.072a.228.228 0 0 1 0 .142c-.015.04-.028.007-.028-.07zm32.087-.911c0-.141.011-.199.024-.129a.84.84 0 0 1 0 .257c-.013.07-.024.012-.024-.128zm13.826-3.16c0-.343.009-.477.02-.296.01.181.01.463 0 .626-.011.163-.02.015-.02-.33zm-6.313.104a.304.304 0 0 1 .165.002c.037.015-.007.027-.097.026-.09-.001-.121-.014-.068-.028zm.822 0a.435.435 0 0 1 .192 0c.053.014.01.026-.096.026s-.149-.012-.096-.026zm-55.671-.506c.002-.067.015-.08.033-.035.016.041.014.09-.005.11-.018.018-.03-.015-.028-.075zm6.017-2.624c.04-.016.087-.014.105.004.019.019-.014.033-.072.03-.063-.003-.076-.016-.033-.034z" transform="matrix(.67022 0 0 .679 40.019 1.277)"/><path style="fill:#565d69;stroke-width:1.48237" d="M145.525 221.577c.04-.017.087-.015.105.004.018.019-.014.032-.072.03-.064-.003-.077-.017-.033-.035zm-30.6-.626c.04-.017.087-.015.105.004.018.018-.014.032-.072.03-.064-.004-.077-.017-.033-.035zm2.248 0c.04-.017.087-.015.105.004.018.018-.014.032-.072.03-.064-.004-.077-.017-.033-.035zm-10.13-1.816c.002-.066.015-.08.033-.034.015.04.013.09-.004.109-.019.019-.032-.015-.03-.075zm30.672-.849c0-.438.009-.61.019-.382.01.229.01.587 0 .797-.01.21-.02.023-.02-.415zm-41.549.105a.204.204 0 0 1 .137 0c.038.016.007.028-.068.028-.076 0-.107-.012-.069-.028zm.717-.001c.04-.017.086-.015.105.004.018.019-.015.032-.072.03-.064-.003-.077-.017-.033-.035zm51.449-1.185a.657.657 0 0 1 .156-.142c.015 0-.03.064-.101.142a.654.654 0 0 1-.156.142c-.015 0 .03-.064.101-.142zm-42.435-2.276c.001-.094.014-.126.027-.07a.338.338 0 0 1-.002.17c-.015.039-.026-.007-.025-.1zm42.512-1.352-.104-.128.123.108c.116.102.148.148.104.148a.62.62 0 0 1-.123-.128zm-52.075-5.147c.04-.016.087-.014.105.004.018.019-.014.033-.072.03-.064-.003-.077-.016-.033-.034zm1.261 0c.04-.016.087-.014.106.004.018.019-.015.033-.072.03-.064-.003-.077-.016-.034-.034zm44.782-1.626-.105-.128.124.109c.116.102.148.147.104.147a.62.62 0 0 1-.123-.128zm-36.535-.242c.001-.093.014-.125.028-.07a.338.338 0 0 1-.002.171c-.015.039-.027-.007-.026-.1zm-4.843-3.03c-.068-.09-.067-.092.02-.022.053.043.096.088.096.1 0 .047-.045.017-.116-.078zm-10.392-.925c0-.391.01-.551.02-.356.01.196.01.516 0 .712-.01.195-.02.035-.02-.356zm13.384-1.437-.161-.185.178.167c.098.092.178.175.178.185 0 .044-.045.005-.195-.167zm7.811-1.167c-.068-.09-.066-.092.02-.021.092.074.121.12.076.12-.011 0-.055-.044-.096-.099z" transform="matrix(.67022 0 0 .679 40.019 1.277)"/><path style="fill:#2d3745;stroke-width:1.48237" d="M143.99 221.577c.039-.017.086-.015.105.004.018.019-.015.032-.072.03-.064-.003-.077-.017-.034-.035zm-28.438-.63c.294-.01.775-.01 1.07 0 .293.01.053.019-.535.019-.589 0-.83-.008-.535-.019zm2.4-.207c0-.011.042-.056.095-.1.087-.07.089-.068.02.022-.07.095-.116.125-.116.078zm-27.067-1.017-.216-.242.233.225c.216.21.258.259.216.259-.009 0-.113-.109-.233-.242zm47.16.114-.105-.128.123.108c.116.102.149.148.105.148a.62.62 0 0 1-.124-.128zm-31.281-.128a.654.654 0 0 1 .156-.142c.015 0-.03.064-.101.142a.654.654 0 0 1-.156.142c-.016 0 .03-.064.1-.142zm-5.347-.54c.055-.063.112-.115.127-.115s-.018.052-.072.114c-.055.063-.112.114-.127.114s.017-.051.072-.114zm49.931-.136c0-.012.043-.057.096-.1.087-.07.09-.068.02.022-.07.095-.116.125-.116.078zm-49.355-.455c0-.012.043-.057.096-.1.087-.07.089-.069.02.022-.071.094-.116.125-.116.078zm-1.097-1.885a.657.657 0 0 1 .156-.143c.015 0-.03.064-.101.143a.654.654 0 0 1-.156.142c-.015 0 .03-.064.101-.142zm4.995-1.542c.003-.066.015-.08.033-.034.016.04.014.09-.004.109-.018.019-.031-.015-.029-.075zm-.033-4.406c0-2.238.007-3.153.015-2.034.008 1.119.008 2.95 0 4.069-.008 1.119-.015.203-.015-2.035zm-9.36-2.315c.04-.016.088-.014.106.004.018.019-.014.032-.072.03-.064-.003-.077-.016-.033-.035zm.848 0a.304.304 0 0 1 .165.001c.037.016-.007.028-.097.027-.09-.001-.121-.014-.068-.029zm44.899-4.93c0-.01.08-.093.178-.185l.178-.167-.16.184c-.15.173-.196.212-.196.168zm-3.016-1.768c0-.012.043-.057.096-.1.087-.07.089-.069.02.022-.071.094-.116.125-.116.078zm-15.307-1.672c-.069-.09-.067-.092.02-.021.092.074.12.12.076.12-.012 0-.055-.044-.096-.099zm-15.732-.093c0-.011.043-.056.096-.1.087-.07.089-.068.02.022-.071.095-.116.125-.116.078z" transform="matrix(.67022 0 0 .679 40.019 1.277)"/><path style="fill:#fbffff;fill-opacity:1;stroke-width:1.48237" d="M143.566 221.554c-.864-.069-1.635-.207-2.665-.478-1.924-.506-2.907-1.051-3.1-1.72-.038-.136-.055-.568-.044-1.168.017-.902.025-.959.143-1.081.197-.204.53-.167 1.246.138 1.218.52 1.967.752 3.126.965.773.142 2.801.206 3.496.11 1.175-.162 2.016-.522 2.587-1.106.56-.574.78-1.203.731-2.094-.047-.862-.405-1.466-1.158-1.953-.569-.367-1.315-.659-3.38-1.32a75.015 75.015 0 0 1-2.303-.768c-2.182-.838-3.5-2.2-4.093-4.232-.138-.472-.15-.588-.15-1.48.001-.818.02-1.038.121-1.423.683-2.586 3.108-4.413 6.307-4.749 1.736-.182 3.952.124 5.708.79.848.32 1.417.786 1.54 1.26.037.142.055.582.044 1.108-.017.831-.024.878-.15 1.018-.204.225-.448.195-1.313-.163-1.211-.5-2-.706-3.18-.827-1.604-.165-3.075.015-4.009.49-.884.45-1.317 1.19-1.318 2.253-.002 1.062.471 1.767 1.59 2.373.636.344 1.08.51 3.348 1.257 2.23.734 3 1.051 3.758 1.545 1.01.658 1.724 1.548 2.103 2.62.266.752.303 1.003.3 2.038-.003.883-.019 1.057-.143 1.537-.44 1.701-1.56 3.105-3.168 3.976-1.634.885-3.72 1.263-5.974 1.084zm-49.13-.12c-1-.13-2.105-.556-2.827-1.091-.412-.305-1.124-1.07-1.373-1.474-.943-1.533-1.219-3.585-.743-5.534.252-1.035.994-2.261 1.796-2.97 1.937-1.708 4.546-2.259 8.182-1.727.655.096 1.977.355 2.48.487l.152.04v-1.34c0-.737-.027-1.537-.059-1.777-.304-2.267-1.254-3.239-3.469-3.551-.632-.09-2.096-.075-2.772.027-1.034.157-2.315.528-3.626 1.051-1.033.412-1.294.433-1.453.115-.065-.13-.083-.381-.083-1.14 0-1.063.036-1.238.31-1.5.614-.592 3.033-1.439 4.927-1.726.929-.14 3.209-.14 4.058 0 3.573.59 5.323 2.387 5.814 5.974.064.467.08 1.432.08 4.907.001 4.268.02 4.853.197 6.05.082.553.363 1.345.789 2.224.285.588.294.828.044 1.124-.23.272-1.908 1.43-2.11 1.454a1.288 1.288 0 0 1-.372-.034c-.428-.104-1.14-1.03-1.723-2.242l-.282-.586-.567.59c-1.467 1.531-3.052 2.362-5.022 2.635-.639.088-1.732.095-2.348.015zm3.528-3.169c2.191-.475 3.651-1.796 4.035-3.65.082-.395.12-.847.142-1.685l.03-1.145-.404-.095a16.835 16.835 0 0 0-3.858-.432c-1.888 0-2.907.318-3.736 1.166-.65.665-.897 1.366-.899 2.55-.001 1.162.244 1.922.812 2.516.47.491.867.7 1.628.857.496.103 1.583.063 2.25-.082zm28.444 2.658c-.34-.08-.57-.345-.714-.822-.064-.216-.912-3.837-1.884-8.047-.971-4.21-1.774-7.665-1.783-7.678-.01-.013-.028-.013-.041 0-.013.014-.828 3.514-1.81 7.778-.983 4.265-1.837 7.89-1.897 8.056-.118.329-.321.567-.565.662-.245.096-3.01.08-3.24-.018-.265-.116-.454-.356-.609-.775-.123-.333-5.37-18.196-5.624-19.15-.154-.574-.141-.798.054-1.001l.16-.167h1.39c.838 0 1.474.026 1.605.063.294.085.537.354.68.754.066.183.985 3.87 2.041 8.195 2.052 8.4 1.96 8.034 1.997 7.996.014-.014.84-3.617 1.838-8.007.997-4.39 1.863-8.12 1.924-8.29.136-.377.344-.567.71-.649.356-.079 2.591-.08 2.865-.002.27.078.556.343.658.61.045.116.914 3.874 1.93 8.35 1.018 4.477 1.86 8.15 1.872 8.163.012.013.03.013.04 0 .01-.013.913-3.62 2.006-8.014 1.092-4.395 2.034-8.121 2.092-8.28.16-.443.292-.631.525-.751.193-.1.342-.11 1.677-.11 1.453 0 1.467.001 1.59.13.277.288.334.075-2.774 10.4-1.583 5.258-2.92 9.684-2.971 9.836-.138.408-.425.692-.781.77-.352.078-2.624.076-2.96-.003z" transform="matrix(.67022 0 0 .679 40.019 1.277)"/></g></g></svg>