<svg width="199.157" height="203.851" viewBox="0 0 52.694 53.935" xml:space="preserve" xmlns:xlink="http://www.w3.org/1999/xlink" xmlns="http://www.w3.org/2000/svg"><defs><linearGradient id="e"><stop style="stop-color:#900bfe;stop-opacity:1" offset="0"/><stop style="stop-color:#8f0bfd;stop-opacity:1" offset=".054"/><stop style="stop-color:#8e0bfd;stop-opacity:1" offset=".1"/><stop style="stop-color:#8d0bfd;stop-opacity:1" offset=".146"/><stop style="stop-color:#8c0bfd;stop-opacity:1" offset=".197"/><stop style="stop-color:#8b0bfc;stop-opacity:1" offset=".243"/><stop style="stop-color:#8a0bfc;stop-opacity:1" offset=".287"/><stop style="stop-color:#890bfc;stop-opacity:1" offset=".33"/><stop style="stop-color:#880afb;stop-opacity:1" offset=".374"/><stop style="stop-color:#860af5;stop-opacity:1" offset=".421"/><stop style="stop-color:#850afb;stop-opacity:1" offset=".462"/><stop style="stop-color:#820af9;stop-opacity:1" offset=".509"/><stop style="stop-color:#7d09f9;stop-opacity:1" offset=".599"/><stop style="stop-color:#7a09f8;stop-opacity:1" offset=".646"/><stop style="stop-color:#7709f9;stop-opacity:1" offset=".696"/><stop style="stop-color:#7609f8;stop-opacity:1" offset=".746"/><stop style="stop-color:#7509f7;stop-opacity:1" offset=".795"/><stop style="stop-color:#7409f6;stop-opacity:1" offset=".845"/><stop style="stop-color:#7309f5;stop-opacity:1" offset=".895"/><stop style="stop-color:#7209f4;stop-opacity:1" offset=".942"/><stop style="stop-color:#7109f3;stop-opacity:1" offset="1"/></linearGradient><linearGradient xlink:href="#e" id="f" x1="60.429" y1="212.135" x2="152.446" y2="305.377" gradientUnits="userSpaceOnUse" gradientTransform="matrix(.3634 0 0 .35766 82.828 59.11)"/><pattern xlink:href="#a" id="c"/><pattern patternUnits="userSpaceOnUse" width="76.627" height="78.427" patternTransform="translate(60.514 54.496)" id="a"><text xml:space="preserve" transform="matrix(9.22915 0 0 9.09913 178.959 -491.466)" style="white-space:pre;shape-inside:url(#b);display:inline;fill:#b81a1e;fill-opacity:1;stroke:none;stroke-width:.824875;stroke-linecap:round;stroke-linejoin:round;stroke-dasharray:none;stroke-dashoffset:0;stroke-opacity:1"><tspan x="-19.678" y="62.632"><tspan style="font-family:'Century Gothic';-inkscape-font-specification:'Century Gothic';fill:#fff">A</tspan></tspan></text></pattern><path id="d" d="M20.787 67.056h90.19v91.532h-90.19z"/><path id="b" d="M-19.678 51.683h18.492v29.161h-18.492z"/></defs><g transform="translate(-94.92 -124.194)" style="display:inline"><rect style="display:inline;fill:#fff;fill-opacity:1;stroke:none;stroke-width:.8;stroke-linecap:round;stroke-linejoin:round;stroke-dasharray:none;stroke-dashoffset:0;stroke-opacity:1" width="52.694" height="53.935" x="94.727" y="124.194" ry="12.065"/><path style="display:inline;fill:none;stroke:none;stroke-width:.264583" d="M107.923 135.086h25.156v25.504h-25.156z"/><path style="fill:#d0d0d0;fill-opacity:1;stroke-width:.999997" d="M140.248 166.39c0-.13.021-.184.048-.119a.36.36 0 0 1 0 .237c-.027.065-.048.011-.048-.119zm-38.348-.474c0-.338.018-.477.039-.307.021.169.021.446 0 .615-.021.169-.039.03-.039-.308zm38.357-.426c0-.208.02-.282.044-.164.023.118.022.288-.002.378-.024.09-.043-.006-.042-.214zm-.002-1.845c0-.182.02-.257.044-.166a.765.765 0 0 1 0 .332c-.024.09-.044.016-.044-.166zm-38.364-.19c0-.181.02-.256.044-.165a.765.765 0 0 1 0 .331c-.024.092-.044.017-.044-.165zm11.658-11.497c0-5.569.012-7.833.026-5.032.014 2.802.014 7.358 0 10.126-.014 2.767-.026.475-.026-5.094zm4.599 7.358a59.094 59.094 0 0 1 2.403 0c.645.016.091.03-1.231.03s-1.85-.014-1.172-.03zm-18.978-5.11-.233-.26.264.229c.145.126.264.243.264.26 0 .074-.078.014-.295-.23zm43.803-.024c.095-.104.195-.19.222-.19.026 0-.03.086-.126.19-.096.104-.196.19-.222.19-.027 0 .03-.086.126-.19zm-43.796-4.968c.124-.13.247-.237.274-.237.026 0-.054.107-.178.237s-.247.237-.274.237c-.026 0 .054-.107.178-.237zm41.159-7.578c.005-.11.027-.133.058-.058.028.069.024.15-.008.182-.032.031-.055-.025-.05-.124zm-38.443-1.601c.001-.208.021-.282.044-.165.023.118.022.288-.002.379-.024.09-.043-.006-.042-.214zm38.362-.237c0-.182.02-.256.044-.165a.765.765 0 0 1 0 .33c-.025.092-.044.017-.044-.165zm.002-1.94c0-.208.02-.282.043-.164.023.118.022.288-.002.378-.024.09-.043-.006-.041-.214zm-38.358-.378c0-.312.019-.429.04-.259.021.17.02.426-.001.568-.022.142-.04.003-.039-.31zm38.356-.331c0-.183.02-.257.044-.166a.765.765 0 0 1 0 .331c-.024.091-.044.017-.044-.165z"/><path style="fill:#b9b9b9;fill-opacity:1;stroke-width:.999997" d="M140.248 166.01c0-.13.021-.183.048-.117a.36.36 0 0 1 0 .236c-.027.065-.048.012-.048-.118zm.004-2.885c.002-.157.023-.209.048-.117a.528.528 0 0 1-.004.284c-.027.064-.047-.011-.045-.167zm-38.367-.142c0-.13.022-.184.048-.119a.36.36 0 0 1 0 .237c-.026.065-.048.012-.048-.118zm0-22.428c0-.13.022-.183.048-.118a.36.36 0 0 1 0 .237c-.026.065-.048.011-.048-.119zm38.367-.236c.002-.156.023-.209.047-.117a.528.528 0 0 1-.004.284c-.026.064-.046-.011-.044-.167z"/><path style="fill:#a3a3a3;fill-opacity:1;stroke-width:.999997" d="M140.24 162.738c.005-.11.027-.132.058-.057.028.068.024.15-.008.181-.032.032-.055-.024-.05-.124zm-38.363-.094c.005-.11.027-.133.058-.058.028.069.024.15-.008.182-.032.031-.055-.025-.05-.124zm26.184-10-.184-.213.217.18c.119.1.216.196.216.214 0 .075-.077.02-.25-.18zm-1.097-9.664c-21.363-12.524-10.682-6.262 0 0zm-25.087-2.101c.005-.11.027-.133.058-.058.028.069.024.15-.008.182-.032.031-.055-.025-.05-.124zm38.363-.19c.005-.11.027-.132.058-.057.028.068.024.15-.008.182-.032.03-.055-.025-.05-.125zm-37.12-6.598c0-.016.14-.155.312-.308l.312-.278-.282.308c-.264.287-.343.351-.343.278zm3.244-1.642a.376.376 0 0 1 .24 0c.067.026.013.048-.12.048-.132 0-.186-.022-.12-.048zm29.325 0a.376.376 0 0 1 .24 0c.067.026.013.048-.12.048-.132 0-.186-.022-.12-.048z"/><path style="fill:url(#f);fill-opacity:1;stroke-width:.999997" d="M105.938 170.922c-1.86-.305-3.451-1.853-3.864-3.757-.06-.275-.11-1.34-.11-2.365-.003-6.246-1.33-10.172-3.862-11.418-.37-.182-.885-.359-1.145-.393l-.472-.061v-2.412l.472-.062c.77-.1 1.737-.639 2.399-1.336 1.724-1.814 2.608-5.357 2.61-10.46 0-1.425.038-2.089.144-2.49a5.027 5.027 0 0 1 3.245-3.5l.6-.204 14.615-.027c9.517-.017 14.9.007 15.432.07a4.815 4.815 0 0 1 4.083 3.557c.109.41.148 1.058.148 2.453.002 4.108.48 6.885 1.558 9.035.81 1.615 1.935 2.573 3.364 2.864l.558.113v1.212c0 1.207 0 1.21-.225 1.21-.375 0-1.264.329-1.788.66-2.271 1.434-3.468 5.348-3.468 11.344 0 2.087-.086 2.594-.603 3.555-.659 1.222-2.059 2.208-3.435 2.419-.776.12-29.529.113-30.256-.007zm18.178-8.653c.258-.032.535-.084.617-.114 1.02.024 2.623-.86 3.447-1.652.526-.54 1.052-1.354 1.14-1.767.018-.085.1-.43.183-.769.083-.338.151-.796.152-1.018.002-.633-.275-2.16-.488-2.693-.428-1.07-1.442-1.868-2.42-2.545-2.112-1.316-1.439-.226.41-1.804a6.57 6.57 0 0 0 1.259-2.652c.092-.492.093-.809.006-1.416-.318-2.214-1.937-3.769-4.458-4.281-.62-.127-1.531-.151-5.6-.151h-4.86V162.036l.46.034c2.008.083 3.564.227 5.02.25 4.13.057 4.29.056 5.133-.05zm-7.032-3.165c-.088-.138-.225-.903-.12-2.873.169-3.158-.132-3.306.762-3.328.817-.035.873-.131 2.806-.003 1.893.125 2.248.175 2.94.411.433.148.97.394 1.195.546.518.454 1.06 1.084 1.24 1.65.134 0 .043 1.147-.132 1.666-.217.642-.691 1.168-1.376 1.526-.946.495-1.71.593-4.619.593-2.467 0-2.582-.008-2.696-.188zm-.12-11.784v-3.113c.312-.088.8-.055 2.837-.054 1.976-.023 2.973-.043 4.35 1.076.839.694.947 1.796.689 2.783-.158.562-.834 1.275-1.503 1.587-.855.398-1.75.507-4.185.51l-2.187.004z"/><path style="fill:#767675;fill-opacity:1;stroke-width:.999997" d="M118.984 162.315c-16.043-25.414-8.022-12.707 0 0zm-2.212-1.739c-14.568-24.255-7.284-12.127 0 0z"/></g></svg>