<svg width="199.157" height="203.851" viewBox="0 0 52.694 53.935" xml:space="preserve" xmlns:xlink="http://www.w3.org/1999/xlink" xmlns="http://www.w3.org/2000/svg"><defs><linearGradient id="f"><stop style="stop-color:#ebebeb;stop-opacity:1" offset="0"/><stop style="stop-color:#ebebeb;stop-opacity:1" offset=".493"/><stop style="stop-color:#fff;stop-opacity:1" offset="1"/></linearGradient><linearGradient id="b"><stop style="stop-color:#1766ae;stop-opacity:1" offset=".483"/><stop style="stop-color:#2c9dd6;stop-opacity:1" offset=".483"/><stop style="stop-color:#2c9dd6;stop-opacity:1" offset=".997"/></linearGradient><linearGradient xlink:href="#b" id="g" x1="107.712" y1="151.47" x2="135.392" y2="151.47" gradientUnits="userSpaceOnUse" spreadMethod="repeat" gradientTransform="matrix(1.5413 0 0 1.42927 -66.03 -62.035)"/><linearGradient xlink:href="#f" id="h" x1="108.612" y1="150.95" x2="132.384" y2="150.95" gradientUnits="userSpaceOnUse"/><pattern xlink:href="#a" id="d"/><pattern patternUnits="userSpaceOnUse" width="76.627" height="78.427" patternTransform="translate(60.514 54.496)" id="a"><text xml:space="preserve" transform="matrix(9.22915 0 0 9.09913 178.959 -491.466)" style="white-space:pre;shape-inside:url(#c);display:inline;fill:#b81a1e;fill-opacity:1;stroke:none;stroke-width:.824875;stroke-linecap:round;stroke-linejoin:round;stroke-dasharray:none;stroke-dashoffset:0;stroke-opacity:1"><tspan x="-19.678" y="62.632"><tspan style="font-family:'Century Gothic';-inkscape-font-specification:'Century Gothic';fill:#fff">A</tspan></tspan></text></pattern><path id="e" d="M20.787 67.056h90.19v91.532h-90.19z"/><path id="c" d="M-19.678 51.683h18.492v29.161h-18.492z"/></defs><g transform="translate(-94.92 -124.194)" style="display:inline"><rect style="display:inline;fill:#4c85c7;fill-opacity:1;stroke:none;stroke-width:.8;stroke-linecap:round;stroke-linejoin:round;stroke-dasharray:none;stroke-dashoffset:0;stroke-opacity:1" width="52.694" height="53.935" x="94.919" y="124.194" ry="12.065"/><path style="display:inline;fill:none;stroke:none;stroke-width:.264583" d="M107.923 135.086h25.156v25.504h-25.156z"/><path style="display:inline;fill:url(#g);fill-opacity:1;stroke:#1766ae;stroke-width:2.6;stroke-linecap:round;stroke-linejoin:round;stroke-dasharray:none;stroke-dashoffset:0;stroke-opacity:1" d="m104.433 132.569 16.15-1.822 16.915 1.632-2.561 34.134-14.548 4.891-13.605-4.933z"/><path style="fill:url(#h);fill-opacity:1;fill-rule:evenodd;stroke:none;stroke-width:2.6;stroke-linecap:square;stroke-linejoin:miter;stroke-dasharray:none;stroke-dashoffset:0;stroke-opacity:1" d="m132.384 137.358-2.11 24.438-9.776 2.915-9.83-2.915-.5-7.399h4.61l.277 3.644 5.443 1.569 5.332-1.513.555-6.222H109.78l-.39-4.82 17.385.056.445-4.933-18.218-.056-.389-4.932z"/></g></svg>