<svg width="199.157" height="203.851" viewBox="0 0 52.694 53.935" xml:space="preserve" xmlns:xlink="http://www.w3.org/1999/xlink" xmlns="http://www.w3.org/2000/svg"><defs><pattern xlink:href="#a" id="c"/><pattern patternUnits="userSpaceOnUse" width="76.627" height="78.427" patternTransform="translate(60.514 54.496)" id="a"><text xml:space="preserve" transform="matrix(9.22915 0 0 9.09913 178.959 -491.466)" style="white-space:pre;shape-inside:url(#b);display:inline;fill:#b81a1e;fill-opacity:1;stroke:none;stroke-width:.824875;stroke-linecap:round;stroke-linejoin:round;stroke-dasharray:none;stroke-dashoffset:0;stroke-opacity:1"><tspan x="-19.678" y="62.632"><tspan style="font-family:'Century Gothic';-inkscape-font-specification:'Century Gothic';fill:#fff">A</tspan></tspan></text></pattern><path id="d" d="M20.787 67.056h90.19v91.532h-90.19z"/><path id="b" d="M-19.678 51.683h18.492v29.161h-18.492z"/></defs><g transform="translate(-94.92 -124.194)" style="display:inline"><rect style="display:inline;fill:#fff;fill-opacity:1;stroke:none;stroke-width:.8;stroke-linecap:round;stroke-linejoin:round;stroke-dasharray:none;stroke-dashoffset:0;stroke-opacity:1" width="52.694" height="53.935" x="94.727" y="124.194" ry="12.065"/><path style="display:inline;fill:none;stroke:none;stroke-width:.264583" d="M107.923 135.086h25.156v25.504h-25.156z"/><path style="fill:#efafa5;stroke-width:1" d="M107.943 263.209c0-.026.101-.125.225-.22.204-.155.208-.151.048.048-.167.208-.273.275-.273.172zm5.97-9.787c0-4.823.016-6.778.036-4.345.02 2.434.02 6.38 0 8.77-.02 2.39-.036.398-.036-4.425zm11.341-5.157a.507.507 0 0 1 .321 0c.089.035.016.063-.16.063-.177 0-.25-.028-.16-.063z"/><path style="fill:#dc4b35;stroke-width:1" d="M120.342 172.927a3.293 3.293 0 0 1-.841-.29c-.584-.305-20.59-19.593-20.853-20.103-.402-.778-.389-1.81.033-2.556.16-.283 2.321-2.423 7.084-7.013l6.855-6.607 2.52 2.43 2.52 2.428-.112.387c-.183.632-.086 1.78.197 2.322.343.652.706 1.05 1.298 1.42l.525.327v11.791l-.395.202c-.86.44-1.598 1.504-1.708 2.461-.177 1.532.58 2.863 1.994 3.508.537.245.671.27 1.428.27.756 0 .892-.025 1.423-.267.807-.369 1.329-.857 1.699-1.588.679-1.34.411-2.854-.686-3.88-.198-.186-.471-.393-.607-.46l-.246-.123v-11.734l2.282 2.203 2.282 2.204-.127.463c-.174.631-.16 1.155.046 1.798.306.955.94 1.647 1.91 2.085.454.205.613.23 1.436.23.866 0 .963-.017 1.504-.274a3.6 3.6 0 0 0 1.644-1.614c.211-.434.236-.583.236-1.417 0-.852-.021-.975-.249-1.421-.697-1.368-2.385-2.183-3.84-1.853l-.396.09-2.485-2.391-2.484-2.391.066-.297c.124-.559.055-1.459-.152-1.98-.571-1.439-2.177-2.33-3.758-2.087l-.588.09-2.555-2.461-2.554-2.462 2.154-2.08c2.528-2.442 2.768-2.6 3.919-2.597 1.305.005.512-.682 11.92 10.33 11.354 10.963 10.563 10.112 10.563 11.361 0 1.229.682.499-10.679 11.43-8.83 8.496-10.196 9.778-10.579 9.928a3.154 3.154 0 0 1-1.644.188z"/></g></svg>