<svg width="199.157" height="203.851" viewBox="0 0 52.694 53.935" xml:space="preserve" xmlns:xlink="http://www.w3.org/1999/xlink" xmlns="http://www.w3.org/2000/svg"><defs><linearGradient id="e"><stop style="stop-color:#47d637;stop-opacity:1" offset=".013"/><stop style="stop-color:#007300;stop-opacity:1" offset="1"/></linearGradient><linearGradient xlink:href="#e" id="f" x1="101.839" y1="129.516" x2="132.71" y2="165" gradientUnits="userSpaceOnUse" spreadMethod="pad"/><pattern xlink:href="#a" id="c"/><pattern patternUnits="userSpaceOnUse" width="76.627" height="78.427" patternTransform="translate(60.514 54.496)" id="a"><text xml:space="preserve" transform="matrix(9.22915 0 0 9.09913 178.959 -491.466)" style="white-space:pre;shape-inside:url(#b);display:inline;fill:#b81a1e;fill-opacity:1;stroke:none;stroke-width:.824875;stroke-linecap:round;stroke-linejoin:round;stroke-dasharray:none;stroke-dashoffset:0;stroke-opacity:1"><tspan x="-19.678" y="62.632"><tspan style="font-family:'Century Gothic';-inkscape-font-specification:'Century Gothic';fill:#fff">A</tspan></tspan></text></pattern><path id="d" d="M20.787 67.056h90.19v91.532h-90.19z"/><path id="b" d="M-19.678 51.683h18.492v29.161h-18.492z"/></defs><g transform="translate(-94.92 -124.194)" style="display:inline"><rect style="display:inline;opacity:1;fill:url(#f);fill-opacity:1;stroke:none;stroke-width:.8;stroke-linecap:round;stroke-linejoin:round;stroke-dasharray:none;stroke-dashoffset:0;stroke-opacity:1" width="52.694" height="53.935" x="94.919" y="124.194" ry="12.065"/><g style="stroke-width:1.59611"><path style="display:inline;fill:#eeeded;stroke-width:1.59611" d="M106.063 259.118c-.833-.104-1.272-.233-1.674-.495-.51-.33-.72-.663-.72-1.14-.001-.708.333-1.212 1.41-2.128.4-.34.717-.628.705-.64-.011-.013-.152.01-.313.052-.401.103-.528.097-.571-.027-.068-.194.144-.695.47-1.117l.324-.417.884.037c1.202.05 1.219.06 1.42.817.234.88.213 1.004-.128.768-.079-.054-.16-.08-.18-.058-.07.078.193 1.267.486 2.197.393 1.246.425 1.562.187 1.825-.1.111-.31.241-.467.29-.264.08-1.312.102-1.833.036zm17.264-.493c.053-.023.117-.02.141.006.025.027-.019.047-.097.043-.085-.004-.103-.023-.044-.05zm-14.127-.155c.004-.095.02-.114.044-.05.022.06.02.13-.006.157-.024.027-.042-.02-.038-.107zm8.783-.176c.193-.016.492-.016.663 0 .17.018.012.032-.352.032-.365 0-.505-.015-.311-.031zm2.392.006a.259.259 0 0 1 .184 0c.051.023.01.042-.092.042-.101 0-.143-.019-.092-.042zm-6.448-.742c-.086-.203-.084-.21.027-.087.066.073.108.172.093.22-.015.048-.069-.012-.12-.133zm-7.55-4.918c-.968-.231-.97-.233-.913-.883.027-.299.096-1.46.155-2.582.128-2.44.165-2.932.303-3.999.134-1.033.584-3.048.804-3.6.21-.522.736-1.382 1.47-2.397.436-.603.553-.82.53-.98a33.759 33.759 0 0 0-.24-1.142c-.197-.89-.208-1.035-.207-2.774 0-1.527.028-2.015.165-2.897.19-1.231.437-2.416.76-3.648l.228-.873.567-.412c.312-.227.907-.795 1.322-1.262l.754-.849-.014-.435c-.008-.24.061-.805.153-1.256l.168-.82.893.272c1.42.431 2.116.53 3.803.542.83.006 1.829-.018 2.218-.052l.707-.062.045.755c.044.734.25 1.99.558 3.409.147.675.428 2.597.61 4.16.143 1.233.12 3.656-.041 4.488-.184.947-.43 1.64-.792 2.235l-.305.499-.008 1.183c-.008 1.166-.013 1.2-.34 2.337l-.331 1.154-.332.05c-.182.028-.923.074-1.647.103l-1.315.053.128-.277c.071-.153.386-.737.7-1.298.315-.561.593-1.131.619-1.267.026-.139-.034-.767-.137-1.428-.373-2.397-.789-6.458-.894-8.73-.04-.875-.025-1.111.104-1.669.083-.357.14-.663.124-.68-.043-.047-.384.64-.548 1.101-.082.233-.367 1.317-.634 2.407-.771 3.162-1.002 3.84-1.724 5.064-.446.758-1.34 1.81-1.974 2.326-.318.258-.465.433-.465.551 0 .492-.235 1.018-.751 1.68-.316.404-.597.861-.695 1.13-.157.425-.17.692-.02.396.038-.076.174-.22.3-.32l.233-.183-.048.811c-.092 1.549-.406 2.78-1.225 4.808-.79 1.952-.782 1.92-.893 3.892-.051.903-.111 1.432-.166 1.471-.156.11-1.105.055-1.762-.102zm13.58-1.187c.004-.096.021-.115.045-.05.021.06.018.13-.006.157-.025.027-.042-.021-.039-.107zm.02-1.218c0-.404.013-.58.028-.39.016.19.016.52 0 .735-.014.214-.027.06-.027-.345zm-15.263-3.345c0-.135.018-.18.037-.1a.51.51 0 0 1-.003.244c-.02.055-.036-.01-.034-.144zm-.171-6.957c-.092-.129-.09-.132.028-.03.07.061.128.125.128.142 0 .068-.06.024-.156-.112zm10.928-.306c.001-.134.018-.18.037-.1a.51.51 0 0 1-.003.245c-.02.055-.036-.01-.034-.145zm-11.661-.673-.179-.224.203.198c.19.185.236.25.178.25-.013 0-.104-.1-.202-.224zm-.59-.653-.178-.224.202.198c.19.185.237.25.179.25-.013 0-.104-.1-.203-.224zm-5.833-1.95a.259.259 0 0 1 .184 0c.05.022.009.04-.092.04-.102 0-.143-.018-.092-.04zm-6.475-2.048c-.092-.13-.09-.132.028-.03.07.06.129.125.129.142 0 .067-.061.024-.157-.112zm-.693-.694-.44-.51.46.487c.254.268.461.498.461.51 0 .06-.073-.013-.481-.487zm32.92-6.156a.383.383 0 0 1 .222.003c.05.023-.01.04-.13.038-.122-.002-.163-.02-.091-.04zm-.778-.837a4.438 4.438 0 0 1-.822-.417l-.395-.265-.114-.701c-.233-1.428-.23-1.483.077-1.88.361-.468.745-.653 1.355-.656a3.39 3.39 0 0 0 .865-.127c.36-.118.382-.141.382-.393 0-.188-.13-.495-.439-1.026-.479-.828-.567-1.176-.495-1.952.049-.523.22-.747.574-.747.117 0 .213-.025.213-.056 0-.03-.128-.223-.284-.428-.343-.452-.464-.703-.667-1.388l-.156-.526.162-.494c.122-.374.163-.687.168-1.288l.006-.794.375-.208c.515-.283.596-.407.688-1.04.18-1.252-.292-2.693-1.267-3.866l-.315-.38.553.04c.695.052 1.152.283 1.652.839.894.994 1.135 2.35.683 3.849l-.166.553.272.451c.386.642.58 1.339.576 2.061-.006.896-.097 1.104-.66 1.51-.465.335-.81.692-.81.839 0 .04.186-.022.414-.137.564-.286 1.236-.339 1.547-.121.773.54.8 2.295.061 3.915-.322.707-.924 1.67-1.03 1.65-.03-.006-.15.315-.265.714-.306 1.056-1.011 2.198-1.552 2.513-.265.154-.667.14-1.186-.044zm-13.613-.404c-.347-.123-.512-.257-.512-.415 0-.092-.129-.254-.315-.396-.476-.363-.922-.938-.97-1.25a7.976 7.976 0 0 1-.06-.639c-.018-.357-.032-.377-.607-.832-.548-.434-1.397-.995-3.61-2.387-1.64-1.03-2.493-1.82-2.871-2.653-.316-.696-.556-1.602-.556-2.098 0-.509.067-.674.55-1.376.406-.589.588-1.04.924-2.289.357-1.329.538-1.664 1.054-1.95.692-.38 1.189-.249 1.904.505l.448.472-.123-.326c-.2-.536-.491-.938-.905-1.253l-.392-.297.046-.368c.074-.607.364-1.168.876-1.699.591-.612 1.213-.955 2.105-1.158 1.027-.235 1.702-.214 2.457.075.34.13.852.278 1.138.327.76.13 2.055.109 2.935-.049l.768-.138 1.269.342c1.466.395 2.024.43 2.814.176 1.36-.438 1.93-.495 2.32-.23.143.096.49.304.774.461.68.377 1.444.938 1.766 1.294.534.592.998 1.976 1.022 3.049.021.97-.366 1.246-1.14.809-.47-.266-1.655-.724-2.234-.863-.35-.085-.907-.125-1.706-.123-1.544.003-2.726.168-4.228.59-1.78.498-2.365.354-4.071-1.002-.456-.363-.876-.663-.933-.668-.147-.013-.596.84-.596 1.135 0 .135-.068.517-.151.849-.459 1.833-1.556 3.188-2.582 3.188-.27 0-.496-.087-1.035-.398-1.036-.598-1.129-.596-.502.012.935.907 1.326 1.538 1.988 3.206.54 1.364.967 2.19 1.615 3.129.62.896.696.958 1.261 1.013.745.072 1.235.316 1.887.94.653.625.805.868.735 1.175-.11.49-1.701 2.088-2.136 2.146a1.078 1.078 0 0 1-.421-.036zm6.525-4.204c-.564-.123-1.568-.501-2.327-.877l-.485-.24.033-.845c.078-1.934-.295-3.2-1.468-4.989-.395-.602-.462-.757-.49-1.128-.043-.57.17-1.122.507-1.315.19-.108.32-.124.614-.07.647.115 1.303.068 2.193-.159 1.967-.5 4.068-.635 5.485-.353.75.15 1.76.482 2.182.72l.276.155v.741c0 .931-.13 1.495-.623 2.683-.718 1.732-.998 3.105-.998 4.904v.705l-.386.052c-.213.029-1.2.07-2.192.09-1.356.03-1.934.011-2.321-.073zm7.434-.557-.14-.184.166.156c.156.146.2.212.14.212-.014 0-.088-.083-.166-.184zm3.758-4.57-.14-.183.166.155a.872.872 0 0 1 .165.184c0 .065-.059.017-.19-.155zm-4.568-10.607-.14-.184.165.155c.156.147.2.212.14.212-.013 0-.088-.082-.165-.183zm-6.919-.589c-1-.287-1.871-.6-2.193-.79-.104-.06-.361-.357-.57-.658l-.381-.547.062-.718.061-.717.307.495c.714 1.153 1.575 1.605 3.082 1.618.856.007 1.37-.117 1.833-.442l.331-.233.024.765.023.765-.39.248c-.391.248-.973.5-1.141.493-.05-.002-.521-.127-1.048-.279zm5.627-.105c-.092-.13-.089-.132.028-.03.123.106.162.173.101.173-.015 0-.073-.065-.129-.143zm-1.846-.81c.053-.024.116-.021.14.005.025.028-.018.047-.096.043-.086-.004-.103-.023-.044-.049zm-.717-1.135c.004-.095.02-.114.044-.05.021.06.019.13-.006.157-.024.027-.042-.02-.039-.107zm-4.345-.53a1.63 1.63 0 0 1-.503-.201c-.22-.16-.58-.98-.677-1.541-.359-2.094-.427-3.136-.301-4.583.106-1.223.171-1.389.65-1.657.424-.238.981-.335 1.913-.333 1.276.002 2.206.294 2.496.784.28.474.19 3.508-.16 5.417-.254 1.38-.585 1.97-1.19 2.125-.353.091-1.793.084-2.228-.01zm-2.434-6.08c.004-.094.02-.114.044-.049.022.06.02.13-.006.157-.024.027-.042-.021-.038-.107zm3.07-3.27a.259.259 0 0 1 .184 0c.051.023.01.041-.092.041-.101 0-.142-.018-.092-.04z" transform="matrix(.64266 0 0 .61079 57.308 14.55)"/><path style="display:inline;fill:#959494;stroke-width:1.59611" d="M107.117 260.012c.053-.023.117-.02.141.006.025.027-.019.047-.096.043-.086-.004-.104-.023-.045-.049zm-1.031-.897c.053-.024.116-.02.14.006.025.027-.018.046-.096.043-.086-.004-.103-.024-.044-.05zm17.496-.49a.383.383 0 0 1 .22.002c.05.023-.008.04-.13.038-.121-.002-.162-.02-.09-.04zm-.844-.081c.053-.024.116-.021.14.006.025.027-.018.046-.096.042-.086-.004-.103-.023-.044-.049zm-.664-.082c.054-.024.117-.02.142.006.024.027-.02.046-.097.043-.086-.004-.103-.023-.045-.05zm-1.4-.163c.054-.024.117-.02.142.006.024.027-.02.046-.097.043-.086-.004-.103-.024-.045-.05zm-4.715-.082c.053-.023.117-.02.141.006.025.027-.019.047-.097.043-.085-.004-.103-.023-.044-.05zm-1.902-.52c0-.048.033-.064.074-.036.04.028.073.067.073.086 0 .02-.033.036-.073.036-.04 0-.074-.039-.074-.086zm12.753-.37c.004-.094.02-.114.044-.049.021.06.019.13-.006.157-.024.027-.042-.021-.039-.107zm-21.93-2.487c-.075-.135-.007-.154.099-.027.052.063.062.114.022.114s-.094-.039-.12-.087zm3.73-1.021c.004-.095.021-.114.045-.05.021.06.019.13-.006.157-.025.027-.042-.021-.039-.107zm-3.468.022c0-.014.107-.133.239-.265l.24-.24-.217.265c-.202.248-.262.303-.262.24zm.254-1.53c-.026-.048-.032-.105-.013-.126.02-.022.055.018.079.087.05.144.007.169-.066.039zm2.857-.158c0-.157.015-.221.034-.143a.742.742 0 0 1 0 .286c-.019.078-.034.014-.034-.143zm-3.609-.122c.001-.18.016-.244.034-.142a1 1 0 0 1-.001.326c-.019.078-.033-.005-.032-.184zm15.328-.123c0-.202.014-.284.031-.183.018.1.018.266 0 .367-.017.1-.031.018-.031-.184zm-11.65-1.305c0-.113.016-.159.037-.102.02.056.02.147 0 .204-.02.056-.037.01-.037-.102zm-2.8-.082c0-.112.016-.158.037-.102.02.056.02.148 0 .204-.02.056-.037.01-.037-.102zm14.454-1.51c0-.314.013-.432.03-.263.015.17.015.426-.001.571-.017.145-.03.006-.03-.308zm-14.378.082c.001-.135.018-.18.037-.1.018.079.017.19-.003.244-.02.056-.036-.01-.034-.144zm-.87-1.102c0-.516.011-.727.026-.469s.015.68 0 .939c-.015.258-.027.047-.027-.47zm.944-.448c.002-.135.018-.18.036-.1a.51.51 0 0 1-.003.244c-.02.055-.035-.01-.034-.144zm.065-1.068c.004-.095.02-.114.044-.05.022.06.019.13-.006.157-.024.027-.042-.021-.038-.107zm-.952-1.503c0-.112.016-.158.037-.102.02.056.02.148 0 .204-.02.056-.037.01-.037-.102zm6.404-1.435c.004-.095.021-.114.045-.049.021.059.018.13-.006.157-.025.027-.042-.022-.039-.108zm-.799-.442c0-.157.015-.22.034-.142a.742.742 0 0 1 0 .285c-.019.079-.034.015-.034-.143zm.884-.408c0-.157.015-.22.034-.142a.742.742 0 0 1 0 .285c-.019.079-.034.015-.034-.143zm3.74.148c-.303-.042-.58-.106-.613-.143-.086-.094.274-.846.593-1.237.322-.395.713-.63 1.163-.698l.331-.05v-.386c0-.487-.187-1.708-.344-2.244a37.008 37.008 0 0 0-.518-1.504l-.399-1.096.156-.413c.255-.676.496-1.818.701-3.324.107-.778.235-1.672.286-1.986l.092-.571.052.816c.143 2.247.23 3.219.494 5.508.158 1.368.356 2.908.44 3.42.085.521.131 1.043.105 1.183-.027.139-.305.71-.62 1.272-.314.56-.626 1.14-.694 1.285-.138.3-.205.308-1.224.168zm3.155.041c.053-.023.117-.02.142.006.024.028-.02.047-.097.043-.086-.004-.103-.023-.045-.05zm-4.863-.49c.054-.023.117-.02.142.007.024.027-.02.046-.097.043-.086-.004-.103-.023-.045-.05zm-2.035-.8c.002-.135.018-.18.037-.1a.51.51 0 0 1-.003.244c-.02.055-.035-.01-.034-.144zm8.842-2.122c.002-.134.018-.18.037-.1a.51.51 0 0 1-.003.245c-.02.055-.036-.01-.034-.145zm-7.272-1.917c.074-.09.15-.164.17-.164.02 0-.023.074-.096.164-.073.09-.15.163-.17.163-.02 0 .023-.074.096-.163zm-13.976-1.117c.053-.024.117-.02.141.006.025.027-.019.046-.097.043-.085-.004-.103-.023-.044-.05zm-1.147-.082c.071-.02.187-.02.258 0 .071.02.013.037-.129.037-.142 0-.2-.017-.129-.037zm-1.62-.082a.383.383 0 0 1 .222.003c.05.022-.01.04-.13.038-.122-.002-.163-.02-.091-.04zm12.144-.562c.004-.095.021-.115.044-.05.022.06.02.13-.006.157-.024.027-.041-.021-.038-.107zm-11.813-.34c.253-.015.668-.015.92 0 .254.017.047.03-.46.03-.506 0-.713-.013-.46-.03zm-1.174-.076c.053-.024.116-.021.14.006.025.027-.018.046-.096.043-.086-.004-.103-.024-.044-.05zm-.483-.083a.383.383 0 0 1 .221.003c.05.023-.009.04-.13.038-.122-.002-.162-.02-.09-.04zm-.402-.08c.054-.024.117-.021.142.006.024.027-.02.046-.097.042-.086-.004-.103-.023-.045-.049zm27.503-.645c.004-.095.02-.115.044-.05.022.06.02.13-.006.157-.024.027-.041-.021-.038-.107zm-.59-.245c.005-.095.022-.114.045-.05.021.06.019.13-.006.157-.024.027-.042-.02-.039-.107zm.68-.932c0-.246.014-.347.03-.224.017.123.017.325 0 .449-.016.123-.03.022-.03-.225zm-.002-1.142c0-.202.014-.285.032-.184.017.101.017.267 0 .368-.018.1-.032.018-.032-.184zm-.672-.082c0-.112.017-.158.038-.102.02.057.02.148 0 .204-.02.057-.038.01-.038-.102zm.584-1.271c.004-.095.021-.115.044-.05.022.06.02.13-.006.157-.024.027-.041-.021-.038-.107zm-43.957-3.053c.074-.09.15-.164.17-.164.02 0-.023.074-.096.164-.073.09-.15.163-.17.163-.02 0 .023-.074.096-.163zm-1.946-.13c.003-.095.02-.114.044-.049.022.06.019.13-.006.157-.024.027-.041-.022-.038-.108zm40.703.048c.025-.045.06-.082.078-.082.018 0 .032.037.032.082a.08.08 0 0 1-.078.082c-.043 0-.057-.037-.032-.082zm-38.278-.357c0-.017.058-.081.13-.143.116-.101.119-.099.027.03-.096.137-.157.18-.157.113zm46.014-.622c.074-.09.15-.163.17-.163.02 0-.023.073-.096.163-.074.09-.15.163-.17.163-.02 0 .023-.073.096-.163zm-13.815-1.591c.137-.157.267-.286.287-.286.02 0-.076.129-.213.286-.138.157-.267.285-.287.285-.02 0 .075-.128.213-.285zm10.253-.939c0-.112.017-.158.037-.102.02.056.02.148 0 .204-.02.056-.037.01-.037-.102zm-9.336-1.06c-.422-.502-.443-.546-.389-.816.032-.158.077-.427.101-.599.035-.254.066-.302.168-.254.068.032.306.134.53.225.222.092.416.176.429.186.041.033-.219 1.366-.309 1.584l-.084.204zm14.556.54c0-.017.058-.081.129-.143.117-.101.12-.098.028.03-.097.137-.157.18-.157.113zm-9.78-1.005a.383.383 0 0 1 .221.003c.05.022-.009.04-.13.038-.122-.002-.162-.02-.09-.041zm1.915 0c.07-.02.186-.02.257 0 .071.02.013.038-.129.038-.141 0-.2-.017-.128-.038zm-2.833-.08c.054-.024.117-.022.142.005.024.027-.02.047-.097.043-.086-.004-.103-.023-.045-.05zm3.98 0c.052-.024.116-.022.14.005.025.027-.019.047-.096.043-.086-.004-.104-.023-.045-.05zm2.647-.407a.259.259 0 0 1 .184 0c.051.022.01.041-.092.041-.101 0-.143-.018-.092-.041zm-6.406-.083c.054-.024.117-.021.142.006.024.027-.02.046-.097.042-.086-.004-.103-.023-.045-.049zm3.095 0c.053-.024.117-.021.141.006.025.027-.019.046-.096.042-.086-.004-.104-.023-.045-.049zm-10.463-.164c.054-.023.117-.02.142.006.024.027-.02.047-.097.043-.086-.004-.103-.023-.045-.049zm12.699-.433c0-.113.017-.159.037-.102.02.056.02.147 0 .204-.02.056-.037.01-.037-.102zm-9.073-.942c-.262-.156-.515-.33-.561-.385-.097-.115-.325-1.572-.325-2.07 0-.278.031-.347.194-.428.22-.112.838-.655.838-.738 0-.03-.323-.053-.718-.051-.674.003-.748-.014-1.19-.27-.456-.263-1.743-1.545-2.085-2.075l-.146-.227.227-.392c.358-.617.528-1.263.575-2.174.022-.448.072-.882.11-.964.062-.134.105-.112.425.22.558.578 1.504 1.194 2.212 1.441l.185.064-.185.007c-.536.022-.935.695-.868 1.468.03.336.12.534.55 1.205.861 1.341 1.18 2.122 1.347 3.291.127.89.089 2.37-.06 2.365-.027-.001-.262-.13-.525-.287zm8.336-.12c0-.111.017-.157.037-.101.02.056.02.148 0 .204-.02.056-.037.01-.037-.102zm-40.61-1.09c0-.018.058-.082.13-.144.116-.101.119-.098.027.031-.096.136-.157.18-.157.112zm43.873-.942c.023-.041-.132-.116-.345-.167-.427-.1-.885-.33-1.146-.572l-.168-.156.327-.72c.324-.708.33-.715.409-.488.044.126.08.263.08.304 0 .201.395 1.023.66 1.37.31.407.352.503.22.503-.043 0-.06-.033-.037-.074zm1.146-.62c.096-.111.19-.203.21-.203.02 0-.04.092-.136.204-.095.112-.19.204-.21.204-.02 0 .041-.092.136-.204zm-43.03-.724c0-.017.059-.08.13-.142.116-.102.12-.1.027.03-.096.136-.156.18-.156.112zm.664-.652c0-.017.058-.082.129-.143.117-.102.12-.099.028.03-.097.136-.157.18-.157.113zm43.633-.663c.002-.135.018-.18.037-.1.019.079.017.189-.003.244-.02.055-.036-.01-.034-.144zm-26.68-.17c.003-.095.02-.115.044-.05.021.06.018.13-.006.157-.025.027-.042-.021-.039-.107zm23.577-.898c.004-.095.021-.114.045-.05.02.06.018.13-.006.157-.025.027-.042-.02-.04-.107zm-16.142-.228c0-.017.058-.081.13-.143.116-.101.119-.098.027.031-.096.136-.157.18-.157.112zm15.201-.744c0-.27.015-.37.03-.223.017.146.017.367 0 .49-.017.122-.03.002-.03-.267zm.941.32c.004-.096.021-.115.045-.05.02.059.018.13-.006.156-.025.028-.042-.02-.04-.107zm-6.872-2.049c.053-.023.117-.02.141.006.025.027-.019.047-.096.043-.086-.004-.104-.023-.045-.05zm.806-.08a.259.259 0 0 1 .184 0c.051.023.01.042-.092.042-.101 0-.143-.019-.092-.042zm1.4 0a.259.259 0 0 1 .184 0c.05.023.01.042-.092.042-.101 0-.143-.019-.092-.042zm5.783-.19c0-.158.015-.222.033-.143a.742.742 0 0 1 0 .285c-.018.079-.033.015-.033-.142zm-12.041.107c.053-.024.116-.02.14.006.025.027-.018.046-.096.043-.086-.004-.103-.023-.044-.05zm.515 0c.054-.024.117-.02.142.006.024.027-.02.046-.097.043-.086-.004-.103-.023-.044-.05zm13.651-.808c.004-.095.021-.114.045-.05.02.06.018.13-.006.157-.025.027-.042-.02-.04-.107zm-9.524-.008c.053-.023.116-.02.14.006.025.027-.018.047-.096.043-.086-.004-.103-.023-.044-.05zm6.503-.073c.004-.095.021-.115.045-.05.021.06.018.13-.006.157-.025.027-.042-.021-.039-.107zm-4.998-.01c.071-.02.187-.02.258 0 .071.021.013.038-.129.038-.141 0-.2-.017-.129-.037zm6.972-2.29c-.091-.128-.089-.131.028-.03.123.107.162.174.101.174-.015 0-.073-.065-.129-.143zm-21.505-1.53c.137-.156.266-.285.287-.285.02 0-.076.129-.213.286-.138.157-.267.286-.287.286-.02 0 .075-.129.213-.286zm6.249-.83c.053-.024.117-.02.141.006.025.027-.019.046-.096.043-.086-.004-.104-.023-.045-.05zm1.842 0c.053-.024.117-.02.141.006.025.027-.019.046-.096.043-.086-.004-.104-.023-.045-.05zm3.075-1.912c-1.064-.171-1.75-.61-2.27-1.452l-.23-.375.437.441c.241.243.54.488.663.545.144.067.688.114 1.51.13 1.457.03 1.436.037 2.255-.672l.452-.392.051.529c.06.621.03.68-.503.965-.625.334-1.437.431-2.365.281zm3.44-.317c0-.157.015-.221.034-.143a.742.742 0 0 1 0 .286c-.019.078-.034.014-.034-.143zm-4.23-.872c.052-.023.116-.02.14.006.025.027-.019.047-.096.043-.086-.004-.104-.023-.045-.05zm-1.838-.821c-.092-.13-.09-.133.027-.031.071.062.13.126.13.143 0 .067-.061.024-.158-.112zm5.997-.429c0-.202.015-.284.032-.183.018.1.018.266 0 .367-.018.1-.032.018-.032-.184zm.133-1.924c.004-.095.021-.114.045-.05.021.06.018.13-.006.157-.025.027-.042-.021-.039-.107zm-5.968-.898c.004-.095.021-.114.045-.049.02.059.018.13-.006.156-.025.028-.042-.02-.04-.107zm-.876-.238c.002-.134.018-.18.037-.1a.51.51 0 0 1-.003.245c-.02.055-.035-.01-.034-.145zm6.116-.244c.001-.135.018-.18.037-.1.018.079.017.189-.003.244-.02.055-.036-.01-.034-.144zm-6.109-1.061c0-.225.015-.307.032-.183s.016.308-.001.408c-.018.1-.031 0-.03-.225zm6.19-.286c0-.247.014-.348.031-.224.017.123.017.325 0 .449-.017.123-.03.022-.03-.225zm-6.131-1.108c.004-.095.02-.115.044-.05.021.06.019.13-.006.157-.024.027-.042-.021-.039-.107zm1.025-.636c0-.017.058-.081.13-.143.116-.101.119-.099.027.03-.096.137-.157.18-.157.113zm-.737-.735c0-.016.058-.08.13-.142.116-.102.119-.099.027.03-.096.136-.157.18-.157.112zm2.93-.028c.131-.018.347-.018.478 0 .132.018.024.033-.24.033-.263 0-.37-.015-.239-.033zm.147-.978c.09-.019.24-.019.331 0 .091.02.017.036-.166.036-.182 0-.257-.016-.165-.036z" transform="matrix(.64266 0 0 .61079 57.308 14.55)"/><path style="display:inline;fill:#88c43f;stroke-width:1.59611" d="M122.678 257.986c-2.487-.373-3.258-.46-4.519-.512l-1.413-.058-.096-.408a3.517 3.517 0 0 1-.052-1l.044-.591h-.312c-.318 0-1.117-.195-1.468-.358l-.195-.091.217-.603c.274-.761.322-1.42.21-2.906-.116-1.543-.361-2.654-.785-3.562l-.112-.239.354.042c1.425.167 3.243.107 4.332-.142l.442-.102v5.93l.184.155c.102.086.682.457 1.29.825.608.368 1.33.828 1.604 1.023.275.194.672.45.884.567 1.012.56 1.316 1.447.69 2.01-.181.162-.338.164-1.3.02zm-8.175-11.147c-.301-.039-.572-.098-.602-.132-.03-.034-.1-.265-.158-.512l-.105-.45.817.107c1.545.202 4.11.064 5.07-.273.132-.047.139-.021.091.345-.028.217-.08.454-.113.526-.167.357-3.331.603-5 .39zm.18-1.873c-.364-.037-.795-.114-.956-.173-.267-.097-.297-.138-.351-.474a3.864 3.864 0 0 1-.039-.693c.018-.29.04-.326.204-.318.102.005.4.079.663.164.719.231 3.084.209 4.63-.044.62-.101 1.146-.166 1.166-.143.02.023-.02.302-.089.619-.121.553-.138.58-.393.66-.503.155-1.52.32-2.51.404-1.093.095-1.35.094-2.325-.003zm-18.162-9.628c-1.718-.078-2.944-.34-3.841-.822a4.83 4.83 0 0 0-.468-.233c-.019 0-.24-.156-.493-.347a6.268 6.268 0 0 1-1.262-1.291c-.445-.603-1.231-2.645-1.23-3.194 0-.33 1.067-2.6 1.755-3.736 1.462-2.415 3.383-4.79 6.556-8.11l.685-.716.32.72c.737 1.651 1.492 2.292 4.683 3.972 1.27.668 2.265 1.298 2.815 1.78.243.213.28.29.281.586.002.473.212.924.647 1.39.327.353.366.43.332.66-.035.24-.008.284.304.513.188.138.503.293.7.346l.36.095-.182.597c-.17.563-.227.646-.97 1.447-2.806 3.023-6.015 5.32-8.56 6.128-.858.272-.964.282-2.432.215zm-19.633-7.957c.31-1.904 1.097-4.052 2.116-5.772 1.599-2.696 3.75-4.818 7.202-7.101 4.537-3.002 9.453-5.293 15.178-7.074.466-.145.884-.279.929-.298.044-.019-.014.179-.13.439-.117.26-.25.703-.298.983-.067.4-.113.51-.217.51-.34 0-.944.347-1.264.726-.423.5-.562.809-.89 1.967-.447 1.576-.347 1.444-1.505 1.995-1.882.896-6.356 3.262-9.077 4.8-3.076 1.737-4.405 2.58-6.447 4.085-1.98 1.46-3.42 2.715-4.888 4.26l-.76.8zm32.527-5.713c-.263-.06-.595-.13-.738-.153-.214-.036-.322-.137-.633-.594-.865-1.273-1.146-1.87-1.613-3.42-.15-.501-.35-1.051-.444-1.223l-.17-.313.417-.249.418-.25.701.739a14.604 14.604 0 0 0 1.485 1.328l.783.59.115.593c.31 1.589.352 1.987.264 2.544-.046.296-.09.533-.095.528a8.407 8.407 0 0 0-.49-.12zm12.084-14.402c-.384-.324-.707-.51-1.977-1.134-.634-.311-.8-.305-2.127.084-1.147.335-1.593.323-3.024-.085-1.283-.366-2.007-.43-2.856-.252-.63.132-2.117.074-2.653-.103a9.416 9.416 0 0 1-.81-.328 3.975 3.975 0 0 0-.995-.27l-.552-.067.358-.234c.675-.439 1.23-.359 1.965.284.411.36.453.333.177-.116l-.189-.308.17-.165c.316-.305.775-.493 1.074-.44.865.156 1.42.372 1.732.676.072.07.188.133.258.142.07.01.25.076.4.149.783.381 3.295 1.063 3.721 1.01.293-.037.92-.34 1.743-.846.875-.536 1.898-.225 2.63.8.3.421.322.435.679.436.335 0 .39.029.614.316l.246.316.342-.096c.288-.08.37-.075.519.033.097.07.176.2.176.289 0 .14-.051.161-.396.161-.218 0-.492.02-.608.045-.17.036-.292-.022-.617-.297z" transform="matrix(.64266 0 0 .61079 57.308 14.55)"/><path style="fill:#6a6a69;stroke-width:1.59611" d="M105.934 260.014a.259.259 0 0 1 .184 0c.05.023.009.041-.092.041-.102 0-.143-.018-.092-.04zm.884 0a.259.259 0 0 1 .184 0c.05.023.009.041-.092.041-.101 0-.143-.018-.092-.04zm-.953-.9c.053-.023.116-.02.14.007.025.027-.018.046-.096.043-.086-.004-.103-.024-.044-.05zm18.194-.492c.132-.018.347-.018.48 0 .13.018.023.033-.24.033-.264 0-.372-.015-.24-.033zm-7.884-.403a.259.259 0 0 1 .185 0c.05.023.009.041-.093.041-.1 0-.142-.018-.092-.041zm-12.57-.762c0-.112.018-.158.038-.102.02.056.02.148 0 .204-.02.056-.037.01-.037-.102zm9.953-1.224c0-.157.016-.221.034-.143a.742.742 0 0 1 0 .286c-.018.078-.034.014-.034-.143zm-7.55-3.078c.133-.019.332-.018.443 0 .11.02.002.034-.241.033-.243 0-.334-.015-.201-.033zm2.84-.88c0-.269.015-.37.031-.223s.016.367 0 .49c-.017.123-.03.003-.03-.267zm-4.21.204c0-.112.016-.158.037-.102.02.056.02.148 0 .204-.02.056-.038.01-.038-.102zm3.604.034c.004-.095.021-.114.045-.049.02.059.018.13-.006.156-.025.028-.042-.02-.04-.107zm-2.874-.49c.004-.094.021-.114.045-.049.021.06.019.13-.006.157-.025.027-.042-.021-.039-.107zm9.069-.115c0-.112.017-.158.037-.102.02.056.02.148 0 .204-.02.056-.037.01-.037-.102zm-8.995-.619c.004-.095.021-.114.045-.049.02.059.018.13-.006.156-.025.028-.042-.02-.04-.107zm2.88-.36c0-.112.016-.158.037-.102.02.056.02.148 0 .204-.02.056-.037.01-.037-.102zm-3.594-1.102c0-.538.012-.748.026-.466.015.283.014.723 0 .98-.015.256-.027.025-.026-.514zm.794.368c0-.113.016-.159.037-.102.02.056.02.147 0 .204-.02.056-.037.01-.037-.102zm.076-1.51c.001-.135.018-.18.037-.1.018.079.017.19-.003.244-.02.056-.036-.01-.034-.144zm14.368-.408c0-.135.018-.18.037-.1a.51.51 0 0 1-.003.244c-.02.056-.036-.01-.034-.144zm-14.303-1.068c.004-.095.021-.114.045-.049.021.059.018.13-.006.157-.025.027-.042-.022-.039-.108zm.074-.979c.004-.095.02-.114.044-.05.022.06.02.13-.006.157-.024.027-.042-.02-.038-.107zm.074-.653c.004-.095.02-.114.044-.049.021.059.019.13-.006.157-.024.027-.042-.022-.039-.108zm-1.023-.238c0-.134.018-.18.036-.1a.51.51 0 0 1-.003.245c-.02.055-.035-.01-.034-.145zm8.028-.938c0-.112.017-.158.037-.102.02.056.02.148 0 .204-.02.056-.037.01-.037-.102zm-7.957-.245c0-.112.016-.158.037-.102.02.056.02.148 0 .204-.02.056-.037.01-.037-.102zm6.33-.863c.004-.095.021-.115.045-.05.021.06.018.13-.006.157-.025.027-.042-.021-.039-.107zm9.51-.116c0-.112.018-.158.038-.102.02.056.02.148 0 .204-.02.056-.037.01-.037-.102zm-4.3-.223c.214-.017.546-.017.737 0 .19.017.016.03-.39.03-.405 0-.561-.014-.347-.03zm-1.143-.078a.383.383 0 0 1 .22.003c.05.022-.008.039-.13.037-.121-.002-.162-.02-.09-.04zm3.134 0c.054-.023.117-.02.142.006.024.028-.02.047-.097.043-.086-.004-.103-.023-.045-.049zm-3.684-.081c.054-.024.117-.02.142.006.024.027-.02.046-.097.043-.086-.004-.103-.024-.045-.05zm4.348 0c.053-.024.116-.02.14.006.025.027-.018.046-.096.043-.086-.004-.103-.024-.044-.05zm-7.777-.679c0-.202.015-.284.032-.183.018.1.018.266 0 .367-.017.1-.032.018-.032-.184zm-.825-.21c.004-.096.021-.115.045-.05.021.059.019.13-.006.157-.025.027-.042-.022-.039-.108zm4.526-.524c.073-.09.15-.163.17-.163.02 0-.023.073-.096.163-.074.09-.15.163-.17.163-.02 0 .023-.073.096-.163zm-.405-.597c0-.014.108-.133.24-.265l.239-.24-.217.265c-.201.248-.262.303-.262.24zm-9.735-.525c-.092-.13-.09-.132.027-.031.071.062.13.126.13.143 0 .067-.061.024-.158-.112zm11.588-.347c0-.112.017-.158.038-.102.02.056.02.148 0 .204-.02.056-.038.01-.038-.102zm3.69-.898c0-.157.015-.22.034-.142a.742.742 0 0 1 0 .285c-.019.079-.034.015-.034-.143zm-8.711-.036c0-.064.03-.138.066-.163.037-.025.05.028.029.118-.045.19-.096.214-.096.045zm-7.888-.433-.254-.306.276.281c.152.155.276.293.276.306 0 .063-.062.004-.298-.28zm9.874-.204c.305-.36.371-.425.371-.364 0 .014-.157.188-.35.388l-.35.364zm-.881-.418c0-.017.058-.081.129-.143.117-.101.12-.099.027.03-.096.137-.156.18-.156.113zm-14.348-1.576a.383.383 0 0 1 .22.003c.05.022-.008.039-.13.037-.121-.002-.162-.02-.09-.04zm-1.695-.082a.383.383 0 0 1 .221.003c.05.022-.009.04-.13.038-.122-.002-.163-.02-.09-.04zm-.623-.897c.053-.023.117-.02.141.006.025.027-.019.047-.096.043-.086-.004-.104-.023-.045-.05zm12.344-1.005c0-.381.013-.537.028-.347.016.191.016.503 0 .694-.015.19-.028.035-.028-.347zm13.096.116c.004-.095.02-.115.044-.05.021.06.019.13-.006.157-.024.027-.042-.021-.039-.107zm.589-.245c.004-.095.021-.114.045-.05.02.06.018.13-.006.157-.025.027-.042-.021-.04-.107zm.082-1.544c.001-.134.018-.18.037-.1.019.08.017.19-.003.245-.02.055-.036-.01-.034-.145zm-13.713-.007c.004-.095.021-.114.045-.049.02.06.018.13-.006.157-.025.027-.042-.022-.04-.108zm7.737-.49c.004-.094.02-.114.044-.048.021.058.019.129-.006.156-.024.027-.042-.021-.039-.107zm5.305-.407c.004-.095.02-.115.044-.05.021.06.019.13-.006.157-.024.027-.042-.021-.039-.107zm-5.232-.082c.004-.095.021-.114.045-.049.021.059.018.13-.006.156-.025.027-.042-.02-.039-.107zm.074-.57c.004-.096.02-.115.044-.05.022.059.02.13-.006.156-.024.027-.042-.02-.038-.107zm5.747-.083c.004-.095.021-.114.045-.049.02.06.018.13-.006.157-.025.027-.042-.022-.04-.108zm-.663-.163c.004-.095.02-.114.044-.049.022.059.02.13-.006.156-.024.027-.042-.02-.038-.107zm-5.01-.326c.004-.095.02-.115.044-.05.021.06.019.13-.006.157-.024.027-.042-.021-.039-.107zm.073-.571c.004-.095.021-.115.045-.05.021.06.018.13-.006.157-.025.027-.042-.021-.039-.107zm-39.277-1.29c0-.016.058-.08.128-.142.117-.101.12-.099.028.03-.096.137-.156.18-.156.113zm47.082-1.631c0-.017.058-.081.129-.143.116-.101.119-.099.027.03-.096.137-.156.18-.156.113zm-1.046-.27c.053-.023.117-.02.142.006.024.027-.02.047-.097.043-.086-.004-.103-.023-.045-.05zm-15.721-1.923-.217-.265.24.24c.131.131.24.25.24.265 0 .063-.062.008-.263-.24zm4.026-.925c.004-.095.02-.114.044-.049.021.059.019.13-.006.156-.024.027-.042-.02-.039-.107zm-4.49-.442c0-.112.018-.158.038-.102.02.056.02.148 0 .204-.02.056-.037.01-.037-.102zm13.193-.285c.002-.135.018-.18.036-.1a.51.51 0 0 1-.003.244c-.02.055-.035-.01-.034-.144zm-13.36-.184c-.092-.13-.09-.132.027-.03.123.106.162.173.101.173-.015 0-.073-.064-.128-.143zm3.65-.367-.141-.184.166.156a.872.872 0 0 1 .165.183c0 .066-.059.017-.19-.155zm6.622-.04c.234-.016.599-.016.81 0 .211.017.02.03-.426.03s-.619-.014-.384-.03zm2.175-.077c.053-.024.117-.02.141.006.025.027-.019.046-.096.043-.086-.004-.104-.023-.045-.05zm.737-.082c.053-.023.117-.02.141.006.025.027-.019.047-.096.043-.086-.004-.104-.023-.045-.05zm.983-.27c0-.113.017-.158.038-.102.02.056.02.148 0 .204-.02.056-.038.01-.038-.102zm-4.19-.06c.234-.017.6-.017.81 0 .212.016.02.03-.426.03-.446-.001-.619-.015-.384-.03zm4.934.003c.07-.02.187-.02.258 0 .07.02.013.038-.13.038-.141 0-.199-.017-.128-.038zm-35.463-.331-.254-.306.276.281c.258.262.31.33.254.33-.012 0-.136-.137-.276-.305zm32.778.25c.053-.023.117-.02.141.006.025.027-.019.047-.096.043-.086-.004-.104-.023-.045-.05zm.81-.081c.054-.024.117-.021.142.006.024.027-.02.046-.097.042-.086-.004-.103-.023-.044-.049zm-11.277-.08a.259.259 0 0 1 .184 0c.05.022.01.04-.092.04-.101 0-.143-.018-.092-.04zm11.76-.64c0-.404.012-.58.027-.39.016.19.016.52 0 .734-.014.215-.027.06-.027-.344zm-12.414.225c-.092-.13-.09-.133.028-.031.07.061.128.126.128.143 0 .067-.06.023-.156-.112zm3.398.025c0-.065.03-.138.067-.164.037-.025.05.028.028.118-.045.19-.095.215-.095.046zm9.738-.372c0-.113.017-.158.037-.102.02.056.02.148 0 .204-.02.056-.037.01-.037-.102zm1.775-1.591c.001-.18.016-.244.034-.142a1 1 0 0 1-.001.326c-.019.078-.033-.005-.032-.184zm-22.353-1c-.092-.13-.09-.132.028-.03.123.106.162.173.1.173-.014 0-.072-.065-.128-.143zm-20.18.03c0-.017.059-.08.13-.142.117-.102.12-.1.028.03-.097.136-.157.18-.157.112zm30.737-.622c0-.112.017-.158.038-.102.02.056.02.148 0 .204-.02.056-.038.01-.038-.102zm14.743-.3c.071-.021.187-.021.258 0 .071.02.013.037-.129.037-.142 0-.2-.017-.129-.038zm-13.833-.597c.073-.09.15-.163.17-.163.02 0-.023.073-.097.163-.073.09-.15.163-.17.163-.02 0 .023-.073.097-.163zm14.048-.98c0-.112.016-.158.037-.101.02.056.02.147 0 .204-.02.056-.037.01-.037-.102zm.59-.326c0-.112.016-.158.036-.102.02.056.02.148 0 .204-.02.056-.037.01-.037-.102zm-17.843-.449c-.18-.202-.31-.367-.289-.367.02 0 .183.165.362.367.18.202.31.368.289.368-.02 0-.183-.166-.362-.368zm-9.426-.007c.004-.095.021-.114.045-.049.021.059.018.13-.006.156-.025.028-.042-.02-.039-.107zm27.262-.081c.004-.095.021-.115.045-.05.021.06.018.13-.006.157-.025.027-.042-.021-.039-.107zm-21.206-.172a.383.383 0 0 1 .221.003c.05.023-.009.04-.13.038-.122-.002-.163-.02-.09-.04zm-1.503-.494c-.091-.13-.089-.132.028-.03.123.106.162.173.101.173-.015 0-.073-.065-.129-.143zm4.126-.163c-.091-.13-.089-.133.028-.031.123.107.162.174.101.174-.015 0-.073-.065-.129-.143zm14.908-.061c0-.135.018-.18.036-.1.02.079.018.189-.003.244-.02.055-.035-.01-.034-.144zm-10.421-1.73a.722.722 0 0 1 .294.001c.07.02-.005.036-.166.036-.162-.001-.22-.018-.128-.038zm-3.735-.562c.004-.095.021-.114.045-.05.021.06.019.13-.006.157-.025.027-.042-.021-.039-.107zm17.395-.197c0-.112.017-.158.037-.102.02.056.02.148 0 .204-.02.056-.037.01-.037-.102zm-9.609.027a.259.259 0 0 1 .185 0c.05.023.009.042-.093.042-.1 0-.142-.019-.092-.042zm1.994-.002c.054-.023.117-.02.142.006.024.027-.02.047-.097.043-.086-.004-.103-.023-.045-.049zm7.615-.597c0-.112.017-.158.037-.102.02.056.02.148 0 .204-.02.056-.037.01-.037-.102zm-16.885-.367c-.179-.202-.308-.367-.288-.367.02 0 .183.165.362.367.179.202.309.367.289.367-.02 0-.184-.165-.363-.367zm-1.025.075c.004-.095.02-.114.044-.05.021.06.019.13-.006.157-.024.027-.042-.021-.039-.107zm8.596-.006a.259.259 0 0 1 .184 0c.051.023.01.041-.092.041-.101 0-.143-.018-.092-.041zm2.289-.002c.053-.024.117-.02.141.006.025.027-.019.046-.097.043-.085-.004-.103-.023-.044-.05zm-15.135-.364c-.14-.174-.14-.174.026-.062.09.062.165.14.165.175 0 .098-.04.074-.19-.113zm-.407-.457c-.092-.13-.09-.133.027-.031.123.106.162.173.101.173-.015 0-.073-.064-.128-.142zm19.157-1.714c-.092-.13-.09-.132.027-.03.071.06.13.125.13.142 0 .067-.061.024-.157-.112zm-.157-.486c.091-.02.24-.02.332 0 .091.02.016.035-.166.035s-.257-.015-.166-.035zm-.36-1.39c-.087-.125-.086-.132.01-.053.06.05.16.112.22.137.093.038.092.046-.008.051-.066.004-.166-.057-.221-.136zm-12.161-.322c.053-.023.117-.02.141.006.025.027-.019.047-.096.043-.086-.004-.104-.023-.045-.05zm1.286 0a.383.383 0 0 1 .221.002c.05.023-.009.04-.13.038-.122-.002-.162-.02-.09-.04zm7.551-.161a.259.259 0 0 1 .184 0c.051.022.01.041-.092.041-.101 0-.143-.019-.092-.041zm-8.584-.086a1.47 1.47 0 0 1 .406 0c.111.018.02.034-.203.034s-.314-.016-.203-.034zm-3.278-.407a.722.722 0 0 1 .295.002c.07.02-.005.036-.167.035-.162 0-.22-.018-.128-.037zm-1.547-.735a.722.722 0 0 1 .295.002c.07.02-.005.037-.167.036-.162-.001-.22-.018-.128-.037zm12.697-.48c.004-.094.02-.114.044-.049.021.06.019.13-.006.157-.024.027-.042-.021-.039-.107zm-10.851-.252c.053-.024.117-.021.141.006.025.027-.019.046-.097.043-.085-.004-.103-.024-.044-.05zm8.028-.493c.132-.019.331-.018.442 0 .11.02.002.034-.24.034-.244-.001-.335-.016-.202-.034zm-1.765-.079c.053-.023.116-.02.14.006.025.028-.018.047-.096.043-.086-.004-.103-.023-.044-.049zm1.174-.33c.132-.017.347-.017.479 0 .132.019.024.034-.24.034-.263 0-.37-.015-.239-.033zm-2.192-.389c-.179-.202-.309-.367-.289-.367.02 0 .184.165.363.367.179.202.309.367.288.367-.02 0-.183-.165-.362-.367zm5.027.04c0-.156.016-.22.034-.142a.742.742 0 0 1 0 .286c-.018.078-.034.014-.034-.143zm-5.61-.047c.003-.095.02-.114.044-.05.021.06.019.13-.006.157-.025.027-.042-.02-.039-.107zm5.335-.115c.074-.09.15-.164.17-.164.02 0-.023.074-.096.164-.073.09-.15.163-.17.163-.02 0 .023-.074.096-.163zm.791-.245c0-.157.015-.221.034-.143a.742.742 0 0 1 0 .286c-.019.078-.034.014-.034-.143zm-.011-1.027c.004-.095.02-.114.044-.05.022.06.02.13-.006.157-.024.027-.042-.021-.038-.107zm.074-.816c.004-.095.02-.114.044-.05.021.06.019.13-.006.157-.024.027-.042-.02-.039-.107zm-.737-.816c.004-.095.02-.114.044-.05.022.06.019.13-.006.157-.024.027-.042-.02-.038-.107zm.81-.082c.004-.095.021-.114.045-.049.021.06.018.13-.006.157-.025.027-.042-.022-.039-.108zm-.73-.768c0-.112.016-.158.036-.102.02.056.02.148 0 .204-.02.056-.037.01-.037-.102zm.804-.048c.004-.095.02-.114.044-.049.022.06.02.13-.006.157-.024.027-.041-.022-.038-.108zm-6.91-.646c0-.224.014-.306.031-.182s.016.308-.001.408c-.018.1-.031-.001-.03-.226zm6.992-.244c.002-.135.018-.18.037-.1.019.079.017.189-.003.244-.02.055-.036-.01-.034-.144zm-.819-.252c.004-.095.021-.114.045-.05.02.06.018.13-.006.157-.025.027-.042-.02-.04-.107zm-5.305-.898c.004-.095.021-.114.045-.049.02.06.018.13-.006.157-.025.027-.042-.022-.04-.108zm5.31-.197c0-.112.018-.158.038-.102.02.056.02.148 0 .204-.02.056-.037.01-.037-.102zm-6.12-.292c.004-.095.02-.115.044-.05.021.06.019.13-.006.157-.024.027-.042-.021-.039-.107zm.884-.245c.004-.095.02-.114.044-.05.022.06.019.13-.006.157-.024.027-.042-.02-.038-.107zm6.042 0c.004-.095.02-.114.044-.05.021.06.019.13-.006.157-.024.027-.042-.02-.039-.107zm-4.15-1.394a.259.259 0 0 1 .183 0c.051.023.01.042-.092.042-.101 0-.142-.019-.092-.042zm1.183-.002c.053-.023.116-.02.141.006.024.028-.019.047-.097.043-.086-.004-.103-.023-.044-.049zm-1.474-.897c.053-.024.117-.02.141.006.025.027-.019.046-.096.043-.086-.004-.104-.023-.045-.05z" transform="matrix(.64266 0 0 .61079 57.308 14.55)"/><path style="fill:#64902e;stroke-width:1.59611" d="M123.977 257.972c.444-.418.43-.954-.037-1.527-.166-.203-.172-.229-.047-.178.081.033.49.19.908.35.418.161.866.37.995.467.631.47.087.837-1.46.987-.505.048-.513.046-.36-.099zm-8.614-.6c-.783-.146-1.14-.627-1.014-1.366.112-.657.274-1.024.426-.97.606.215 1.28.381 1.546.381h.321l-.045.592c-.03.398-.01.731.06 1.02l.105.428-.524-.01a6.563 6.563 0 0 1-.875-.075zm-.178-9.615c-.494-.03-.913-.072-.932-.094a4.923 4.923 0 0 1-.218-.497l-.182-.459.268.07c.846.224 3.922.146 4.972-.125l.432-.112-.045.246a3.185 3.185 0 0 0-.044.468c0 .121-.042.223-.092.226-.051.003-.4.062-.774.132-.85.158-2.21.217-3.385.145zm-.686-1.9c-.304-.041-.622-.06-.706-.045-.084.017-.155-.01-.157-.058a7.541 7.541 0 0 0-.11-.584l-.106-.495.284.108c.527.202 2.034.292 3.212.192 1.075-.09 2.099-.252 2.593-.41a3.13 3.13 0 0 1 .284-.082c.026 0-.016.323-.108.835-.045.255-.232.33-1.28.52-.704.127-3.012.138-3.906.019zM98.301 235.34c.077-.05.186-.051.295-.003.15.067.135.077-.123.08-.224.001-.265-.017-.172-.077zm6.84-4.027c0-.017.059-.08.13-.143.116-.101.119-.098.027.031-.096.136-.156.18-.156.112zm.443-.408c0-.017.058-.08.129-.143.116-.101.12-.098.027.031-.096.136-.156.18-.156.112zm.479-.459c.073-.09.15-.163.17-.163.02 0-.023.074-.097.163-.073.09-.15.164-.17.164-.02 0 .023-.074.097-.164zm.331-.27c0-.014.108-.133.24-.265l.24-.24-.217.265c-.202.248-.263.303-.263.24zm1.363-1.443c.282-.314.529-.571.549-.571.02 0-.194.257-.475.57-.282.315-.528.572-.549.572-.02 0 .194-.257.475-.571zm-30.762-1.183c.096-.113.19-.204.21-.204.02 0-.04.091-.136.204-.095.112-.19.204-.21.204-.02 0 .041-.092.136-.204zm.811-.888c0-.017.058-.081.129-.143.117-.101.12-.098.028.031-.097.136-.157.18-.157.112zm14.662-3.264c0-.017.058-.081.13-.143.116-.101.119-.098.027.031-.096.136-.157.18-.157.112zm.921-1.193c.074-.09.15-.163.17-.163.02 0-.022.073-.096.163-.073.09-.15.163-.17.163-.02 0 .023-.073.096-.163zm.627-.775c.137-.157.266-.286.287-.286.02 0-.076.129-.214.286-.137.157-.266.285-.286.285-.02 0 .075-.128.213-.285zm-13.852-1.622c0-.017.058-.081.129-.143.117-.102.12-.099.028.03-.097.137-.157.18-.157.113zm15.546-.321c0-.014.108-.134.24-.266l.24-.24-.217.266c-.202.247-.263.303-.263.24zm-14.591-.811c.305-.36.371-.425.371-.364 0 .013-.157.187-.35.388l-.35.363zm16.062-.735c.305-.36.371-.425.371-.363 0 .013-.157.187-.35.387l-.35.364zm18.773-11.457a.259.259 0 0 1 .184 0c.051.022.01.041-.092.041-.1 0-.142-.019-.092-.041zm-3.827-.736c.054-.024.117-.021.142.006.024.027-.02.046-.097.043-.086-.004-.103-.024-.045-.05zm.29.002a.259.259 0 0 1 .185 0c.05.022.009.04-.092.04-.102 0-.143-.018-.092-.04z" transform="matrix(.64266 0 0 .61079 57.308 14.55)"/><path style="fill:#517524;stroke-width:1.59611" d="M106.233 260.012c.053-.023.117-.02.141.006.025.027-.019.047-.096.043-.086-.004-.104-.023-.045-.049zm2.077-1.117c0-.017.058-.081.129-.143.117-.101.12-.098.028.03-.097.137-.157.18-.157.113zm8.165-.678c.053-.023.116-.02.14.006.025.027-.018.047-.096.043-.086-.004-.103-.023-.044-.05zm6.553-.161a.259.259 0 0 1 .184 0c.05.022.009.04-.092.04-.102 0-.143-.018-.092-.04zm1.436-.002c.071-.02.187-.02.258 0 .071.02.013.037-.129.037-.141 0-.2-.017-.129-.037zm-2.021-.081c.053-.024.117-.021.141.006.025.027-.019.046-.097.042-.085-.004-.103-.023-.044-.049zm2.648.002a.259.259 0 0 1 .184 0c.05.022.009.04-.092.04-.102 0-.143-.018-.092-.04zm-22.143-.354c0-.157.015-.222.034-.143a.742.742 0 0 1 0 .285c-.019.079-.034.015-.034-.142zm17.874.107c.053-.023.117-.02.141.006.025.027-.019.047-.097.043-.085-.004-.103-.023-.044-.05zm-.59-.081c.054-.024.117-.021.142.006.024.027-.02.046-.097.042-.086-.004-.103-.023-.045-.049zm-.778-.083c.071-.02.187-.02.258 0 .07.02.013.038-.129.038-.142 0-.2-.017-.129-.038zm-2.097-.085c.255-.016.653-.016.884 0 .232.016.023.03-.463.029-.486 0-.676-.013-.42-.03zm8.67-.126c-.038-.098-.203-.26-.365-.362-.365-.227-.283-.245.108-.024.157.089.308.238.335.332.067.234.01.273-.077.054zm-10.588.05a.259.259 0 0 1 .184 0c.05.023.009.042-.092.042-.102 0-.143-.019-.092-.042zm-.81-.292c-.096-.101-.123-.143-.06-.093.063.05.18.131.262.18.08.05.107.093.059.094-.048 0-.166-.08-.261-.181zm-.34-1.04c0-.113.017-.159.038-.103.02.056.02.148 0 .204-.02.056-.037.01-.037-.102zm-9.958-.113c0-.017.058-.081.129-.143.117-.101.12-.099.028.03-.096.137-.157.18-.157.113zm10.772-2.703c.002-.135.018-.18.037-.1.018.08.017.19-.003.244-.02.056-.036-.01-.034-.144zm-7.659-.423c.071-.02.187-.02.258 0 .07.02.013.037-.129.037-.142 0-.2-.017-.129-.037zm7.662-.515c0-.157.015-.222.033-.143a.742.742 0 0 1 0 .286c-.018.078-.033.014-.033-.143zm4.208-.571c0-.382.013-.538.028-.347.016.19.016.503 0 .693-.015.191-.028.035-.028-.346zm-10.483-.048c.004-.095.021-.114.045-.05.021.06.019.13-.006.157-.025.027-.042-.021-.039-.107zm6.195-.524c0-.112.017-.158.038-.102.02.056.02.148 0 .204-.02.056-.038.01-.038-.102zm-10.32-.292c.003-.095.02-.114.044-.05.021.06.019.13-.006.157-.025.027-.042-.021-.039-.107zm14.609-1.666c0-.426.012-.6.027-.388.016.214.016.562 0 .776-.015.213-.027.038-.027-.388zm.059-1.55c0-.113.016-.159.037-.102.02.056.02.147 0 .204-.02.056-.037.01-.037-.102zm.068-.7c.004-.096.02-.115.044-.05.021.059.019.13-.006.156-.024.027-.042-.02-.039-.107zm.147-.98c.004-.095.021-.114.044-.05.022.06.02.13-.006.157-.024.027-.041-.021-.038-.107zm-14.804-.279c0-.112.017-.158.037-.102.02.056.02.148 0 .204-.02.056-.037.01-.037-.102zm14.883-.245c0-.112.017-.158.038-.102.02.056.02.148 0 .204-.02.056-.038.01-.038-.102zm-6.195-.292c.004-.095.021-.114.045-.05.021.06.019.13-.006.157-.025.027-.042-.021-.039-.107zm6.41-1.224c.005-.095.022-.114.045-.05.021.06.019.13-.006.157-.024.027-.042-.021-.039-.107zm-4.48-.337c.112-.02.278-.019.368 0 .09.02 0 .035-.203.035s-.277-.017-.165-.035zm.883 0a1.47 1.47 0 0 1 .405 0c.112.018.02.034-.202.034-.223 0-.315-.016-.203-.034zm1.326-.08c.071-.02.187-.02.258 0 .071.02.013.038-.129.038-.142 0-.2-.017-.129-.038zm.778-.08c.054-.024.117-.022.142.005.024.027-.02.047-.097.043-.086-.004-.103-.023-.045-.05zm1.635-.089c0-.049-.058-.106-.129-.126-.116-.034-.116-.039-.004-.047.133-.01.251.132.178.214-.025.026-.044.009-.044-.04zm-9.578-2.345c.095-.112.19-.204.21-.204.02 0-.041.092-.137.204-.095.112-.19.204-.21.204-.02 0 .041-.092.137-.204zm5.982-.734c.002-.135.018-.18.037-.1.019.079.017.189-.003.244-.02.055-.036-.01-.034-.144zm-10.535-.378c-.306-.168-.693-.606-1.361-1.54-.469-.655-1.318-1.409-2.078-1.842-.628-.359-1.41-.687-1.633-.687-.056 0-.101-.04-.101-.087 0-.047-.035-.062-.077-.033-.043.029-.134.025-.203-.01a.994.994 0 0 0-.254-.078.954.954 0 0 1-.185-.04c-.108-.045-.502-.086-.801-.082a1.174 1.174 0 0 1-.501-.11l-.196-.112.28-.058c.496-.102 1.656-.617 2.567-1.14 1.952-1.12 3.945-2.736 6.013-4.877l.933-.965-.143.511c-.25.893-.637 2.7-.776 3.62-.187 1.245-.185 3.751.005 4.888.075.449.14.859.145.911.007.073-1.249 1.905-1.305 1.904a6.09 6.09 0 0 1-.33-.173zm6.395-1.734c0-.017.058-.081.129-.143.117-.101.12-.098.027.031-.096.136-.156.18-.156.112zm.81-.897c0-.017.058-.082.13-.143.116-.102.119-.099.027.03-.096.136-.157.18-.157.113zm-16.297-1.005c.053-.023.117-.02.141.006.025.028-.019.047-.097.043-.085-.004-.103-.023-.044-.049zm24.482-4.724c.004-.095.02-.115.044-.05.021.06.019.13-.006.157-.024.027-.042-.021-.039-.107zm-44.73-2.345c0-.014.107-.133.239-.265l.24-.24-.217.266c-.202.247-.263.302-.263.24zm12.59-.035a52.646 52.646 0 0 0-.101-.755 15.02 15.02 0 0 1-.073-.612c-.053-.614-.29-2.097-.423-2.652-.08-.337-.153-.668-.16-.736a.712.712 0 0 0-.056-.204 3.809 3.809 0 0 1-.167-.624.26.26 0 0 0-.061-.116.287.287 0 0 1-.055-.166c0-.058-.083-.24-.183-.404-.101-.164-.166-.331-.143-.37.022-.04.003-.073-.043-.073-.045 0-.062-.036-.037-.081.025-.045.005-.082-.044-.082-.05 0-.069-.024-.043-.053.027-.03-.01-.105-.08-.17-.084-.076-.09-.097-.017-.062.061.03.028-.025-.073-.123-.102-.097-.135-.153-.074-.123.071.035.065.012-.019-.063-.07-.065-.128-.154-.128-.198 0-.045-.1-.166-.223-.27l-.222-.188.314-.199c1.05-.664 3.914-2.322 5.86-3.392 2.345-1.29 3.477-1.865 4.457-2.26l.571-.232.004.464c.002.263.074.674.166.95l.161.487-.708.712c-.943.948-3.519 3.843-4.23 4.753-1.754 2.248-2.837 3.99-3.654 5.882-.415.961-.494 1.108-.517.96zm-11.706-.949c0-.017.058-.081.129-.143.116-.101.119-.098.027.031-.096.136-.156.18-.156.112zm.036-1.193c.159-.18.305-.327.325-.327.02 0-.093.147-.25.327-.16.18-.305.326-.325.326-.02 0 .092-.147.25-.326zm-.546-.13c.003-.095.02-.114.044-.049.021.06.019.13-.006.157-.024.027-.041-.021-.038-.107zm30.356-.815c.004-.096.021-.115.045-.05.021.06.018.13-.006.157-.025.027-.042-.021-.039-.107zm2.205.098c0-.017.058-.081.129-.143.117-.101.12-.098.028.031-.097.136-.157.18-.157.112zm14.589 0c0-.017.058-.081.129-.143.116-.101.12-.098.027.031-.096.136-.156.18-.156.112zm-12.637-1.193c.159-.18.305-.327.325-.327.02 0-.093.147-.25.327-.16.18-.305.326-.326.326-.02 0 .093-.147.251-.326zm14.368-1.061c.074-.09.15-.163.17-.163.02 0-.023.073-.096.163-.073.09-.15.163-.17.163-.02 0 .023-.073.096-.163zm-14.782-.55c-.092-.13-.09-.133.028-.032.122.107.161.174.1.174-.015 0-.073-.064-.128-.143zm.375-.327-.403-.47.424.447c.233.245.424.456.424.469 0 .06-.07-.01-.445-.446zm9.802.102c.095-.112.19-.204.21-.204.02 0-.041.092-.136.204-.095.112-.19.204-.21.204-.02 0 .04-.092.136-.204zm-1.167-.286c0-.112.017-.158.037-.102.02.056.02.148 0 .204-.02.056-.037.01-.037-.102zm2.364-.22c.071-.02.187-.02.258 0 .071.021.013.038-.129.038-.141 0-.2-.017-.129-.037zm-4.526-.488c.053-.024.116-.021.14.006.025.027-.018.046-.096.043-.086-.004-.103-.024-.044-.05zm-6.76-.155c.005-.096.022-.115.045-.05.021.06.019.13-.006.157-.024.027-.042-.021-.039-.107zm-2.156-.417c.053-.023.117-.02.141.006.025.028-.019.047-.096.043-.086-.004-.103-.023-.045-.049zm1.1-.685c.025-.11.059-.147.077-.086a.226.226 0 0 1-.045.193c-.055.06-.065.029-.033-.107zm-24.148-.596c0-.018.051-.054.114-.081.066-.028.095-.014.07.032-.044.077-.184.115-.184.049zm41.65-.621c0-.202.014-.285.032-.184.017.101.017.266 0 .367-.018.101-.032.019-.032-.183zm-.604-.293c.004-.095.021-.114.045-.049.02.059.018.13-.006.157-.025.027-.042-.022-.04-.108zm-46.314-.197c.073-.09.15-.163.17-.163.02 0-.023.073-.097.163-.073.09-.15.163-.17.163-.02 0 .023-.073.097-.163zm-.258-.838c0-.013.257-.297.57-.633l.572-.61-.55.633c-.512.587-.592.67-.592.61zm1.105-.09c0-.017.058-.081.129-.143.117-.102.12-.099.028.03-.096.137-.157.18-.157.113zm29.753-1.33c.054-.024.117-.021.142.005.024.027-.02.047-.097.043-.086-.004-.103-.023-.045-.05zm.59-.082c.053-.024.117-.021.141.006.025.027-.019.046-.097.043-.085-.004-.103-.024-.044-.05zm-29.9-.139c0-.017.057-.08.128-.142.117-.102.12-.099.028.03-.096.136-.157.18-.157.112zm25.744-.152-.14-.184.165.155a.872.872 0 0 1 .166.184c0 .065-.06.017-.191-.155zm1.438-.694-.179-.224.203.197c.19.185.236.251.178.251-.013 0-.104-.1-.202-.224zm17.326-.394c.004-.095.021-.115.045-.05.021.06.018.13-.006.157-.025.027-.042-.021-.039-.107zm-18.322-.708-.14-.183.165.155a.872.872 0 0 1 .166.184c0 .065-.06.017-.191-.156zm.5-3.04c.002-.134.018-.179.037-.1a.51.51 0 0 1-.003.245c-.02.055-.036-.01-.034-.144zm17.38-.17c.004-.094.021-.114.045-.048.021.058.018.129-.006.156-.025.027-.042-.021-.039-.107zm-17.38-.319c.002-.134.018-.18.037-.1a.51.51 0 0 1-.003.245c-.02.055-.036-.01-.034-.145zm-6.779-2.366c.002-.135.018-.18.037-.1.019.079.017.189-.003.244-.02.055-.035-.01-.034-.144zm20.45-1.319a.259.259 0 0 1 .185 0c.05.023.01.041-.092.041-.101 0-.143-.018-.092-.041zm-6.63-1.06a.259.259 0 0 1 .184 0c.05.022.009.04-.092.04-.102 0-.143-.018-.092-.04zm.59 0a.259.259 0 0 1 .183 0c.05.022.01.04-.092.04-.101 0-.143-.018-.092-.04zm-6.078-.248a.383.383 0 0 1 .22.003c.05.022-.008.04-.13.038-.121-.002-.162-.02-.09-.041zm.698.003a.259.259 0 0 1 .185 0c.05.023.009.041-.093.041-.1 0-.142-.018-.092-.041zm.668-.328c.053-.024.117-.02.141.006.025.027-.019.046-.096.043-.086-.004-.104-.023-.045-.05zm7.143-.002a.722.722 0 0 1 .295.002c.07.02-.005.036-.167.035-.162 0-.22-.017-.128-.037zm1.521-.29-.14-.183.166.156c.156.146.2.211.14.211-.014 0-.088-.082-.166-.183zm-13.31-.44a.259.259 0 0 1 .184 0c.05.022.009.04-.092.04-.102 0-.143-.018-.092-.04zm1.924-.334c-.091-.13-.089-.133.028-.031.071.061.13.126.13.143 0 .067-.061.023-.158-.112zm-1.297-.322a.383.383 0 0 1 .221.003c.05.022-.009.04-.13.037-.122-.002-.162-.02-.09-.04zm2.62-.407c.052-.024.116-.021.14.006.025.027-.019.046-.096.042-.086-.004-.104-.023-.045-.049zm7.401-.271c0-.202.015-.285.032-.184.018.101.018.267 0 .368-.018.1-.032.018-.032-.184zm-4.706-.673-.14-.184.166.156c.156.146.2.211.14.211-.014 0-.088-.082-.166-.183zm2.536.046c.053-.024.116-.02.14.006.025.027-.018.046-.096.043-.086-.004-.103-.023-.044-.05zm2.604-.352c0-.112.016-.158.037-.102.02.056.02.148 0 .204-.02.056-.037.01-.037-.102zm-.564-.327c-.026-.045-.01-.081.032-.081a.08.08 0 0 1 .078.081c0 .045-.015.082-.032.082-.018 0-.053-.037-.078-.082zm-5.328-4.855c.002-.134.018-.18.037-.1.018.08.017.19-.003.245-.02.055-.036-.01-.034-.145z" transform="matrix(.64266 0 0 .61079 57.308 14.55)"/><path style="fill:#020201;stroke-width:1.59611" d="M105.899 259.983c-.982-.113-2.094-.59-2.505-1.074-.263-.31-.39-.75-.386-1.347.004-.67.091-.957.571-1.882.203-.392.443-.987.532-1.324.09-.336.237-.777.328-.979.091-.202.188-.496.216-.653.028-.157.081-2.048.118-4.202.051-2.992.095-4.1.188-4.692.121-.776.537-2.313.726-2.688.097-.192.087-.208-.276-.449-.25-.166-.612-.561-1.08-1.178-.847-1.12-1.447-1.69-2.283-2.166-1.15-.657-2.198-.902-4.379-1.025-1.927-.11-2.33-.154-3.133-.343-2.62-.617-4.467-2.06-5.484-4.287-.462-1.011-.634-1.741-.89-3.776-.391-3.112-.943-4.83-1.942-6.056-.14-.17-.283-.309-.32-.309-.038 0-.374.214-.747.475-.373.26-.938.63-1.254.82-1.703 1.025-4.885 3.705-6.742 5.68-.487.517-.79.78-.877.762-.354-.075-.38-1.273-.06-2.733.51-2.324 1.466-4.424 3.06-6.717.668-.961 2.708-3.228 3.5-3.887 1.475-1.23 4.047-2.923 7.33-4.826 2.55-1.477 8.208-3.778 12.287-4.996.829-.247 1.145-.384 1.5-.646.55-.406 1.047-.578 1.675-.578.439 0 .522-.03 1.01-.367.597-.413.874-.457 1.459-.237l.346.13.459-.328c.558-.4.776-.467 1.122-.34.22.08.348.072.74-.046.262-.078.506-.183.544-.233.093-.124.293-1.444.31-2.047.008-.27-.045-.967-.118-1.55-.104-.837-.123-1.363-.09-2.49.054-1.805.177-2.485.508-2.795.786-.74 3.19-1.018 4.756-.55 1.743.52 1.915 1.217 1.482 5.998-.119 1.314-.138 1.91-.097 3.06.029.785.076 1.501.106 1.59.047.144.121.164.598.164.48 0 .616.038 1.157.321.54.284 1.045.734 1.045.933 0 .036.182.048.404.028.389-.036.412-.026.642.261.196.245.273.29.436.25.308-.075.682.148.955.569.176.272.39.464.751.674.84.49 1.599 1.59 1.816 2.635.115.554.097 1.704-.035 2.197l-.116.432.315.688c.29.634.317.749.345 1.442.016.414-.006.896-.05 1.071-.076.307-.069.331.207.662.7.842.962 1.584.96 2.721-.001.635-.04.907-.203 1.438-.258.841-.756 1.801-1.246 2.4-.215.264-.455.667-.542.912-.448 1.26-1.237 2.503-1.788 2.819-.313.179-.987.1-1.801-.21-.352-.135-.644-.237-.65-.228-.006.01.065.44.159.955.335 1.845.435 2.958.434 4.855 0 1.39-.03 1.957-.13 2.51-.18.985-.438 1.793-.756 2.362-.253.455-.265.508-.218.958.067.637-.074 1.624-.337 2.355-.19.53-.436 1.513-.436 1.744 0 .05.076.064.186.033a.49.49 0 0 1 .331.035c.195.116.194.624-.004 1.684-.5 2.684-.531 2.974-.567 5.4-.019 1.27-.012 2.475.015 2.675.058.428.196.56 1.66 1.597 1.16.822 1.817 1.19 3.206 1.798 1.222.536 1.668.793 1.838 1.063.247.39.066.923-.421 1.239-.744.483-1.914.565-4.137.291-.978-.12-1.817-.162-3.242-.163-2.84 0-4.173-.166-4.701-.583-.123-.096-.301-.362-.397-.591-.26-.62-.236-1.127.113-2.277.413-1.361.55-2.104.545-2.954-.006-.917-.264-2.209-.687-3.43-.565-1.633-.823-2.88-.927-4.485-.08-1.211.108-1.632.66-1.478.147.04.181.012.216-.178.07-.387.624-1.21 1.245-1.849l.596-.613-.044-.552c-.033-.418-.584-2.821-.674-2.938-.008-.011-.191.26-.407.603-.518.822-1.221 1.638-1.89 2.196-.383.32-.544.506-.545.632-.002.245-.25.828-.504 1.187-.205.29-.212.33-.257 1.562-.07 1.893-.277 2.796-.97 4.216-.45.921-1.132 2.796-1.255 3.445-.056.297-.123 1.054-.148 1.682-.025.629-.093 1.336-.152 1.573-.086.346-.09.497-.02.775.048.19.082.673.076 1.073-.008.534.038.958.175 1.588.391 1.796.322 2.491-.275 2.78-.537.26-1.921.424-2.764.327zm2.347-1.028c.398-.257.432-.59.143-1.425-.23-.663-.669-2.406-.669-2.654 0-.106.021-.105.164.006.09.07.194.127.23.127.082 0 .017-.632-.122-1.183-.09-.36-.135-.42-.373-.508-.15-.056-.632-.125-1.073-.155l-.802-.054-.356.427c-.358.429-.525.782-.536 1.13-.007.24.134.295.481.188.154-.047.29-.074.302-.06.012.014-.274.27-.637.57-1.01.835-1.35 1.36-1.36 2.092-.006.577.138.806.767 1.218.385.252.602.332 1.105.408 1.252.189 2.324.14 2.736-.127zm17.316-1.046c.421-.166.61-.378.543-.61-.063-.222-.283-.342-1.457-.793-1.08-.415-1.571-.67-2.317-1.198a36.4 36.4 0 0 0-1.634-1.04c-.623-.377-1.182-.767-1.241-.867-.16-.27-.152-4.923.01-6.185.227-1.766.413-3.003.52-3.455.06-.252.083-.487.052-.52-.03-.034-.336-.008-.679.057-2.122.403-4.57.402-5.604-.001-.167-.066-.333-.098-.369-.074-.127.087-.064 1.127.125 2.066.21 1.037.36 1.54.878 2.93.413 1.106.593 2.039.688 3.567.09 1.43.04 1.8-.396 3.02-.404 1.123-.476 1.605-.3 1.984.27.576.554.638 3.434.749 1.79.07 2.547.135 3.72.325 1.238.2 1.651.233 2.58.21.788-.021 1.203-.068 1.447-.165zm-17.309-5.214c.03-.051.056-.332.057-.624.003-.793.136-2.426.228-2.807.045-.184.34-.977.654-1.762.627-1.562.958-2.626 1.13-3.631.132-.763.222-2.163.14-2.163-.031 0-.178.131-.327.291l-.27.29.067-.26c.088-.338.227-.568.759-1.254.47-.606.669-1.023.749-1.573.045-.306.105-.39.543-.749 1.238-1.016 2.256-2.556 2.818-4.261.123-.373.454-1.625.735-2.782.486-1.998.87-3.271 1.041-3.451.054-.057.065-.02.036.122-.143.69-.37 2.111-.534 3.346-.225 1.686-.391 2.516-.682 3.398l-.214.648.459 1.261c.252.694.512 1.5.577 1.792.121.539.272 2.03.217 2.142-.016.034-.152.061-.302.062-.33 0-.944.372-1.224.74-.201.266-.663 1.21-.616 1.262.059.065 1.04.198 1.826.247.864.054 3.034-.083 3.228-.203.137-.085.651-1.874.76-2.642a7.25 7.25 0 0 0 .034-1.298l-.048-.71.26-.4c.459-.709.763-1.629.92-2.785.253-1.86-.053-5.543-.733-8.807-.314-1.505-.442-2.403-.442-3.083v-.602l-.424.062c-.233.034-1.302.061-2.376.06-1.557-.002-2.087-.032-2.616-.146-.888-.193-2.397-.663-2.968-.925-.255-.117-.473-.199-.485-.182a7.59 7.59 0 0 0-.108.676l-.088.646.468.538c.477.548.623.88.5 1.13-.25.51-1.953 2.194-2.418 2.392-.181.077-.384.727-.768 2.457-.72 3.252-.819 5.994-.298 8.28l.208.912-.545.762c-1.05 1.467-1.655 2.585-1.757 3.25a11.08 11.08 0 0 1-.18.816c-.327 1.266-.53 3.089-.662 5.957-.042.92-.11 1.965-.148 2.323-.104.95-.119.902.315 1.05.419.144.971.275 1.382.328.39.05 1.061-.033 1.122-.14zm-1.367-13.523c.357-.498.646-.948.642-1-.005-.052-.07-.462-.145-.911-.19-1.137-.192-3.643-.005-4.888.185-1.23.564-2.898.963-4.24.185-.62.32-1.158.302-1.192-.02-.034-.16-.085-.314-.112-.154-.027-.436-.16-.628-.294-.297-.209-.35-.284-.35-.505 0-.199-.085-.36-.37-.694-.439-.513-.657-1-.66-1.473l-.001-.342-.76-.564a16.185 16.185 0 0 0-1.64-1.034c-2.43-1.304-2.917-1.584-3.504-2.018a7.251 7.251 0 0 1-1.038-.952c-.689-.824-1.458-2.701-1.458-3.56v-.438l-.57.23c-.98.397-2.113.971-4.457 2.261-1.946 1.07-4.81 2.729-5.86 3.392l-.314.199.157.156c.276.275.991 1.625 1.25 2.36.343.976.692 2.791.848 4.406.026.269.058.55.07.625.013.074.045.313.072.53.087.718.553 2.195.9 2.854a6.182 6.182 0 0 0 3.12 2.812c1.223.496 1.945.595 4.977.681 1.937.055 3.064.33 4.341 1.059.76.434 1.61 1.187 2.078 1.843.668.934 1.055 1.372 1.361 1.54.174.095.322.173.329.173.007 0 .305-.407.663-.904zm-27.901-13.634c1.593-1.506 4.707-3.842 6.882-5.164 2.964-1.8 8.054-4.561 11.833-6.418 1.46-.718 1.436-.691 1.733-1.796.563-2.086 1.029-2.764 2.072-3.011l.375-.09.042-.449c.023-.247.142-.685.264-.974.122-.29.195-.526.163-.526-.17 0-3.293 1.056-4.823 1.63-4.364 1.639-7.693 3.327-11.394 5.779-3.45 2.284-5.593 4.41-7.218 7.157-.854 1.445-1.671 3.6-1.95 5.146-.064.356-.135.739-.158.851-.03.153.179-.033.83-.74a37.51 37.51 0 0 1 1.349-1.395zm44.544 1.165c.58-.292 1.321-1.468 1.625-2.58.073-.269.214-.58.314-.693.272-.308.915-1.444 1.141-2.017.263-.664.435-1.664.377-2.185a3.534 3.534 0 0 0-.227-.831c-.336-.78-.995-.94-1.935-.47l-.396.2.107-.185c.06-.1.351-.368.65-.593.496-.375.55-.444.641-.816.212-.86-.002-2.006-.532-2.859l-.26-.416.15-.483c.083-.266.175-.74.205-1.055.116-1.228-.137-2.022-.923-2.89-.566-.624-.916-.8-1.751-.88l-.516-.05.338.441c.502.655.847 1.27 1.074 1.91.173.492.202.693.205 1.443.004 1.037-.073 1.21-.697 1.55l-.399.216.022.689c.027.864-.051 1.185-.562 2.312-.241.532-.392.96-.365 1.037.077.224.638.575 1.143.716l.483.134-.272.1c-.364.133-.444.333-.446 1.106-.002.682.108 1.037.51 1.632.204.304.367.666.43.956.067.31-.103.389-1.043.485-.899.092-1.218.238-1.555.71-.184.257-.23.397-.23.71 0 .585.237 1.857.367 1.97.41.36 1.456.823 1.88.833.082.002.283-.064.447-.147zm-13.544-.945c.671-.597 1.332-1.381 1.394-1.654.024-.108-.015-.279-.096-.419-.193-.334-1.075-1.2-1.423-1.396-.339-.191-1.109-.407-1.46-.408-.185-.001-.298-.072-.48-.297-.823-1.028-1.485-2.252-2.192-4.06-.44-1.124-.898-1.859-1.647-2.642-.701-.733-.661-.747.384-.135.574.337.676.371.992.33 1.206-.154 2.308-1.746 2.636-3.808.08-.503.276-1.017.554-1.451.009-.014.21.137.448.336.777.652 1.786 1.347 2.217 1.528.558.233 1.269.19 2.56-.151 1.255-.332 2.206-.486 3.433-.554 1.656-.092 2.769.135 4.285.874.743.363 1.072.4 1.279.146.196-.24.195-1.546-.002-2.194-.197-.649-.521-1.336-.792-1.677-.295-.372-1.085-.964-1.903-1.426l-.902-.51c-.248-.142-.327-.148-.774-.064-.273.05-.796.19-1.16.308-.952.308-1.566.292-2.874-.078-1.352-.383-1.58-.418-1.96-.305-.51.153-1.806.226-2.658.152a5.563 5.563 0 0 1-1.51-.332c-.863-.314-1.686-.35-2.64-.115-1.596.392-2.844 1.593-2.961 2.847l-.04.428.395.326c.363.299.875 1.001.875 1.2 0 .045-.146-.066-.324-.247-.45-.46-.755-.62-1.187-.62-.401 0-.761.168-1.093.51-.29.298-.37.493-.677 1.648-.326 1.231-.533 1.73-1 2.406-.614.885-.64 1.42-.137 2.875.47 1.364 1.226 2.04 4.675 4.185.941.585 2.215 1.484 2.506 1.768.117.114.147.246.147.64 0 .62.214 1.012.85 1.559.261.225.44.44.44.532 0 .202.525.469.927.471.262.002.38-.067.895-.526zm11.092-3.368c.114-.115.304-.148.963-.166.903-.025 1.153-.064 1.153-.18 0-.042-.202-.343-.449-.67s-.496-.695-.554-.818a1.892 1.892 0 0 1-.073-1.288c.142-.447.144-.49.024-.49-.053 0-.225-.073-.384-.162-.16-.09-.311-.164-.338-.164-.082 0-.35 1.304-.429 2.083-.129 1.283-.169 1.997-.111 1.997.03 0 .12-.064.198-.142zm-2.415-.265a22.74 22.74 0 0 0 1.308-.13l.276-.048v-.952c.001-1.652.284-3.043.934-4.583.506-1.2.62-1.653.667-2.624l.04-.87-.36-.2c-.959-.532-2.039-.789-3.57-.849-1.42-.056-2.21.028-3.79.404-.8.191-1.287.262-1.768.26-.611-.005-.715-.03-1.339-.337-.801-.394-1.614-.975-1.942-1.389l-.236-.297-.134.196c-.103.15-.135.349-.137.85-.004.945-.323 2.084-.723 2.589-.1.125-.089.17.12.463.397.554 1.591 1.756 1.976 1.988.403.243 1.115.384 1.642.325l.331-.037-.21.247a2.47 2.47 0 0 1-.54.438l-.33.19.045.49c.025.269.098.81.161 1.204l.116.715.453.294c1.135.737 3.051 1.536 3.966 1.653.765.099 1.849.102 3.044.01zm-8.657-.678c0-.193.032-.386.071-.43.046-.051.006-.482-.114-1.22-.274-1.688-.27-1.675-.674-1.957a13.84 13.84 0 0 1-2.059-1.795l-.555-.606-.435.243c-.239.134-.434.271-.434.305 0 .035.054.148.12.253.067.105.295.737.509 1.404.447 1.4.773 2.096 1.475 3.144l.502.75.479.056c.263.031.547.088.63.125.084.038.228.07.319.074.147.005.166-.035.166-.346zm12.693-13.9c.463-.05.495-.065.453-.225-.093-.348-.51-.49-.851-.288-.125.074-.199.035-.482-.254-.303-.31-.364-.339-.64-.306-.3.035-.312.026-.643-.46-.46-.676-1.053-1.026-1.738-1.026-.442 0-.54.037-1.301.485-1.176.692-1.32.72-2.305.458-1.221-.324-2.39-.699-2.714-.87-.16-.085-.33-.154-.377-.154-.049 0-.278-.127-.51-.281-.434-.29-1.22-.535-1.71-.535-.281 0-.654.198-.96.51l-.163.166.182.24c.282.372.214.433-.126.11-.383-.363-1.043-.647-1.348-.581-.258.055-1.09.61-.923.615.446.014 1.21.208 1.765.448.9.39 1.77.504 2.803.37 1.648-.214 1.766-.208 3.058.17 1.51.442 2.17.468 3.168.128a6.32 6.32 0 0 1 1.204-.275c.5-.045.58-.03 1.068.216 1.105.554 1.603.843 1.907 1.109.338.294.417.31 1.183.23zm-5.731-1.929.59-.344-.013-1.374c-.007-.755-.03-1.393-.052-1.417-.021-.024-.198.111-.392.301-.195.19-.52.452-.722.58-.36.23-.393.236-1.452.236-1.545.001-1.672-.04-2.402-.784-.332-.338-.604-.581-.604-.54 0 .041-.036.373-.08.736l-.08.661.424.581c.233.32.542.648.688.728.65.361 2.647.977 3.174.979.25 0 .48-.085.921-.343zm-1.207-2.426c.499-.103.705-.27.996-.802.635-1.162 1.013-6.328.509-6.945-.381-.467-1.607-.781-2.803-.72-.918.048-1.571.247-1.915.584-.259.253-.262.263-.36 1.275-.094.961-.059 3 .057 3.345.023.068.088.481.146.92.132 1.006.504 1.938.852 2.138.441.252 1.77.36 2.518.205z" transform="matrix(.64266 0 0 .61079 57.308 14.55)"/></g></g></svg>