<svg width="199.157" height="203.851" viewBox="0 0 52.694 53.935" xml:space="preserve" xmlns:xlink="http://www.w3.org/1999/xlink" xmlns="http://www.w3.org/2000/svg"><defs><linearGradient id="f"><stop style="stop-color:#ebebff;stop-opacity:1" offset="0"/><stop style="stop-color:#ebebeb;stop-opacity:1" offset=".504"/><stop style="stop-color:#fff;stop-opacity:1" offset="1"/></linearGradient><linearGradient id="b"><stop style="stop-color:#e54c21;stop-opacity:1" offset=".483"/><stop style="stop-color:#f16524;stop-opacity:1" offset=".483"/><stop style="stop-color:#f16524;stop-opacity:1" offset=".997"/></linearGradient><linearGradient xlink:href="#b" id="g" x1="107.712" y1="151.47" x2="135.392" y2="151.47" gradientUnits="userSpaceOnUse" spreadMethod="repeat" gradientTransform="matrix(1.37632 0 0 1.26657 -46.016 -40.09)"/><linearGradient xlink:href="#f" id="h" x1="109.628" y1="148.294" x2="131.339" y2="148.294" gradientUnits="userSpaceOnUse"/><pattern xlink:href="#a" id="d"/><pattern patternUnits="userSpaceOnUse" width="76.627" height="78.427" patternTransform="translate(60.514 54.496)" id="a"><text xml:space="preserve" transform="matrix(9.22915 0 0 9.09913 178.959 -491.466)" style="white-space:pre;shape-inside:url(#c);display:inline;fill:#b81a1e;fill-opacity:1;stroke:none;stroke-width:.824875;stroke-linecap:round;stroke-linejoin:round;stroke-dasharray:none;stroke-dashoffset:0;stroke-opacity:1"><tspan x="-19.678" y="62.632"><tspan style="font-family:'Century Gothic';-inkscape-font-specification:'Century Gothic';fill:#fff">A</tspan></tspan></text></pattern><path id="e" d="M20.787 67.056h90.19v91.532h-90.19z"/><path id="c" d="M-19.678 51.683h18.492v29.161h-18.492z"/></defs><g transform="translate(-94.92 -124.194)" style="display:inline"><rect style="display:inline;fill:#ef662c;fill-opacity:1;stroke:none;stroke-width:.8;stroke-linecap:round;stroke-linejoin:round;stroke-dasharray:none;stroke-dashoffset:0;stroke-opacity:1" width="52.694" height="53.935" x="94.919" y="124.194" ry="12.065"/><path style="display:inline;fill:none;stroke:none;stroke-width:.264583" d="M107.923 135.086h25.156v25.504h-25.156z"/><g style="stroke-width:.889564"><path style="display:inline;fill:url(#g);fill-opacity:1;stroke:#e54c21;stroke-width:2.31287;stroke-linecap:round;stroke-linejoin:round;stroke-dasharray:none;stroke-dashoffset:0;stroke-opacity:1" d="m106.202 132.362 14.422-1.615 15.105 1.446-2.288 30.25-12.99 4.333-12.149-4.371z" transform="matrix(1.11986 0 0 1.12845 -14.499 -16.795)"/><path style="fill:url(#h);fill-opacity:1;fill-rule:evenodd;stroke:none;stroke-width:1.77913;stroke-linecap:square;stroke-linejoin:miter;stroke-dasharray:none;stroke-dashoffset:0;stroke-opacity:1" d="m131.339 136.18-.204 4.356h-16.743l.34 4.424 15.926.136-1.089 12.795-9.052 2.586-8.847-2.45-.476-6.67 4.22-.068.203 3.063 4.764 1.565 5.037-1.293.408-5.445-14.905-.068-1.293-12.999z" transform="matrix(1.11986 0 0 1.12845 -14.499 -16.795)"/></g></g></svg>