<svg width="199.157" height="203.851" viewBox="0 0 52.694 53.935" xml:space="preserve" xmlns:xlink="http://www.w3.org/1999/xlink" xmlns="http://www.w3.org/2000/svg"><defs><pattern xlink:href="#a" id="c"/><pattern patternUnits="userSpaceOnUse" width="76.627" height="78.427" patternTransform="translate(60.514 54.496)" id="a"><text xml:space="preserve" transform="matrix(9.22915 0 0 9.09913 178.959 -491.466)" style="white-space:pre;shape-inside:url(#b);display:inline;fill:#b81a1e;fill-opacity:1;stroke:none;stroke-width:.824875;stroke-linecap:round;stroke-linejoin:round;stroke-dasharray:none;stroke-dashoffset:0;stroke-opacity:1"><tspan x="-19.678" y="62.632"><tspan style="font-family:'Century Gothic';-inkscape-font-specification:'Century Gothic';fill:#fff">A</tspan></tspan></text></pattern><path id="d" d="M20.787 67.056h90.19v91.532h-90.19z"/><path id="b" d="M-19.678 51.683h18.492v29.161h-18.492z"/></defs><g transform="translate(-94.92 -124.194)" style="display:inline"><rect style="display:inline;fill:#0a599c;fill-opacity:1;stroke:none;stroke-width:.8;stroke-linecap:round;stroke-linejoin:round;stroke-dasharray:none;stroke-dashoffset:0;stroke-opacity:1" width="52.694" height="53.935" x="94.727" y="124.194" ry="12.065"/><path style="display:inline;fill:none;stroke:none;stroke-width:.264583" d="M107.923 135.086h25.156v25.504h-25.156z"/><g style="stroke-width:.776449"><path style="display:inline;fill:#5ec7ed;fill-opacity:1;stroke:none;stroke-width:.776445" d="M113.06 210.491a25.535 25.535 0 0 1-2.814-.355c-1.336-.264-3.577-1.227-5.182-2.227-.832-.519-2.155-1.533-2.947-2.26-.505-.463-1.62-1.63-1.85-1.934a88.868 88.868 0 0 0-.534-.697c-.714-.922-1.358-1.919-2.01-3.113-.232-.424-.85-1.84-1.107-2.537-1.541-4.17-1.62-8.688-.215-12.237.266-.673.637-1.441.95-1.963.187-.316 2.112-3.062 2.32-3.312.034-.04-.062.258-.213.663-1.105 2.972-1.312 6.12-.623 9.481.587 2.863 1.738 5.434 3.573 7.98.53.733 2.153 2.514 2.888 3.165 2.082 1.848 4.21 3.104 6.744 3.979 2.445.845 5.833 1.074 8.528.576 2.337-.431 4.676-1.536 6.304-2.977.55-.486 1.226-1.196 1.597-1.676.164-.213.307-.378.318-.367.01.012-.126.327-.302.7-1.315 2.787-3.417 5.226-5.821 6.755a14.954 14.954 0 0 1-6.147 2.233c-.52.07-.87.092-2.322.147-.242.01-.753 0-1.135-.024zm4.357-11.774c-1.708-.214-1.936-.269-3.036-.721-2.041-.84-3.809-2.117-5.382-3.888-.662-.745-.848-.995-1.378-1.856-1.148-1.863-1.837-3.703-2.12-5.66-.167-1.166-.135-2.934.074-4.062.222-1.193.749-2.622 1.298-3.521.307-.503 1.57-2.477 1.629-2.546.024-.028-.05.167-.162.433-.659 1.554-.971 3.616-.823 5.43.252 3.093 1.572 6.098 3.743 8.524 1.305 1.457 2.67 2.522 4.264 3.328 1.376.694 2.54 1.064 4.14 1.312.752.117 2.331.116 3.125-.003.671-.1 1.732-.382 2.338-.622.604-.24 1.57-.769 2.1-1.15.766-.551 1.725-1.514 2.23-2.236.285-.41.258-.291-.13.586a11.214 11.214 0 0 1-1.873 2.95c-1.758 1.997-3.892 3.17-6.561 3.606-.737.12-2.822.178-3.476.096zm4.472-10.254c-1.106-.063-1.813-.249-2.871-.754-1.335-.636-2.683-1.828-3.604-3.184-.681-1.002-1.24-2.388-1.436-3.56-.12-.716-.11-2.001.022-2.672.226-1.148.532-1.874 1.263-2.999.526-.808.555-.846.427-.565-.11.242-.347 1.048-.435 1.479-.103.509-.077 2.027.045 2.659.533 2.748 2.298 5.224 4.666 6.545 1.433.799 3.37 1.224 4.89 1.072 1.376-.137 2.404-.62 3.335-1.564.324-.328.339-.337.235-.146-1.114 2.043-2.652 3.238-4.62 3.592-.654.117-1.136.141-1.917.097z" transform="matrix(1.28666 0 0 1.28917 -23.472 -97.342)"/></g></g></svg>