<svg width="199.157" height="203.851" viewBox="0 0 52.694 53.935" xml:space="preserve" xmlns:xlink="http://www.w3.org/1999/xlink" xmlns="http://www.w3.org/2000/svg"><defs><pattern xlink:href="#a" id="c"/><pattern patternUnits="userSpaceOnUse" width="76.627" height="78.427" patternTransform="translate(60.514 54.496)" id="a"><text xml:space="preserve" transform="matrix(9.22915 0 0 9.09913 178.959 -491.466)" style="white-space:pre;shape-inside:url(#b);display:inline;fill:#b81a1e;fill-opacity:1;stroke:none;stroke-width:.824875;stroke-linecap:round;stroke-linejoin:round;stroke-dasharray:none;stroke-dashoffset:0;stroke-opacity:1"><tspan x="-19.678" y="62.632"><tspan style="font-family:'Century Gothic';-inkscape-font-specification:'Century Gothic';fill:#fff">A</tspan></tspan></text></pattern><path id="d" d="M20.787 67.056h90.19v91.532h-90.19z"/><path id="b" d="M-19.678 51.683h18.492v29.161h-18.492z"/></defs><g transform="translate(-94.92 -124.194)" style="display:inline"><rect style="display:inline;fill:#f7e018;fill-opacity:1;stroke:none;stroke-width:.8;stroke-linecap:round;stroke-linejoin:round;stroke-dasharray:none;stroke-dashoffset:0;stroke-opacity:1" width="52.694" height="53.935" x="94.919" y="124.194" ry="12.065"/><path style="display:inline;fill:none;stroke:none;stroke-width:.264583" d="M107.923 135.086h25.156v25.504h-25.156z"/><path style="fill:#030301;stroke:none;stroke-width:1" d="m138.286 157.252 3.44-2.042c-1.273-5.65-10.867-5.003-12.3.227-1.11 4.057 1.226 7.16 4.56 8.778 1.407.682 4.632 1.632 4.632 3.7 0 3.032-4.26 2.445-5.698 1.24-.514-.43-1.02-1.364-1.737-1.398-.85-.041-3.265 1.375-3 2.436.383 1.527 2.355 2.846 3.654 3.378 3.606 1.478 9.725 1.08 11.01-3.614 1.183-4.327-1.332-7.257-4.776-9.017-1.38-.705-3.51-1.226-4.26-2.784-.665-1.379.543-2.817 1.895-2.77 1.156.04 1.958.943 2.58 1.866m-17.198-5.672c0 5.2.804 11.222-.071 16.335-.623 3.64-3.745 1.966-5.089 0l-3.655 2.042c1.986 4.855 9.938 6.426 12.47 1.134.95-1.986.644-4.428.644-6.58v-12.93z"/></g></svg>