<?xml version="1.0" encoding="UTF-8" standalone="no"?>
<!-- Created with Inkscape (http://www.inkscape.org/) -->

<svg
   width="14.111111mm"
   height="14.111111mm"
   viewBox="0 0 14.111111 14.111111"
   version="1.1"
   id="svg5"
   xml:space="preserve"
   inkscape:version="1.2.1 (9c6d41e410, 2022-07-14)"
   sodipodi:docname="linkedin_ico.svg"
   xmlns:inkscape="http://www.inkscape.org/namespaces/inkscape"
   xmlns:sodipodi="http://sodipodi.sourceforge.net/DTD/sodipodi-0.dtd"
   xmlns="http://www.w3.org/2000/svg"
   xmlns:svg="http://www.w3.org/2000/svg"><sodipodi:namedview
     id="namedview7"
     pagecolor="#ffffff"
     bordercolor="#000000"
     borderopacity="0.25"
     inkscape:showpageshadow="2"
     inkscape:pageopacity="0.0"
     inkscape:pagecheckerboard="0"
     inkscape:deskcolor="#d1d1d1"
     inkscape:document-units="mm"
     showgrid="false"
     inkscape:zoom="4.2179991"
     inkscape:cx="-1.8966339"
     inkscape:cy="27.738271"
     inkscape:window-width="1920"
     inkscape:window-height="1017"
     inkscape:window-x="1912"
     inkscape:window-y="-8"
     inkscape:window-maximized="1"
     inkscape:current-layer="layer1" /><defs
     id="defs2" /><g
     inkscape:label="Capa 1"
     inkscape:groupmode="layer"
     id="layer1"
     transform="translate(-127.78316,-148.71864)"><path
       style="fill:#000000;stroke-width:1"
       id="path351"
       d="" /><path
       style="fill:#000000;stroke-width:1"
       id="path302"
       d="" /><g
       id="g293"
       transform="translate(0.18818164,-0.06272721)"><path
         d="m 132.10617,160.52606 v -6.3457 h -2.11008 v 6.3457 z m -1.05504,-7.2121 c 0.73582,0 1.1938,-0.48727 1.1938,-1.09623 -0.0137,-0.62267 -0.45798,-1.09643 -1.17984,-1.09643 -0.72179,0 -1.19373,0.47376 -1.19373,1.09643 0,0.60896 0.4579,1.09623 1.16602,1.09623 h 0.0137 z"
         style="fill:#26be9d;fill-opacity:1;fill-rule:evenodd;stroke:none;stroke-width:0.269565"
         id="path28"
         inkscape:connector-curvature="0" /><path
         d="m 133.27373,160.52606 h 2.11005 v -3.5437 c 0,-0.18965 0.0137,-0.37913 0.0694,-0.5147 0.15254,-0.37893 0.49973,-0.77138 1.08263,-0.77138 0.76353,0 1.06897,0.58191 1.06897,1.43499 v 3.39479 h 2.10989 v -3.63853 c 0,-1.94912 -1.041,-2.85608 -2.42926,-2.85608 -1.13832,0 -1.63804,0.63601 -1.9157,1.0692 h 0.0141 v -0.92029 h -2.11004 c 0.0277,0.59544 0,6.3457 0,6.3457 z"
         style="fill:#26be9d;fill-opacity:1;fill-rule:evenodd;stroke:none;stroke-width:0.269565"
         id="path30"
         inkscape:connector-curvature="0" /></g></g></svg>
