<svg width="199.157" height="203.851" viewBox="0 0 52.694 53.935" xml:space="preserve" xmlns:xlink="http://www.w3.org/1999/xlink" xmlns="http://www.w3.org/2000/svg"><defs><pattern xlink:href="#a" id="c"/><pattern patternUnits="userSpaceOnUse" width="76.627" height="78.427" patternTransform="translate(60.514 54.496)" id="a"><text xml:space="preserve" transform="matrix(9.22915 0 0 9.09913 178.959 -491.466)" style="white-space:pre;shape-inside:url(#b);display:inline;fill:#b81a1e;fill-opacity:1;stroke:none;stroke-width:.824875;stroke-linecap:round;stroke-linejoin:round;stroke-dasharray:none;stroke-dashoffset:0;stroke-opacity:1"><tspan x="-19.678" y="62.632"><tspan style="font-family:'Century Gothic';-inkscape-font-specification:'Century Gothic';fill:#fff">A</tspan></tspan></text></pattern><path id="d" d="M20.787 67.056h90.19v91.532h-90.19z"/><path id="b" d="M-19.678 51.683h18.492v29.161h-18.492z"/></defs><g transform="translate(-94.92 -124.194)" style="display:inline"><rect style="display:inline;fill:#353737;fill-opacity:1;stroke:none;stroke-width:.8;stroke-linecap:round;stroke-linejoin:round;stroke-dasharray:none;stroke-dashoffset:0;stroke-opacity:1" width="52.694" height="53.935" x="94.727" y="124.194" ry="12.065"/><path style="display:inline;fill:none;stroke:none;stroke-width:.264583" d="M107.923 135.086h25.156v25.504h-25.156z"/><g style="stroke-width:1.31181"><path style="fill:none;stroke-width:1.31181" d="M103.259 217.747v-31.031h19.22v.232c0 1.104-.611 2.072-2.009 3.183-.895.712-2.516 2.281-3.376 3.269-4.703 5.403-7.475 11.845-8.327 19.353-.235 2.07-.235 5.232 0 6.992.67 5.01 2.633 9.56 6 13.914 1.736 2.246 4.079 4.558 6.397 6.315.418.317.43.336.66 1.033.405 1.232.666 3.028.767 5.296l.045 1.004.728.228c.4.126.76.24.8.255.047.017.072-.916.072-2.713 0-3.105.053-3.58.504-4.472.296-.584.422-.714 1.396-1.436 2.356-1.745 5.344-5.107 6.919-7.783 2.161-3.675 3.338-7.069 3.854-11.117.142-1.116.163-1.59.16-3.658-.004-2.142-.023-2.525-.196-3.877-.197-1.54-.34-2.214-.853-4.01-.915-3.206-2.305-6.484-3.827-9.024-.67-1.118-.83-1.367-1.448-2.239-1.344-1.895-2.194-2.892-4.285-5.028-1.875-1.916-1.704-1.709-2.498-3.02-.359-.593-1.34-2.538-1.34-2.656 0-.023 4.018-.041 8.929-.041h8.928v62.062h-37.22z" transform="matrix(.77718 0 0 .74772 25.938 -11.23)"/><path style="fill:#c0bebd;stroke-width:1.31181" d="m123.4 247.554-.764-.248-.045-1.003c-.066-1.47-.173-2.533-.364-3.622-.163-.934-.539-2.232-.707-2.444-.071-.09-.065-.091.047-.006.181.137.229.062.437-.683.296-1.057.64-3.266.845-5.407l.091-.964.092.999c.185 2.016.575 3.677 1.067 4.547.254.448.634.87.901 1.003l.212.106-.153.22c-.312.45-.569 1.064-.694 1.666-.112.535-.13.995-.13 3.358 0 1.506-.016 2.736-.035 2.732-.02-.003-.38-.117-.8-.253zm3.955-9.418c.093-.095.185-.172.204-.172.02 0-.04.077-.132.172-.093.095-.185.172-.204.172-.02 0 .04-.077.132-.172zm-8.859-.396-.428-.43.448.41c.417.383.481.45.428.45-.01 0-.213-.193-.448-.43zm-.898-.861-.247-.258.269.237c.148.13.269.247.269.258 0 .053-.061.003-.291-.237zm11.478-.396c.093-.095.185-.172.205-.172.02 0-.04.077-.133.172-.093.095-.185.172-.204.172-.02 0 .04-.077.132-.172zm-12.377-.534-.137-.155.161.131c.152.124.194.179.137.179a.783.783 0 0 1-.161-.155zm20.057-14.832c.003-.08.02-.097.043-.042.02.05.018.11-.006.132-.024.023-.041-.018-.038-.09zm.292-2.716c0-.094.016-.133.036-.086.02.048.02.125 0 .173-.02.047-.036.009-.036-.087zm-28.477-.453c.003-.08.02-.097.044-.042.02.05.018.11-.006.132-.024.023-.041-.017-.038-.09zm28.48-2.956c0-.114.017-.152.035-.085a.375.375 0 0 1-.003.207c-.02.046-.034-.008-.033-.122zm-28.474-.172c0-.095.016-.134.036-.087.02.048.02.125 0 .173-.02.047-.036.009-.036-.086zm28.394-.798c.003-.08.02-.097.043-.042.02.05.018.11-.006.132-.024.023-.04-.018-.038-.09zm-28.113-2.204c.003-.08.02-.097.044-.042.02.05.018.109-.006.132-.024.023-.041-.018-.038-.09zm27.826-.207c.003-.08.02-.097.043-.042.02.05.018.11-.006.132-.024.023-.04-.018-.038-.09zm-27.754-.345c.003-.08.02-.096.043-.041.02.05.018.109-.006.132-.024.023-.04-.018-.037-.09zm19.994-16.13c-.09-.109-.087-.111.027-.025.12.09.157.146.098.146-.015 0-.071-.054-.125-.12zm-1.148-1.308c-.089-.11-.086-.112.027-.026.07.052.126.106.126.12 0 .057-.059.02-.153-.094zm-10.748-.388c0-.014.057-.068.126-.12.113-.086.116-.083.027.026-.094.114-.153.151-.153.094zm9.998-.404-.137-.155.161.131a.78.78 0 0 1 .162.155c0 .055-.058.014-.186-.131zm-9.46-.19c.071-.075.146-.137.166-.137.02 0-.023.062-.094.137-.072.076-.146.138-.166.138-.02 0 .023-.062.094-.138zm.789-.826c.071-.076.146-.138.166-.138.02 0-.023.062-.094.138-.072.076-.146.138-.166.138-.02 0 .023-.062.094-.138zm.61-.586c.214-.208.405-.379.425-.379.02 0-.14.17-.354.38-.214.208-.406.378-.425.378-.02 0 .14-.17.353-.379zm6.629.155-.211-.224.233.203c.217.188.266.245.21.245-.012 0-.117-.1-.232-.224zm-5.518-1.154c.071-.075.146-.137.166-.137.02 0-.023.062-.094.137-.072.076-.146.138-.166.138-.02 0 .023-.062.094-.138zm1.29-1.102c.072-.075.147-.137.167-.137.02 0-.023.062-.094.137-.072.076-.146.138-.166.138-.02 0 .023-.062.094-.138z" transform="matrix(.77718 0 0 .74772 25.938 -11.23)"/><path style="fill:#adcd9b;stroke-width:1.31181" d="M119.96 239.014c-.09-.109-.087-.111.026-.026.07.052.126.107.126.12 0 .058-.059.021-.153-.094zm-.677-.585-.211-.224.233.202c.217.189.266.246.21.246-.012 0-.116-.101-.232-.224zm7.498.198c0-.015.057-.069.126-.12.114-.087.116-.084.027.025-.094.115-.153.151-.153.095zm.79-.69c0-.013.056-.068.125-.12.114-.085.116-.083.027.026-.094.115-.153.152-.153.095zm-9.62-.714c-.089-.109-.086-.111.027-.026.07.052.126.107.126.12 0 .058-.059.021-.153-.094zm10.767-.387c0-.015.056-.069.125-.12.114-.087.117-.084.027.025-.093.115-.152.151-.152.095zm-11.77-.646c-.09-.11-.087-.112.026-.026.07.052.126.106.126.12 0 .057-.059.02-.153-.094zm-.574-.62c-.09-.109-.087-.111.027-.026.069.052.125.106.125.12 0 .057-.059.02-.152-.094zm-.43-.482c-.09-.11-.087-.112.026-.026.07.052.126.106.126.12 0 .057-.059.02-.153-.094zm-6.942-13.834c.003-.08.02-.096.043-.041.02.05.018.109-.006.132-.024.023-.04-.018-.038-.09zm-.072-.413c.003-.08.02-.097.043-.042.021.05.018.11-.006.132-.024.023-.04-.017-.037-.09zm-.287-2.204c.003-.08.02-.097.043-.042.021.05.019.11-.006.132-.023.023-.04-.018-.037-.09zm28.405-.511c0-.095.016-.134.036-.086.02.047.02.125 0 .172-.02.047-.036.009-.036-.086zm-28.46-.654c0-.228.014-.312.03-.189.016.124.015.31-.001.414-.016.103-.03.002-.03-.225zm0-2.101c0-.247.014-.347.03-.224.015.123.015.324 0 .448-.016.123-.03.022-.03-.224zm28.454-.11c.003-.08.02-.096.044-.041.02.05.018.11-.006.132-.024.023-.041-.018-.038-.09zm-28.393-1.2c0-.094.016-.133.036-.085.02.047.02.125 0 .172-.02.047-.036.009-.036-.086zm.281-2.588c.003-.08.02-.097.043-.042.021.05.018.11-.006.133-.024.022-.04-.018-.037-.09zm.072-.551c.003-.08.02-.097.043-.042.02.05.018.11-.006.132-.024.023-.04-.017-.038-.09zm8.241-17.688c0-.015.057-.069.126-.12.114-.087.116-.084.027.025-.094.115-.153.151-.153.095zm9.53-.44c-.09-.109-.087-.111.026-.025.07.052.126.106.126.12 0 .057-.059.02-.153-.094zm-8.92-.223c.071-.076.146-.138.166-.138.02 0-.023.062-.094.138-.072.076-.146.138-.166.138-.02 0 .022-.062.094-.138zm7.38-1.326-.137-.155.161.131c.152.123.194.179.137.179a.783.783 0 0 1-.161-.155zm-5.48-.491c0-.014.057-.069.126-.12.114-.086.116-.084.027.025-.094.115-.153.152-.153.095zm2.726-3.827c0-.074.027-.15.06-.17.035-.02.047.04.028.133-.04.203-.088.223-.088.037z" transform="matrix(.77718 0 0 .74772 25.938 -11.23)"/><path style="fill:#a7bb9a;stroke-width:1.31181" d="m124.626 239.428-.247-.259.269.238c.148.13.269.246.269.258 0 .053-.06.003-.29-.237zm-2.5-.54c.003-.08.02-.097.043-.042.02.05.018.11-.006.132-.024.023-.04-.017-.038-.09zm.071-.344c.003-.08.02-.097.044-.042.02.05.018.11-.006.132-.024.023-.041-.018-.038-.09zm.072-.414c.003-.08.02-.096.043-.041.021.05.018.109-.006.132-.024.023-.04-.018-.037-.09zm5.516-.399c0-.014.057-.068.126-.12.114-.086.116-.084.027.026-.094.114-.153.15-.153.094zm.359-.344c0-.015.056-.069.125-.12.114-.086.117-.084.028.025-.094.115-.153.151-.153.095zm.359-.345c0-.014.056-.068.125-.12.114-.086.116-.083.027.026-.094.115-.152.151-.152.094zm-5.087-.152c.003-.08.02-.096.044-.041.02.05.018.109-.006.132-.024.023-.041-.018-.038-.09zm-.783-1.13c0-.095.017-.134.036-.086.02.047.02.124 0 .172-.02.047-.036.009-.036-.086zm.568-.04c.003-.08.02-.097.044-.042.02.05.018.109-.006.132-.024.023-.041-.018-.038-.09zm-.49-.58c0-.133.014-.187.032-.12a.545.545 0 0 1 0 .24c-.018.067-.033.012-.033-.12zm.419.097c.003-.08.02-.096.043-.041.02.05.018.109-.006.132-.024.023-.04-.018-.038-.09zm-.064-.614c.001-.114.018-.152.036-.085a.375.375 0 0 1-.003.207c-.02.047-.035-.008-.033-.122zm-.065-.964c0-.19.014-.259.031-.154.016.104.016.26-.001.344-.017.085-.03 0-.03-.19zm14.041-15.78c.003-.08.02-.096.044-.041.02.05.018.109-.006.132-.024.022-.041-.018-.038-.09zm.006-2.37c0-.095.017-.134.037-.087.02.048.02.125 0 .173-.02.047-.037.009-.037-.087zm-9.558-21.957c-.09-.109-.087-.111.027-.026.12.09.157.147.098.147-.015 0-.071-.054-.125-.12zm-1-1.033-.174-.19.197.168c.184.156.23.212.174.212-.013 0-.102-.086-.198-.19z" transform="matrix(.77718 0 0 .74772 25.938 -11.23)"/><path style="fill:#89ba6d;stroke-width:1.31181" d="M121.583 240.238c-.026-.04.004-.05.067-.027.124.045.147.095.044.095-.037 0-.087-.03-.111-.068zm-1.37-1.052-.137-.154.161.13c.152.124.194.18.137.18a.783.783 0 0 1-.161-.156zm-.502-.413-.137-.155.161.131c.152.124.194.18.137.18a.783.783 0 0 1-.161-.156zm7.357-.422c0-.014.057-.068.126-.12.114-.086.116-.084.027.026-.094.114-.153.15-.153.094zm-8.25-.37-.248-.258.269.237c.148.13.269.247.269.258 0 .053-.06.003-.29-.237zm-1.47-1.412-.284-.293.305.273c.167.15.305.281.305.292 0 .052-.063 0-.327-.272zm5.142.017c0-.095.016-.133.036-.086.02.047.02.125 0 .172-.02.048-.036.01-.036-.086zm6.73-.301c0-.015.056-.069.125-.12.114-.087.117-.084.027.025-.093.115-.152.151-.152.095zm-6.656-.215c.001-.114.018-.152.036-.085a.375.375 0 0 1-.003.206c-.02.047-.035-.008-.033-.121zm-5.937-.259-.137-.155.162.132c.151.123.194.178.136.178a.783.783 0 0 1-.161-.155zm6.009-.361c0-.114.017-.152.036-.085a.375.375 0 0 1-.003.206c-.02.047-.035-.008-.033-.121zm.063-.626c.003-.08.02-.097.044-.042.02.05.018.11-.006.132-.024.023-.041-.017-.038-.09zm-7.258-.356c-.089-.11-.086-.112.027-.026.12.09.158.147.099.147-.015 0-.072-.055-.126-.12zm7.628-.224c0-.132.015-.187.033-.12a.545.545 0 0 1 0 .24c-.018.067-.033.013-.033-.12zm-.298-.04c.003-.08.02-.097.043-.042.021.05.019.11-.006.132-.023.023-.04-.017-.037-.09zm.072-.689c.003-.08.02-.096.043-.041.02.05.018.109-.006.132-.024.023-.04-.018-.038-.09zm.117-.45c-.022-.157-.012-.35.022-.43.044-.107.062-.027.066.283.005.496-.031.556-.088.147zm.175-3.574c0-.094.017-.133.036-.086.02.048.02.125 0 .172-.02.048-.036.01-.036-.086zm.08-1.17c0-.171.014-.24.031-.156a.943.943 0 0 1 0 .31c-.017.086-.03.016-.03-.155zm.075-1.447c0-.246.013-.347.03-.224.015.123.015.325 0 .448-.017.123-.03.022-.03-.224zm.072-1.86c0-.246.013-.347.029-.224.016.123.016.325 0 .448s-.029.022-.029-.224zm13.25-3.278c.003-.08.02-.096.043-.041.021.05.019.109-.006.132-.023.023-.04-.018-.037-.09zm-27.539-.206c.003-.08.02-.097.044-.042.02.05.018.11-.006.132-.024.023-.041-.018-.038-.09zm-.422-3.163c.001-.114.018-.152.036-.085a.375.375 0 0 1-.003.207c-.02.046-.034-.008-.033-.122zm28.415-1.653c0-.606.01-.845.024-.53.013.314.013.81 0 1.101-.013.292-.024.035-.024-.571zm-13.704.379c0-.247.013-.347.029-.224.016.123.016.324 0 .448-.016.123-.03.022-.03-.224zm-14.77-.655c0-.379.012-.525.027-.325.014.2.014.51 0 .69-.015.178-.027.014-.027-.365zm.06-2.066c0-.114.017-.152.035-.085a.375.375 0 0 1-.003.207c-.02.046-.034-.008-.033-.122zm14.648-2.962c0-1.743.01-2.446.021-1.562.011.883.011 2.309 0 3.168-.011.86-.02.137-.02-1.606zm-14.442.752c.003-.08.02-.097.043-.042.021.05.019.11-.006.132-.023.023-.04-.017-.037-.09zm.144-1.033c.003-.08.02-.097.043-.042.02.05.018.11-.006.132-.024.023-.04-.018-.038-.09zm.071-.483c.003-.08.02-.096.044-.041.02.05.018.109-.006.132-.024.023-.041-.018-.038-.09zm14.153-8.225c0-.739.01-1.041.023-.672.013.37.013.974 0 1.343-.013.37-.023.068-.023-.671zm-.08-4.58c0-.228.014-.313.03-.189s.015.31 0 .413c-.017.104-.03.002-.03-.225zm5.204-3.324c-.09-.11-.087-.112.027-.026.069.052.126.106.126.12 0 .057-.06.02-.153-.094zm-.464-.517-.137-.155.162.131c.151.124.194.18.136.18a.783.783 0 0 1-.16-.156zm-.612-.654c-.089-.11-.087-.112.027-.026.07.052.126.106.126.12 0 .057-.06.02-.153-.094zm-9.027-1.154c.134-.133.26-.241.28-.241.019 0-.074.108-.208.24-.134.134-.26.242-.28.242-.019 0 .074-.108.208-.241zm7.778-.12-.284-.293.305.272c.168.15.305.281.305.293 0 .052-.062 0-.326-.273zm-7.276-.354c0-.014.057-.068.126-.12.113-.086.116-.084.027.026-.094.114-.153.15-.153.094zm.681-.663c.155-.151.297-.275.316-.275.02 0-.09.124-.244.275-.154.152-.296.276-.316.276-.02 0 .09-.124.244-.276zm.753-.646c0-.014.057-.068.126-.12.114-.086.116-.083.027.026-.094.115-.152.151-.152.094zm1.005-.835c.092-.094.184-.172.204-.172.02 0-.04.078-.133.172-.092.095-.184.173-.204.173-.02 0 .04-.078.133-.173zm1.663-.55c.001-.114.017-.152.036-.085a.375.375 0 0 1-.003.206c-.02.047-.035-.008-.033-.122zm-.072-.758c.001-.114.018-.152.036-.085a.375.375 0 0 1-.003.207c-.02.046-.035-.008-.033-.122z" transform="matrix(.77718 0 0 .74772 25.938 -11.23)"/><path style="fill:#6fad4c;stroke-width:1.31181" d="m120.858 239.669-.137-.155.162.13a.78.78 0 0 1 .161.156c0 .055-.057.014-.186-.131zm1.124-.437c.003-.08.02-.096.043-.041.021.05.019.109-.006.132-.023.023-.04-.018-.037-.09zm-2.558-.734-.137-.155.162.13c.151.124.194.18.136.18a.783.783 0 0 1-.161-.155zm-1.322-1.206-.464-.465.484.446c.266.245.484.454.484.465 0 .05-.073-.014-.504-.446zm4.319-.396c0-.113.017-.152.035-.085a.375.375 0 0 1-.003.207c-.02.047-.034-.008-.033-.122zm6.584-.405c0-.014.056-.068.125-.12.114-.086.116-.083.027.026-.093.115-.152.151-.152.094zm-6.52-.152c.002-.08.02-.096.042-.041.021.05.019.109-.006.132-.023.023-.04-.018-.037-.09zm-5.534-.218-.174-.19.197.168c.185.156.23.212.174.212-.013 0-.101-.086-.197-.19zm12.663-.292c.072-.076.146-.138.166-.138.02 0-.023.062-.094.138-.071.075-.146.137-.166.137-.02 0 .023-.062.094-.137zm-13.274-.362-.137-.155.162.131c.151.123.194.179.136.179a.783.783 0 0 1-.161-.155zm6.867-.052c0-.095.016-.133.036-.086.02.047.02.125 0 .172-.02.048-.036.01-.036-.086zm-7.297-.43-.137-.155.161.13c.152.124.194.18.137.18a.783.783 0 0 1-.161-.155zm7.232-.224c0-.152.016-.206.033-.12a.732.732 0 0 1-.001.276c-.018.065-.032-.004-.032-.156zm7.44-.06c0-.015.057-.07.126-.121.114-.086.116-.083.027.026-.094.115-.153.151-.153.094zm-15.5-.715c-.089-.11-.086-.112.028-.026.12.09.157.146.098.146-.015 0-.071-.054-.125-.12zm7.987-.155c0-.133.015-.187.033-.12a.545.545 0 0 1 0 .24c-.018.067-.033.012-.033-.12zm-.215-.62c0-.133.015-.187.033-.12a.545.545 0 0 1 0 .24c-.018.067-.033.013-.033-.12zm.06-.805c-.003-.197.027-.377.067-.4.087-.053.087.423 0 .62-.046.1-.063.043-.067-.22zm.067-.948c0-.172.032-.314.071-.314.04 0 .072.123.072.272 0 .15-.032.29-.072.314-.044.026-.071-.08-.071-.272zm.082-.933c.002-.343.008-.359.068-.162a.6.6 0 0 1-.002.379c-.054.13-.067.087-.066-.217zm.075-.724c0-.113.017-.152.036-.085a.375.375 0 0 1-.003.207c-.02.047-.035-.008-.033-.122zm-.003-.585c0-.095.016-.134.036-.086.02.047.02.125 0 .172-.02.047-.036.009-.036-.086zm.072-.482c0-.095.016-.134.036-.086.02.047.02.124 0 .172-.02.047-.036.009-.036-.086zm-.006-.798c.003-.08.02-.097.043-.042.02.05.018.11-.006.132-.024.023-.04-.018-.038-.09zm.077-.511c0-.095.016-.134.036-.086.02.047.02.125 0 .172-.02.047-.036.009-.036-.086zm0-1.102c0-.095.016-.134.036-.086.02.047.02.124 0 .172-.02.047-.036.009-.036-.086zm.079-.655c0-.151.015-.205.032-.12a.732.732 0 0 1 0 .276c-.019.066-.033-.004-.032-.156zm.003-1.412c0-.208.013-.293.03-.19.016.105.016.276 0 .38-.017.104-.03.019-.03-.19zm.082-3.237c0-1.156.01-1.628.021-1.05.012.577.012 1.523 0 2.1-.012.578-.021.105-.021-1.05zm13.097.993c.003-.08.02-.097.044-.042.02.05.018.11-.006.132-.024.023-.041-.017-.038-.09zm-27.395-.276c.003-.08.02-.096.043-.041.021.05.019.109-.006.132-.023.023-.04-.018-.037-.09zm27.84-3.162c.001-.19.015-.26.032-.154.016.104.016.26-.001.344-.017.085-.031-.001-.03-.19zm-28.325-.793c0-.246.013-.347.03-.223.015.123.015.324 0 .447-.017.123-.03.023-.03-.224zm14.7.07c0-.21.014-.294.03-.19.017.104.017.275 0 .379-.016.104-.03.019-.03-.19zm-.002-1.413c0-.151.015-.205.032-.12a.732.732 0 0 1 0 .276c-.019.066-.033-.004-.032-.156zm-.066-1.377c0-.303.013-.419.028-.257.016.162.015.41 0 .551-.016.141-.028.01-.028-.294zm-14.631-.104c0-.246.013-.347.029-.224.016.124.016.325 0 .448s-.03.023-.03-.224zm28.326-.137c0-.209.013-.294.03-.19.016.104.016.275 0 .379-.017.104-.03.019-.03-.19zm-.446-3.691c.003-.08.02-.097.043-.042.02.05.018.11-.006.132-.024.023-.04-.018-.038-.09zm-27.467-.276c.003-.08.02-.097.043-.042.02.05.018.11-.006.133-.024.022-.04-.018-.038-.09zm.077-.51c0-.095.016-.134.036-.087.02.048.02.125 0 .172-.02.048-.036.01-.036-.086zm14.145-2.997c0-.53.012-.738.025-.462.014.276.014.71 0 .964s-.025.028-.025-.502zm-.073-2.928c0-.397.011-.56.026-.361.014.199.014.524 0 .723-.015.199-.026.036-.026-.362zm-.002-3.823c0-.303.013-.418.028-.256.015.162.015.41 0 .551-.016.141-.029.009-.028-.295zm-.072-1.825c0-.322.013-.454.028-.293a3.79 3.79 0 0 1 0 .586c-.015.16-.028.03-.028-.293zm0-1.825c0-.303.013-.419.028-.257.015.162.015.41 0 .551-.016.141-.028.01-.028-.294zm-.078-2.032c0-.887.007-.946.063-.527.036.272.036.697 0 .999-.058.489-.063.455-.063-.472zm5.064-.603c-.089-.11-.086-.112.027-.026.12.09.158.147.099.147-.015 0-.072-.055-.126-.121zm-5.153-1.485c0-.433.025-.66.07-.633.093.054.093 1.069 0 1.205-.047.07-.07-.11-.07-.572zm3.94.176-.248-.258.27.237c.147.13.268.247.268.259 0 .052-.06.003-.29-.238zm-9.105-.327c.134-.133.26-.241.28-.241.02 0-.074.108-.208.241s-.26.241-.279.241c-.02 0 .074-.108.207-.24zm.718-.75c0-.014.056-.068.125-.12.114-.085.116-.083.027.026-.094.115-.152.151-.152.095zm6.917-.404-.284-.292.305.272c.168.15.305.281.305.293 0 .052-.063 0-.326-.273zm-2.5.115c-.07-.177-.049-.843.029-.89.045-.027.072.149.072.478 0 .526-.02.61-.1.412zm-3.987-.123c0-.015.056-.07.125-.121.114-.086.117-.083.027.026-.093.115-.152.151-.152.094zm.789-.69c0-.014.056-.068.125-.12.114-.086.117-.083.027.026-.093.115-.152.151-.152.095zm3.172-.593c0-.133.015-.187.033-.12a.545.545 0 0 1 0 .24c-.018.067-.033.012-.033-.12zm-2.097-.302c0-.014.057-.068.126-.12.114-.086.116-.084.027.026-.094.114-.152.15-.152.094zm2.097-.18c0-.133.015-.187.033-.121a.545.545 0 0 1 0 .241c-.018.066-.033.012-.033-.12zm-1.523-.37c0-.015.057-.07.126-.121.113-.086.116-.084.027.026-.094.114-.153.15-.153.094zm1.44-.084c.003-.08.02-.097.043-.042.021.05.019.11-.006.132-.023.023-.04-.017-.037-.09zm0-.551c.003-.08.02-.097.043-.042.021.05.019.11-.006.132-.023.023-.04-.017-.037-.09zm-.236-1.579c-.043-.33-.031-.36.065-.155a.44.44 0 0 1 .022.293c-.04.107-.059.077-.087-.138z" transform="matrix(.77718 0 0 .74772 25.938 -11.23)"/><path style="fill:#67b03e;stroke-width:1.31181" d="M121.121 239.84c-1.526-1.136-3.469-2.952-4.955-4.633-.902-1.02-.927-1.052-1.63-1.986-1.792-2.381-3.077-4.67-4.125-7.346-.759-1.939-1.34-4.26-1.623-6.475-.118-.927-.161-3.297-.087-4.821.067-1.392.37-3.812.624-4.994l.25-1.171c.331-1.566 1.089-3.959 1.766-5.58a34.604 34.604 0 0 1 3.896-6.982l.5-.692c.254-.353 1.563-1.9 1.929-2.28.702-.727 2.476-2.402 2.807-2.65.527-.394 1.24-1.111 1.54-1.547.212-.307.32-.57.433-1.06l.15-.65.083.556c.045.306.117 1.046.16 1.645.044.6.105 1.187.138 1.308.034.13.03.245-.012.285-.077.074-.039.71.07 1.165.038.16.041.274.007.254-.033-.02-.06.267-.06.64 0 .37.026.636.058.589.03-.047.055.495.052 1.205-.002.71.015 2.175.038 3.255.064 3.038.118 7.825.148 13.225.015 2.709.049 5.56.075 6.337.117 3.402.025 8.525-.218 12.158-.02.303-.036.775-.035 1.05 0 .28-.03.5-.069.5-.042 0-.055.164-.031.413.021.227.014.428-.017.446-.03.018-.078.444-.106.947-.029.503-.131 1.519-.228 2.258-.098.738-.206 1.59-.242 1.894a12.8 12.8 0 0 1-.135.895c-.301 1.446-.515 2.239-.603 2.239-.009 0-.255-.178-.547-.396zm2.014-9.522c0-.095.017-.133.036-.086.02.047.02.125 0 .172-.02.047-.036.01-.036-.086zm.008-34.854c0-.17.014-.24.031-.155a.943.943 0 0 1 0 .31c-.017.085-.03.015-.03-.155zm-.008-1.033c0-.095.017-.134.036-.086.02.047.02.124 0 .172-.02.047-.036.009-.036-.086z" transform="matrix(.77718 0 0 .74772 25.938 -11.23)"/><path style="fill:#589535;stroke-width:1.31181" d="M124.93 239.592c-1.108-.785-1.81-3.348-1.833-6.691-.008-1.203.035-2.37.172-4.58.168-2.733.235-7.304.152-10.424a283.37 283.37 0 0 1-.083-6.28c0-2.838-.098-11.832-.178-16.188-.016-.909-.03-1.87-.03-2.135 0-1.186-.236-4.769-.367-5.575-.08-.495-.04-.566.117-.204.064.148.304.632.534 1.077.392.758.593 1.087 1.194 1.957.135.195.779.893 1.431 1.55 1.713 1.725 3.164 3.353 3.973 4.458a55.208 55.208 0 0 1 1.794 2.626c.51.816 1.626 2.887 1.949 3.617 2.054 4.637 2.999 8.103 3.219 11.813.19 3.19-.087 6.405-.785 9.127-.34 1.33-.915 3.028-1.343 3.97a3.627 3.627 0 0 0-.176.428c0 .023-.13.314-.29.646-1.78 3.697-4.449 7.156-7.477 9.688-.608.508-1.64 1.283-1.71 1.283-.018 0-.136-.073-.262-.163z" transform="matrix(.77718 0 0 .74772 25.938 -11.23)"/></g></g></svg>