<svg width="199.157" height="203.851" viewBox="0 0 52.694 53.935" xml:space="preserve" xmlns:xlink="http://www.w3.org/1999/xlink" xmlns="http://www.w3.org/2000/svg"><defs><pattern xlink:href="#a" id="c"/><pattern patternUnits="userSpaceOnUse" width="76.627" height="78.427" patternTransform="translate(60.514 54.496)" id="a"><text xml:space="preserve" transform="matrix(9.22915 0 0 9.09913 178.959 -491.466)" style="white-space:pre;shape-inside:url(#b);display:inline;fill:#b81a1e;fill-opacity:1;stroke:none;stroke-width:.824875;stroke-linecap:round;stroke-linejoin:round;stroke-dasharray:none;stroke-dashoffset:0;stroke-opacity:1"><tspan x="-19.678" y="62.632"><tspan style="font-family:'Century Gothic';-inkscape-font-specification:'Century Gothic';fill:#fff">A</tspan></tspan></text></pattern><path id="d" d="M20.787 67.056h90.19v91.532h-90.19z"/><path id="b" d="M-19.678 51.683h18.492v29.161h-18.492z"/></defs><g transform="translate(-94.92 -124.194)" style="display:inline"><rect style="display:inline;fill:#000;fill-opacity:1;stroke:none;stroke-width:.8;stroke-linecap:round;stroke-linejoin:round;stroke-dasharray:none;stroke-dashoffset:0;stroke-opacity:1" width="52.694" height="53.935" x="94.919" y="124.194" ry="12.065"/><path style="display:inline;fill:none;stroke:none;stroke-width:.264583" d="M107.923 135.086h25.156v25.504h-25.156z"/><path style="fill:#8bc74b;stroke:none;stroke-width:.999997" d="M120.571 128.943c-.817.118-1.501.575-2.205.998-.849.511-1.702 1.013-2.553 1.52-3.207 1.912-6.426 3.802-9.624 5.732-1.487.898-3.678 1.68-4.178 3.601-.176.68-.132 1.377-.132 2.075v16.82c0 .756-.059 1.55.262 2.251.603 1.318 1.728 1.84 2.877 2.529 2.302 1.38 4.788 3.148 7.573 2.475 1.54-.372 2.756-1.367 3.204-3.017.486-1.79.215-3.856.228-5.695.011-1.766-.012-3.532 0-5.298.008-1.261.085-2.536.003-3.796-.1-1.533 0-3.143.037-4.68.009-.388.107-1.396-.334-1.525-.556-.163-1.27-.02-1.841-.02-.225 0-.512-.047-.678.15-.254.301-.117 1.06-.117 1.44V159.6c0 1.376.343 3.213-.92 4.101-1.538 1.08-3.364-.438-4.687-1.197-.804-.462-1.864-.91-2.548-1.552-.433-.406-.214-1.626-.214-2.19V142.648c0-.311-.066-.723.052-1.015.143-.358.61-.532.91-.713.793-.477 1.592-.942 2.386-1.418 3.104-1.862 6.23-3.681 9.33-5.55.877-.529 1.761-1.041 2.637-1.57.29-.176.742-.577 1.095-.499.411.092.842.465 1.206.682.794.473 1.586.954 2.385 1.417 2.863 1.66 5.675 3.416 8.536 5.077.98.57 1.957 1.15 2.929 1.735.334.202.91.411 1.085.795.152.333.08.824.06 1.178a20.817 20.817 0 0 0 0 1.751c.074 2.565-.019 5.138-.004 7.704a416.84 416.84 0 0 1-.006 6.492c-.006.608.255 1.908-.257 2.308-1.153.9-2.591 1.571-3.849 2.3-2.3 1.333-4.582 2.713-6.862 4.085-1.183.713-2.374 1.408-3.557 2.12-.493.297-1.116.83-1.674.953-.384.085-.936-.417-1.255-.612-.74-.453-1.474-.917-2.217-1.363-.32-.191-.683-.51-1.047-.588-.472-.1-1.163.515-1.59.708-.307.138-1.245.296-1.373.648-.066.182.17.33.286.414.373.266.784.477 1.171.72 1.052.661 2.117 1.304 3.18 1.945.657.396 1.296.871 2.05 1.03 1.465.31 2.59-.497 3.808-1.226 1.951-1.165 3.907-2.322 5.858-3.487 2.228-1.331 4.45-2.678 6.695-3.978 1.195-.693 2.584-1.302 3.211-2.663.335-.726.304-1.51.304-2.295V145.12c0-1.775.373-3.976-.707-5.474-.748-1.038-2.174-1.589-3.226-2.22-2.27-1.362-4.555-2.697-6.82-4.068a339.6 339.6 0 0 0-5.482-3.261c-1.093-.633-2.093-1.343-3.401-1.155m4.447 13.46c-1.314.181-2.543.168-3.808.696-.942.394-1.858 1.026-2.423 1.933-1.178 1.89-.96 4.852.917 6.15 2.671 1.848 6.236 1.254 9.205 2.124 1.243.365 2.105 1.145 1.603 2.586-.32.918-1.35 1.336-2.189 1.51-.966.2-1.95.19-2.93.169-1.298-.028-2.714-.092-3.806-.935-.477-.368-.76-.952-.92-1.538-.087-.312-.075-.822-.34-1.029-.175-.136-.373-.08-.574-.095-.456-.034-.911-.015-1.368-.009-.197.002-.427-.04-.605.07-.406.253-.249 1.055-.176 1.46.243 1.365.851 2.542 1.932 3.366 1.366 1.042 3.048 1.376 4.687 1.542 1.645.165 3.363.136 4.98-.268 1.237-.31 2.54-.85 3.423-1.86 1.486-1.699 1.786-5.063-.035-6.644-.746-.649-1.635-.963-2.552-1.231-1.914-.562-3.91-.654-5.858-1.024-1.218-.232-3.223-.437-2.91-2.225.165-.937 1.016-1.424 1.822-1.638 1.34-.355 2.957-.333 4.31-.066.546.108 1.138.273 1.59.63.478.378.808.888 1.027 1.472.115.307.12.78.398.983.175.128.42.119.625.12.52.003 1.461.188 1.923-.094.314-.192.216-.695.175-1.01a6.032 6.032 0 0 0-1.03-2.692c-1.288-1.827-3.791-2.405-5.838-2.428-.42-.005-.834-.084-1.255-.026z"/></g></svg>