<svg width="199.157" height="203.851" viewBox="0 0 52.694 53.935" xml:space="preserve" xmlns:xlink="http://www.w3.org/1999/xlink" xmlns="http://www.w3.org/2000/svg"><defs><pattern xlink:href="#a" id="c"/><pattern patternUnits="userSpaceOnUse" width="76.627" height="78.427" patternTransform="translate(60.514 54.496)" id="a"><text xml:space="preserve" transform="matrix(9.22915 0 0 9.09913 178.959 -491.466)" style="white-space:pre;shape-inside:url(#b);display:inline;fill:#b81a1e;fill-opacity:1;stroke:none;stroke-width:.824875;stroke-linecap:round;stroke-linejoin:round;stroke-dasharray:none;stroke-dashoffset:0;stroke-opacity:1"><tspan x="-19.678" y="62.632"><tspan style="font-family:'Century Gothic';-inkscape-font-specification:'Century Gothic';fill:#fff">A</tspan></tspan></text></pattern><path id="d" d="M20.787 67.056h90.19v91.532h-90.19z"/><path id="b" d="M-19.678 51.683h18.492v29.161h-18.492z"/></defs><g transform="translate(-94.92 -124.194)" style="display:inline"><rect style="display:inline;opacity:1;fill:#000;fill-opacity:1;stroke:none;stroke-width:.8;stroke-linecap:round;stroke-linejoin:round;stroke-dasharray:none;stroke-dashoffset:0;stroke-opacity:1" width="52.694" height="53.935" x="94.919" y="124.194" ry="12.065"/><g style="stroke-width:3.17786"><g style="stroke-width:3.17786"><path style="fill:#fefefe;stroke-width:3.17786" d="M112.268 211.395v-19.844h31.75v31.75h-15.875V231.24h-15.875zm23.813-3.969v-7.937H128.143v15.875h7.938zm-63.5 0v-15.875h31.75v31.75H96.393V199.49H88.456V223.3H72.58zm79.375 0v-15.875h47.625v31.75H191.643V199.49H183.706V223.3H175.768V199.49H167.831V223.3h-15.875z" transform="matrix(.32037 0 0 .30908 77.617 85.902)"/></g><g style="stroke-width:3.17786"><path style="fill:#ca3736;stroke-width:3.17786" d="M104.33 235.208v-3.97H64.644v-47.624h142.875v47.625H136.081V239.176h-31.75zm23.813-7.938v-3.969h15.875v-31.75h-31.75v39.688h15.875zm0-19.844v-7.937h7.938v15.875H128.143zm-39.687 3.97v-11.907H96.394V223.3H104.33v-31.75H72.58v31.75h15.875zm79.375 0v-11.907H175.769V223.3H183.705V199.49H191.644V223.3H199.58v-31.75h-47.625v31.75h15.875z" transform="matrix(.32037 0 0 .30908 77.617 85.902)"/></g></g></g></svg>