<?xml version="1.0" encoding="UTF-8" standalone="no"?>
<svg
   width="503.126"
   height="501.444"
   viewBox="0 0 133.119 132.674"
   xml:space="preserve"
   version="1.1"
   id="svg8"
   sodipodi:docname="pcLogo2.svg"
   inkscape:version="1.2.1 (9c6d41e410, 2022-07-14)"
   xmlns:inkscape="http://www.inkscape.org/namespaces/inkscape"
   xmlns:sodipodi="http://sodipodi.sourceforge.net/DTD/sodipodi-0.dtd"
   xmlns="http://www.w3.org/2000/svg"
   xmlns:svg="http://www.w3.org/2000/svg"><defs
     id="defs12" /><sodipodi:namedview
     id="namedview10"
     pagecolor="#ffffff"
     bordercolor="#000000"
     borderopacity="0.25"
     inkscape:showpageshadow="2"
     inkscape:pageopacity="0.0"
     inkscape:pagecheckerboard="0"
     inkscape:deskcolor="#d1d1d1"
     showgrid="false"
     inkscape:zoom="1.1802881"
     inkscape:cx="167.75566"
     inkscape:cy="197.40943"
     inkscape:window-width="1920"
     inkscape:window-height="1017"
     inkscape:window-x="1912"
     inkscape:window-y="-8"
     inkscape:window-maximized="1"
     inkscape:current-layer="svg8" /><path
     style="fill:#ff6d4a;fill-opacity:1;fill-rule:evenodd;stroke:none;stroke-width:1.7;stroke-linecap:square;paint-order:fill markers stroke"
     d="M37.936.794v132.443l133.118-.23-.249-132.22z"
     transform="translate(-37.936 -.564)"
     id="path2" /><path
     style="fill:#1cbe9d;fill-opacity:1;fill-rule:evenodd;stroke:none;stroke-width:1.7;stroke-linecap:square;paint-order:fill markers stroke"
     d="m56.44 27.909.03 64.02 97.794-.047.044-64.018z"
     transform="translate(-37.936 -.564)"
     id="path4" /><path
     style="fill:#fff;stroke-width:1"
     d="M43.64 101.505c-.953-.384-1.333-1.328-1.505-3.74-.138-1.939-.099-2.311.255-2.447.23-.089 2.853-.16 5.83-.16 5.268 0 5.404-.014 5.138-.512-.185-.345-.274-11.342-.274-33.743 0-36.091-.072-34.347 1.458-35.551l.73-.574h49.863c45.685 0 49.925.036 50.596.433 1.713 1.012 1.599-1.54 1.599 35.605 0 25.863-.074 33.78-.318 34.024-.247.247.955.317 5.408.317 3.986 0 5.783.092 5.912.3.33.534.098 4.248-.315 5.046-.217.42-.694.876-1.06 1.016-.859.326-122.506.312-123.317-.014zm110.99-2.167c.706-.705.035-2.064-1.017-2.064-.762 0-1.422 1.149-1.055 1.834.328.614 1.553.75 2.073.23zm4.275-.065c.522-.629.224-1.564-.589-1.848-.608-.213-.831-.16-1.304.314-.49.49-.528.667-.265 1.244.351.77 1.618.94 2.158.29zm4.242-.011c.83-1-.72-2.55-1.72-1.72-.398.33-.542 1.612-.217 1.937.325.325 1.607.18 1.937-.217zM55.134 98.53c-.081-.245-1.13-.33-4.035-.33-2.904 0-3.953.085-4.035.33-.085.255.837.33 4.035.33 3.199 0 4.12-.075 4.035-.33zm65.58-2.514c.44-.44-.285-.466-15.238-.531-8.634-.038-15.757-.01-15.827.06-.07.07.022.31.206.531.293.353 2.222.403 15.365.403 13.962 0 15.063-.033 15.493-.463zm33.176-36.05v-31.75H56.788v63.5h97.102zm-63.83 8.65-6.55-2.94v-2.532l6.613-3.308c3.637-1.82 6.733-3.309 6.88-3.309.154 0 .266.816.266 1.948v1.947l-2.183 1.003a5858.1 5858.1 0 0 1-4.162 1.91l-1.98.907 4.097 1.67 4.096 1.67.077 2.014c.058 1.519-.007 2.006-.264 1.986-.189-.015-3.29-1.35-6.89-2.966zm23.139 1.002.077-2.056 4.101-1.663 4.101-1.663-1.455-.653c-.8-.358-2.646-1.194-4.1-1.857l-2.647-1.204-.077-1.998c-.049-1.267.024-1.997.2-1.997.153 0 3.254 1.489 6.89 3.309l6.613 3.308V64.4l-.002 1.255-6.414 2.836c-3.529 1.56-6.63 2.914-6.89 3.01-.435.158-.468 0-.397-1.883zM88.14 26.366c0-.485-.16-.684-.597-.747-.357-.05-.66.082-.755.331-.264.687.105 1.254.755 1.162.438-.062.597-.261.597-.746z"
     transform="translate(-37.936 -.564)"
     id="path6" /></svg>
