<svg width="199.157" height="203.851" viewBox="0 0 52.694 53.935" xml:space="preserve" xmlns:xlink="http://www.w3.org/1999/xlink" xmlns="http://www.w3.org/2000/svg"><defs><pattern xlink:href="#a" id="c"/><pattern patternUnits="userSpaceOnUse" width="76.627" height="78.427" patternTransform="translate(60.514 54.496)" id="a"><text xml:space="preserve" transform="matrix(9.22915 0 0 9.09913 178.959 -491.466)" style="white-space:pre;shape-inside:url(#b);display:inline;fill:#b81a1e;fill-opacity:1;stroke:none;stroke-width:.824875;stroke-linecap:round;stroke-linejoin:round;stroke-dasharray:none;stroke-dashoffset:0;stroke-opacity:1"><tspan x="-19.678" y="62.632"><tspan style="font-family:'Century Gothic';-inkscape-font-specification:'Century Gothic';fill:#fff">A</tspan></tspan></text></pattern><path id="d" d="M20.787 67.056h90.19v91.532h-90.19z"/><path id="b" d="M-19.678 51.683h18.492v29.161h-18.492z"/></defs><g transform="translate(-94.92 -124.194)" style="display:inline"><rect style="display:inline;fill:#fff;fill-opacity:1;stroke:none;stroke-width:.8;stroke-linecap:round;stroke-linejoin:round;stroke-dasharray:none;stroke-dashoffset:0;stroke-opacity:1" width="52.694" height="53.935" x="94.727" y="124.194" ry="12.065"/><path style="display:inline;fill:none;stroke:none;stroke-width:.264583" d="M107.923 135.086h25.156v25.504h-25.156z"/><path style="fill:#767675;fill-opacity:1;stroke-width:.999997" d="M118.984 162.315c-16.043-25.414-8.022-12.707 0 0zm-2.212-1.739c-14.568-24.255-7.284-12.127 0 0z"/><path style="fill:#d0d0d0;fill-opacity:1;stroke-width:1" d="M122.194 221.783c.093-.037.204-.033.246.01.043.042-.033.072-.168.067-.15-.006-.18-.037-.078-.077zm3.216 0c.092-.037.203-.033.246.01.043.042-.033.072-.169.067-.15-.006-.18-.037-.077-.077zm-9.905-7.009c.093-.037.204-.032.246.01.043.043-.033.073-.168.067-.15-.006-.18-.036-.078-.077zm-3.424-.741c.003-.21.031-.281.064-.157a.72.72 0 0 1-.005.382c-.035.087-.062-.015-.06-.225zm6.278-.637c.166-.175.331-.319.366-.319.036 0-.071.144-.237.319-.167.175-.331.318-.367.318-.035 0 .072-.143.238-.318zm9.583-1.21c.128-.141.262-.256.297-.256.036 0-.04.115-.168.255s-.262.255-.297.255c-.036 0 .04-.115.168-.255zm-12.156-1.06c0-.022.188-.208.418-.414l.418-.375-.377.415c-.353.386-.459.472-.459.374zm5.938-.725c0-.175.029-.247.065-.16a.487.487 0 0 1 0 .32c-.036.087-.065.015-.065-.16zm-1.786-.637c0-.315.025-.444.055-.287.031.158.031.416 0 .574-.03.157-.055.028-.055-.287zm1.776-.202c.006-.148.036-.178.077-.077.037.092.033.202-.01.244-.043.043-.073-.032-.067-.167zm6.473-1.996-.245-.287.29.243c.271.228.347.33.245.33-.025 0-.155-.128-.29-.286zm-5.607-.183c.093-.037.204-.032.246.01.043.043-.033.073-.169.067-.15-.006-.18-.036-.077-.077zm1.286 0c.093-.037.204-.032.247.01.042.043-.034.073-.17.067-.15-.006-.18-.036-.077-.077zm-.844-1.402c.124-.032.326-.032.45 0s.023.058-.225.058-.349-.026-.225-.058zm1.222.003a.501.501 0 0 1 .321 0c.089.035.017.064-.16.064s-.25-.029-.161-.064zm-20.925-2.921c.006-.149.037-.179.078-.077.037.092.032.202-.01.244-.043.042-.073-.033-.068-.167zm41.034 0c.006-.149.037-.179.078-.077.037.092.032.202-.01.244-.043.042-.074-.033-.068-.167zm-32.056-1.04c-.16-.203-.156-.207.048-.049.124.096.226.197.226.223 0 .105-.106.038-.274-.175zm11.312-1.904c.093-.037.204-.032.246.01.043.043-.033.073-.169.067-.15-.006-.18-.036-.077-.077zm3.216 0c.092-.037.203-.032.246.01.043.043-.033.073-.169.067-.15-.006-.18-.036-.077-.077zm-23.506-.242c.006-.148.037-.178.078-.077.037.092.032.202-.01.244-.043.043-.073-.033-.068-.167zm41.034 0c.006-.148.037-.178.078-.077.037.092.032.202-.01.244-.043.043-.074-.033-.068-.167zm-10.237-2.984c.277-.28.532-.51.567-.51.036 0-.162.23-.438.51s-.531.51-.567.51c-.035 0 .162-.23.438-.51zm-1.865-1.187c0-.021.188-.208.418-.414l.418-.374-.377.414c-.353.386-.459.473-.459.374zm-16.207-1.043c.166-.175.33-.318.366-.318.035 0-.072.143-.238.318-.166.175-.33.319-.366.319-.036 0 .071-.144.238-.319zm13.667-6.144c.194-.03.513-.03.707 0 .195.03.036.053-.353.053-.39 0-.549-.024-.354-.053zm5.94-.578-.377-.414.418.374c.23.206.418.393.418.415 0 .098-.106.011-.458-.375zm-13.457-6.809c.093-.036.204-.032.246.01.043.043-.033.073-.168.067-.15-.006-.18-.036-.078-.077zm3.216 0c.092-.036.203-.032.246.01.043.043-.033.073-.169.067-.15-.006-.18-.036-.077-.077z" transform="translate(-27.72 6.737)"/><path style="fill:#b9b9b9;fill-opacity:1;stroke-width:1" d="M122.58 221.783c.093-.037.204-.033.246.01.043.042-.033.072-.169.067-.15-.006-.18-.037-.077-.077zm2.444 0c.093-.037.204-.033.246.01.043.042-.033.072-.169.067-.15-.006-.18-.037-.077-.077zm-3.73-.128c.092-.037.203-.032.246.01.043.043-.033.073-.169.067-.15-.006-.18-.036-.078-.077zm5.016 0c.093-.037.204-.032.247.01.042.043-.034.073-.17.067-.15-.006-.18-.036-.077-.077zm-5.917-.127c.093-.037.204-.032.246.01.043.042-.033.072-.168.067-.15-.006-.18-.036-.078-.077zm6.817 0c.093-.037.204-.032.247.01.043.042-.033.072-.169.067-.15-.006-.18-.036-.078-.077zm-13.12-4.715c.093-.037.204-.032.247.01.042.042-.034.072-.17.067-.15-.006-.18-.036-.077-.077zm2.058 0c.093-.037.204-.032.247.01.042.042-.034.072-.17.067-.15-.006-.18-.036-.077-.077zm-6.866-.964-.378-.414.419.374c.39.349.477.454.377.454-.022 0-.21-.186-.418-.414zm28.758.374c0-.022.188-.208.418-.414l.418-.374-.378.414c-.352.386-.458.472-.458.374zm-18.395-1.155c0-.027.102-.127.225-.223.204-.159.209-.154.049.048-.168.212-.274.28-.274.175zm-7.579-.536c.006-.148.037-.179.078-.077.037.092.032.202-.01.244-.043.043-.073-.033-.068-.167zm2.803-.021c-.16-.202-.155-.207.05-.048.123.096.224.196.224.223 0 .105-.105.037-.273-.175zm-2.803-.998c.006-.149.037-.18.078-.077.037.092.032.201-.01.244-.043.042-.073-.033-.068-.167zm3.334-1.886c0-.026.102-.126.226-.223.204-.158.208-.154.048.048-.168.213-.274.28-.274.175zm6.314-.79c.006-.149.036-.18.077-.077.037.092.033.201-.01.244-.043.042-.073-.033-.067-.167zm-8.114-.245c.166-.175.33-.318.366-.318.035 0-.072.143-.238.318-.166.176-.33.319-.366.319-.036 0 .071-.143.238-.319zm.9-.749c0-.026.101-.126.225-.223.204-.158.209-.154.049.048-.168.213-.274.28-.274.175zm7.224-.716c0-.175.029-.247.065-.16a.487.487 0 0 1 0 .32c-.036.087-.065.015-.065-.16zm6.91-1.115c-.16-.202-.156-.207.048-.048.214.166.282.27.176.27-.026 0-.128-.1-.225-.222zm-5.546-.632c.16-.03.391-.03.514.003.123.032-.008.057-.29.056-.284-.001-.384-.028-.224-.058zm-2.945-1.407c-.16-.202-.155-.207.049-.048.124.096.225.196.225.223 0 .105-.106.037-.274-.175zm2.238.007a.74.74 0 0 1 .386.005c.087.035-.015.061-.227.059-.213-.003-.284-.031-.159-.064zm2.385.001c.093-.037.204-.032.247.01.043.042-.033.073-.169.067-.15-.006-.18-.036-.078-.077zm-5.652-.9c-.16-.203-.155-.207.049-.049.124.097.225.197.225.223 0 .105-.106.038-.274-.175zm-15.538-.234c.006-.149.037-.179.078-.077.037.092.033.202-.01.244-.043.042-.073-.033-.068-.167zm40.52 0c.006-.149.036-.179.077-.077.037.092.033.202-.01.244-.043.042-.073-.033-.068-.167zm-40.648-.892c.006-.149.036-.179.077-.077.038.092.033.202-.01.244-.042.042-.073-.033-.067-.167zm40.776 0c.006-.149.037-.179.078-.077.037.092.033.202-.01.244-.043.042-.073-.033-.068-.167zm-30.384-.404c-.16-.202-.155-.206.049-.048.214.167.282.271.177.271-.027 0-.128-.1-.226-.223zm-10.52-.87c.005-.149.036-.18.077-.077.037.092.032.201-.01.244-.043.042-.073-.033-.068-.167zm41.033 0c.006-.149.037-.18.078-.077.037.092.032.201-.01.244-.043.042-.074-.033-.068-.167zm-28.515-.213-.245-.287.29.243c.159.134.29.263.29.287 0 .102-.104.027-.335-.243zm-.643-.637-.245-.287.29.243c.272.228.348.33.245.33-.025 0-.155-.128-.29-.286zm-11.876-1.572c.006-.148.037-.178.078-.077.037.092.032.202-.01.245-.043.042-.073-.033-.068-.168zm41.034 0c.006-.148.037-.178.078-.077.037.092.032.202-.01.245-.043.042-.074-.033-.068-.168zm-19.655-.02c.338-.025.86-.025 1.158.002.298.026.022.048-.615.048s-.881-.023-.543-.049zm-10.702-.744c.006-.149.036-.179.077-.077.037.092.033.202-.01.244-.043.042-.073-.033-.067-.167zm-10.548-.51c.006-.148.036-.179.077-.077.038.092.033.202-.01.244-.042.043-.073-.033-.067-.167zm17.474-.149-.312-.35.354.309c.33.289.412.392.312.392-.023 0-.183-.158-.354-.35zm23.302.15c.006-.15.037-.18.078-.078.037.092.033.202-.01.244-.043.043-.073-.033-.068-.167zm-20.685-.27a.74.74 0 0 1 .386.005c.087.035-.016.062-.228.059-.212-.003-.283-.031-.158-.064zm1.286 0a.74.74 0 0 1 .386.005c.087.035-.015.062-.227.059-.213-.003-.284-.031-.159-.064zm-10.82-.294c0-.175.03-.247.066-.159a.487.487 0 0 1 0 .319c-.036.087-.065.015-.065-.16zm-10.429-.329c.006-.148.037-.179.078-.077.037.092.033.202-.01.244-.043.043-.073-.033-.068-.167zm40.52 0c.006-.148.036-.179.077-.077.037.092.033.202-.01.244-.043.043-.073-.033-.068-.167zm-23.713-.706c.087-.087.19-.126.23-.087.04.04-.031.11-.158.158-.184.07-.198.055-.072-.07zm14.312-1.052c0-.026.102-.127.225-.223.204-.158.209-.154.049.048-.168.213-.274.28-.274.175zm-3.087-.127c0-.027.101-.127.225-.223.204-.159.209-.154.049.048-.065.087-.174.134-.274.175zm-16.208-.765c0-.026.102-.127.226-.223.204-.158.208-.154.048.048-.168.213-.274.28-.274.175zm-2.958-1.02c0-.026.101-.126.225-.222.204-.159.209-.154.049.048-.168.212-.274.28-.274.175zm1.35-1.48c.78-.79.73-.606.13 0-.35.35-.663.637-.699.637-.035 0 .221-.287.57-.637zm20.813-1.53c0-.385.024-.542.054-.35.063.42-.052 1.074-.054.35zm-.63-1.688-.244-.286c.235.113.519.545.534.573-.024 0-.155-.13-.29-.287zm-7.536-.692c.092-.037.203-.032.246.01.043.042-.033.072-.169.067-.15-.006-.18-.036-.077-.077zm-17.47-1.61c0-.021.188-.208.418-.414l.418-.374-.378.414c-.352.386-.458.473-.458.374zm29.384-.374-.378-.414.418.374c.23.206.419.393.419.414 0 .099-.107.012-.459-.374zm-10.955-.948a.74.74 0 0 1 .386.005c.087.035-.016.061-.228.059-.212-.003-.283-.032-.158-.064zm4.05.004a.501.501 0 0 1 .32 0c.09.035.017.064-.16.064s-.25-.029-.16-.064zm-2.057-.133c.16-.03.391-.03.514.003.123.031-.008.056-.29.055-.284-.001-.384-.028-.224-.058zm-8.998-4.585c.093-.037.204-.032.247.01.042.043-.034.073-.17.067-.15-.006-.18-.036-.077-.077zm6.817 0c.093-.037.204-.032.247.01.043.043-.033.073-.169.067-.15-.006-.18-.036-.078-.077zm-5.917-.127c.093-.037.204-.033.247.01.043.042-.033.072-.169.067-.15-.006-.18-.037-.078-.077zm5.017 0c.093-.037.204-.033.247.01.042.042-.034.072-.17.067-.15-.006-.18-.037-.077-.077zm-3.73-.128c.093-.036.204-.032.246.01.043.043-.033.073-.169.067-.15-.006-.18-.036-.077-.077zm2.444 0c.093-.036.204-.032.246.01.043.043-.033.073-.169.067-.15-.006-.18-.036-.077-.077z" transform="translate(-27.72 6.737)"/><path style="fill:#cd669a;fill-opacity:1;stroke-width:1;stroke:none;stroke-opacity:1" d="M148.013 164.434a49.84 49.84 0 0 0-1.479-.193c-5.888-.704-11.204-4.09-14.653-9.335-.583-.886-1.62-3.032-1.983-4.1a20.7 20.7 0 0 1-1.107-6.689c0-7.039 3.49-13.301 9.618-17.256.894-.577 3.06-1.605 4.138-1.964a21.308 21.308 0 0 1 13.505 0c1.078.359 3.245 1.387 4.139 1.964 4.629 2.988 7.747 7.254 9.025 12.35.943 3.76.762 7.828-.515 11.595-.362 1.068-1.4 3.214-1.982 4.1-3.377 5.134-8.377 8.391-14.268 9.293-1.219.187-3.892.328-4.438.235zm-5.5-5.172c2.05-.697 3.598-2.229 4.361-4.314.352-.96.452-3.006.194-3.95-.105-.385-.163-.728-.128-.763.034-.034.702-.083 1.484-.11 3.051-.103 5.131 1.015 5.561 2.99.128.588-.244 1.374-.923 1.949-.566.479-.638.776-.188.776.336 0 1.364-.751 1.708-1.248.24-.348.32-.656.357-1.37.04-.791-.003-1.033-.304-1.699-1.056-2.329-4.14-3.436-7.696-2.762l-.969.183-.683-.617c-.375-.34-1.29-1.084-2.033-1.654-1.839-1.41-2.852-2.424-3.356-3.361-.384-.713-.423-.886-.413-1.82.01-.913.065-1.14.476-1.975.984-1.996 3.319-3.935 7.152-5.937 5.091-2.66 10.69-3.102 12.453-.984.38.457.41.562.41 1.451 0 .836-.056 1.069-.437 1.818-1.577 3.101-5.766 5.458-9.725 5.472-1.584.005-2.455-.256-3.273-.98-.542-.48-.759-.51-.811-.117-.057.421.523 1.239 1.219 1.72 1.068.74 1.897.947 3.766.943 4.23-.01 7.98-1.76 10.097-4.711 1.2-1.673 1.667-3.07 1.581-4.73-.119-2.3-1.528-3.734-4.45-4.528-1.426-.387-4.47-.377-6.2.02-3.736.86-7.965 2.886-10.997 5.27-1.103.867-2.63 2.483-3.283 3.474-.934 1.418-1.203 2.193-1.212 3.494-.007.996.03 1.163.436 1.955.727 1.42 2.201 2.899 4.41 4.423 1.863 1.285 3.081 2.173 3.037 2.211-.024.021-.45.257-.944.524-2.017 1.089-3.9 2.523-4.736 3.61-.54.7-.988 1.956-.988 2.766 0 1.208.793 2.487 1.703 2.747.702.2 2.537.11 3.345-.166zm-2.21-2.229c-.36-.453-.312-.967.185-2.008.579-1.212 2.015-2.51 4.07-3.68l.595-.34.08.395c.124.616.093 1.595-.07 2.238-.466 1.833-2.293 3.533-3.979 3.701-.53.053-.62.022-.88-.306z" transform="translate(-27.72 6.737)"/></g></svg>