<?xml version="1.0" encoding="UTF-8" standalone="no"?>
<svg
   width="503.126"
   height="501.444"
   viewBox="0 0 133.119 132.674"
   xml:space="preserve"
   version="1.1"
   id="icon_frist"
   sodipodi:docname="svg-intro-screen.svg"
   inkscape:version="1.2.1 (9c6d41e410, 2022-07-14)"
   xmlns:inkscape="http://www.inkscape.org/namespaces/inkscape"
   xmlns:sodipodi="http://sodipodi.sourceforge.net/DTD/sodipodi-0.dtd"
   xmlns="http://www.w3.org/2000/svg"
   xmlns:svg="http://www.w3.org/2000/svg"><defs
     id="defs12" /><sodipodi:namedview
     id="namedview10"
     pagecolor="#ffffff"
     bordercolor="#000000"
     borderopacity="0.25"
     inkscape:showpageshadow="2"
     inkscape:pageopacity="0.0"
     inkscape:pagecheckerboard="0"
     inkscape:deskcolor="#d1d1d1"
     showgrid="false"
     inkscape:zoom="1.2605964"
     inkscape:cx="197.92219"
     inkscape:cy="256.22793"
     inkscape:window-width="1920"
     inkscape:window-height="1017"
     inkscape:window-x="1912"
     inkscape:window-y="-8"
     inkscape:window-maximized="1"
     inkscape:current-layer="icon_frist" /><g
     id="g525"
     inkscape:label="grupoIcoLaptop"><path
       style="display:none;fill:#1cbe9d;fill-opacity:1;fill-rule:evenodd;stroke:none;stroke-width:1.7;stroke-linecap:square;paint-order:fill markers stroke"
       d="M 0,0.23 V 132.673 L 133.32789,132.65289 133.0789,-0.19677568 Z"
       id="path2"
       inkscape:label="fondo"
       sodipodi:nodetypes="ccccc" /><path
       style="display:inline;fill:#ff6d4a;fill-opacity:1;fill-rule:evenodd;stroke:none;stroke-width:1.7;stroke-linecap:square;paint-order:fill markers stroke"
       d="m 18.504,27.345 0.03,64.02 97.794,-0.047 0.044,-64.018 z"
       id="path4"
       inkscape:label="fondoPc" /><path
       style="display:none;fill:#ffffff;fill-rule:evenodd;stroke-width:1.7;stroke-linecap:square;paint-order:fill markers stroke"
       d="m 59.51069,54.030756 -13.433835,6.538591 -0.03963,2.655065 13.49908,5.906954 c 0.471115,-0.02841 0.21879,-2.670835 0.177145,-4.028616 l -8.182165,-3.348522 8.35029,-3.824882 c -0.123628,-1.29953 0.117758,-3.937446 -0.370885,-3.89859 z"
       id="path456"
       sodipodi:nodetypes="cccccccc"
       inkscape:label="menorQue" /><path
       style="display:none;fill:#ffffff;fill-rule:evenodd;stroke-width:1.7;stroke-linecap:square;paint-order:fill markers stroke"
       d="m 78.274578,54.009201 12.252623,6.538591 0.03615,2.655065 -12.312132,5.906954 c -0.42969,-0.02841 -0.199552,-2.670835 -0.161569,-4.028616 l 7.462723,-3.348522 -7.616065,-3.824882 c 0.112758,-1.29953 -0.107403,-3.937446 0.338274,-3.89859 z"
       id="path456-9"
       sodipodi:nodetypes="cccccccc"
       inkscape:label="mayorQue" /><path
       style="display:none;fill:#ffffff;stroke-width:1"
       d="M 5.704,100.941 C 4.751,100.557 4.371,99.613 4.199,97.201 4.061,95.262 4.1,94.89 4.454,94.754 c 0.23,-0.089 2.853,-0.16 5.83,-0.16 5.268,0 5.404,-0.014 5.138,-0.512 -0.185,-0.345 -0.274,-11.342 -0.274,-33.743 0,-36.091 -0.072,-34.347 1.458,-35.551 l 0.73,-0.574 h 49.863 c 45.685,0 49.925,0.036 50.596,0.433 1.713,1.012 1.599,-1.54 1.599,35.605 0,25.863 -0.074,33.78 -0.318,34.024 -0.247,0.247 0.955,0.317 5.408,0.317 3.986,0 5.783,0.092 5.912,0.3 0.33,0.534 0.098,4.248 -0.315,5.046 -0.217,0.42 -0.694,0.876 -1.06,1.016 -0.859,0.326 -122.506,0.312 -123.317,-0.014 z m 110.99,-2.167 c 0.706,-0.705 0.035,-2.064 -1.017,-2.064 -0.762,0 -1.422,1.149 -1.055,1.834 0.328,0.614 1.553,0.75 2.073,0.23 z m 4.275,-0.065 c 0.522,-0.629 0.224,-1.564 -0.589,-1.848 -0.608,-0.213 -0.831,-0.16 -1.304,0.314 -0.49,0.49 -0.528,0.667 -0.265,1.244 0.351,0.77 1.618,0.94 2.158,0.29 z m 4.242,-0.011 c 0.83,-1 -0.72,-2.55 -1.72,-1.72 -0.398,0.33 -0.542,1.612 -0.217,1.937 0.325,0.325 1.607,0.18 1.937,-0.217 z M 17.198,97.966 c -0.081,-0.245 -1.13,-0.33 -4.035,-0.33 -2.904,0 -3.953,0.085 -4.035,0.33 -0.085,0.255 0.837,0.33 4.035,0.33 3.199,0 4.12,-0.075 4.035,-0.33 z m 65.58,-2.514 c 0.44,-0.44 -0.285,-0.466 -15.238,-0.531 -8.634,-0.038 -15.757,-0.01 -15.827,0.06 -0.07,0.07 0.022,0.31 0.206,0.531 0.293,0.353 2.222,0.403 15.365,0.403 13.962,0 15.063,-0.033 15.493,-0.463 z m 33.176,-36.05 V 27.652 H 18.852 v 63.5 h 97.102 z m -65.75,-33.6 c 0,-0.485 -0.16,-0.684 -0.597,-0.747 -0.357,-0.05 -0.66,0.082 -0.755,0.331 -0.264,0.687 0.105,1.254 0.755,1.162 0.438,-0.062 0.597,-0.261 0.597,-0.746 z"
       id="path6"
       inkscape:label="laptop"
       sodipodi:nodetypes="cccscsccscssscccccsccccccscccsccscscccscsccccccccsccss" /></g></svg>
