<svg width="199.157" height="203.851" viewBox="0 0 52.694 53.935" xml:space="preserve" xmlns:xlink="http://www.w3.org/1999/xlink" xmlns="http://www.w3.org/2000/svg"><defs><pattern xlink:href="#a" id="c"/><pattern patternUnits="userSpaceOnUse" width="76.627" height="78.427" patternTransform="translate(60.514 54.496)" id="a"><text xml:space="preserve" transform="matrix(9.22915 0 0 9.09913 178.959 -491.466)" style="white-space:pre;shape-inside:url(#b);display:inline;fill:#b81a1e;fill-opacity:1;stroke:none;stroke-width:.824875;stroke-linecap:round;stroke-linejoin:round;stroke-dasharray:none;stroke-dashoffset:0;stroke-opacity:1"><tspan x="-19.678" y="62.632"><tspan style="font-family:'Century Gothic';-inkscape-font-specification:'Century Gothic';fill:#fff">A</tspan></tspan></text></pattern><path id="d" d="M20.787 67.056h90.19v91.532h-90.19z"/><path id="b" d="M-19.678 51.683h18.492v29.161h-18.492z"/></defs><g transform="translate(-94.92 -124.194)" style="display:inline"><rect style="display:inline;fill:#fff;fill-opacity:1;stroke:none;stroke-width:.8;stroke-linecap:round;stroke-linejoin:round;stroke-dasharray:none;stroke-dashoffset:0;stroke-opacity:1" width="52.694" height="53.935" x="94.919" y="124.194" ry="12.065"/><path style="display:inline;fill:none;stroke:none;stroke-width:.264583" d="M107.923 135.086h25.156v25.504h-25.156z"/><path style="fill:#0277cf;stroke:none;stroke-width:.999998" d="M101.049 131.44v39.752h39.319v-39.753h-39.32m33.05 23.103c-.882-.095-4.404-3.393-4.73-.285-.16 1.518 1.732 2.142 2.787 2.632 2.182 1.016 4.57 2.17 5.01 4.855 1.258 7.68-9.924 8.179-12.7 2.495.747-.405 2.077-1.616 2.956-1.447.617.118 1.09.948 1.589 1.304 1.25.891 3.541 1.044 4.336-.572.822-1.673-1.664-2.636-2.764-3.151-1.411-.661-2.933-1.27-3.927-2.554-2.08-2.686-.9-7.025 2.354-8.011 2.887-.874 5.757-.162 7.165 2.284m-12.582-2.292v3.209h-5.243v14.796h-3.67v-14.796h-5.067V149.8z"/></g></svg>