<svg width="199.157" height="203.851" viewBox="0 0 52.694 53.935" xml:space="preserve" xmlns:xlink="http://www.w3.org/1999/xlink" xmlns="http://www.w3.org/2000/svg"><defs><pattern xlink:href="#a" id="c"/><pattern patternUnits="userSpaceOnUse" width="76.627" height="78.427" patternTransform="translate(60.514 54.496)" id="a"><text xml:space="preserve" transform="matrix(9.22915 0 0 9.09913 178.959 -491.466)" style="white-space:pre;shape-inside:url(#b);display:inline;fill:#b81a1e;fill-opacity:1;stroke:none;stroke-width:.824875;stroke-linecap:round;stroke-linejoin:round;stroke-dasharray:none;stroke-dashoffset:0;stroke-opacity:1"><tspan x="-19.678" y="62.632"><tspan style="font-family:'Century Gothic';-inkscape-font-specification:'Century Gothic';fill:#fff">A</tspan></tspan></text></pattern><path id="d" d="M20.787 67.056h90.19v91.532h-90.19z"/><path id="b" d="M-19.678 51.683h18.492v29.161h-18.492z"/></defs><g transform="translate(-94.92 -124.194)" style="display:inline"><rect style="display:inline;fill:#000;fill-opacity:1;stroke:none;stroke-width:.8;stroke-linecap:round;stroke-linejoin:round;stroke-dasharray:none;stroke-dashoffset:0;stroke-opacity:1" width="52.694" height="53.935" x="94.919" y="124.194" ry="12.065"/><path style="display:inline;fill:none;stroke:none;stroke-width:.264583" d="M107.923 135.086h25.156v25.504h-25.156z"/><g style="fill:#3a7f70;fill-opacity:1;stroke-width:2.23404"><path style="fill:#3a7f70;fill-opacity:0;stroke-width:2.23404" d="M156.366 203.168c0 10.859.01 19.265.022 19.239.028-.06 11.51-38.348 11.53-38.45.013-.066-.665-.075-5.769-.075h-5.783zm11.715-18.871c.115.379 11.188 37.297 11.377 37.936l.082.277v-38.628h-11.586zm-1.465 33.802-1.323 4.41 1.33.014c.732.007 1.928.007 2.66 0l1.33-.013-1.324-4.41a414.46 414.46 0 0 0-1.336-4.412c-.007 0-.61 1.985-1.337 4.411z" transform="matrix(.46096 0 0 .43466 60.818 41.648)"/><path style="fill:#3a7f70;fill-opacity:1;stroke-width:2.23404" d="M87.301 222.54c2.699-.015 7.083-.015 9.742 0 2.66.015.452.028-4.906.028s-7.534-.013-4.836-.028zm77.608 0c2.698-.015 7.082-.015 9.742 0 2.659.015.451.028-4.907.028s-7.534-.013-4.835-.028z" transform="matrix(.46096 0 0 .43466 60.818 41.648)"/><path style="fill:#3fb17f;fill-opacity:1;stroke-width:2.23404" d="M106.804 261.812a46913.826 46913.826 0 0 0-24.224-38.967l-.156-.229h19.364l14.542 23.4c7.998 12.87 14.572 23.4 14.608 23.4.036 0 6.61-10.53 14.608-23.4l14.543-23.4H179.456l-.156.23c-.087.125-10.988 17.66-24.227 38.966-13.238 21.305-24.099 38.737-24.135 38.737-.037 0-10.897-17.432-24.134-38.737z" transform="matrix(.46096 0 0 .43466 60.818 41.648)"/><path style="fill:#3a7f70;fill-opacity:1;stroke-width:2.23404" d="M101.824 222.59c0-.041 4.027-.065 8.948-.052 4.922.013 7.52.036 5.774.051-8.28.07-14.722.07-14.722.002zm49.257.026-8.921-.053 8.948-.024c5.91-.016 8.949.01 8.949.077 0 .056-.013.09-.028.077-.015-.013-4.041-.048-8.948-.077z" transform="matrix(.46096 0 0 .43466 60.818 41.648)"/><path style="fill:#415163;fill-opacity:1;stroke-width:2.23404" d="M116.437 246.06c-7.947-12.79-14.465-23.296-14.485-23.348-.023-.06 3.38-.096 8.868-.096h8.904l5.58 8.995c4.19 6.752 5.613 8.965 5.706 8.877.068-.065 2.056-3.231 4.417-7.036 2.361-3.806 4.841-7.8 5.511-8.877l1.218-1.959h8.905c5.373 0 8.89.037 8.868.094-.083.214-28.939 46.6-28.989 46.601-.03 0-6.556-10.463-14.503-23.252z" transform="matrix(.46096 0 0 .43466 60.818 41.648)"/></g></g></svg>